<?xml version="1.0" standalone="no"?> <!DOCTYPE svg PUBLIC "-//W3C//DTD SVG 1.0//EN" "http://www.w3.org/TR/2001/REC-SVG-20010904/DTD/svg10.dtd" > <svg xmlns="http://www.w3.org/2000/svg" width="100%" height="100%">
<defs >
<font horiz-adv-x="549" ><font-face
    font-family="LG Smart"
    units-per-em="1000"
    panose-1="2 11 8 2 4 4 2 6 2 3"
    ascent="716"
    descent="-284"
    alphabetic="0" />
<missing-glyph horiz-adv-x="545" d="M471 659V0H74V659H471ZM421 614H123V44H421V614ZM248 209V234Q248 271 261 298T291 349T321 393T335 438Q335 465 317 482T264 499Q240 499 221 491T190 473L172 506Q192 521 215 529T264 538Q318 538 348 511T378 439Q378
409 365 386T335 341T305 293T291 234V209H248ZM295 120H246V161H295V120Z" />
<glyph unicode=" " glyph-name="space" horiz-adv-x="234" />
<glyph unicode="!" glyph-name="exclam" horiz-adv-x="276" d="M190 188H86L65 659H211L190 188ZM73 122H204V0H73V122Z" />
<glyph unicode="&quot;" glyph-name="quotedbl" horiz-adv-x="466" d="M89 412L74 687H196L180 412H89ZM285 412L270 687H392L376 412H285Z" />
<glyph unicode="#" glyph-name="numbersign" horiz-adv-x="542" d="M477 312H403V220H477V133H403V70H311V133H230V70H138V133H64V220H138V312H64V399H138V461H230V399H311V461H403V399H477V312ZM230 220H311V312H230V220Z" />
<glyph unicode="$" glyph-name="dollar" horiz-adv-x="541" d="M239 754H312V665Q332 664 354 662T400 655Q429 650 456 642T506 620L460 522Q444 530 425 537T383 550Q366 555 349 557T312 561V386Q334 378 354 369T395 351Q420 339 441 326T479 293T504 246T513
179Q513 90 446 41Q394 2 312 -5V-89H239V-9Q192 -6 143 3Q82 15 27 43L76 142Q121 120 165 109Q182 105 200 103T239 99V275Q198 289 162 305Q131 320 108 335T69 371T46 417T38 481Q38 567 102 616Q153 655 239 664V754ZM354 119Q383 142 383 172Q383 187 378
198T365 217T348 230T333 239L312 248V103Q337 107 354 119ZM197 543Q170 523 170 492Q170 459 190 442T233 416L239 413V558Q212 553 197 543Z" />
<glyph unicode="%" glyph-name="percent" horiz-adv-x="693" d="M206 493Q206 544 195 571T156 599Q128 599 116 572T104 493Q104 442 116 416T156 389Q184 389 195 415T206 493ZM604 165Q604 214 594 242T555 271Q526 271 515 243T503 165Q503 114 514 88T555
61Q583 61 593 87T604 165ZM161 -32H49L526 691H639L161 -32ZM555 -11Q481 -11 447 37T413 165Q413 246 446 293T555 341Q627 341 660 294T694 165Q694 86 660 38T555 -11ZM156 317Q82 317 48 365T14 493Q14 574 47 621T156 669Q228 669 262 622T296 493Q296 414
262 366T156 317Z" />
<glyph unicode="&amp;" glyph-name="ampersand" horiz-adv-x="617" d="M617 0H464L418 52Q407 44 395 36T370 21Q312 -11 239 -11Q192 -11 153 -2T86 28T41 85T25 173Q25 247 71 299Q103 334 154 360Q147 369 141 378T129 398Q116 420 108 444T100 494Q100 535
115 567T156 622T219 657T300 669Q340 669 375 661T435 633T475 585T490 512Q490 479 480 452T451 404T407 365T354 335Q349 332 344 330T333 325L424 221Q431 232 437 243T448 268Q470 313 482 356L595 333Q584 304 572 274T544 212Q533 192 522 173T497 136L617
0ZM196 258Q180 244 169 225T158 182Q158 134 183 113T248 91Q292 91 329 116L349 131L222 277Q210 270 196 258ZM275 407Q313 424 337 445T361 502Q361 534 346 552T302 570Q269 570 250 552T230 496Q230 458 250 426L265 403Q268 404 270 405T275 407Z" />
<glyph unicode="&apos;" glyph-name="quotesingle" horiz-adv-x="270" d="M89 412L74 687H196L180 412H89Z" />
<glyph unicode="(" glyph-name="parenleft" horiz-adv-x="362" d="M53 265Q53 341 65 402T102 518T164 622T250 724L329 659Q290 614 262 571T216 482T190 382T181 265Q181 201 189 147T216 45T262 -47T329 -134L250 -199Q201 -147 164 -96T103 10T66 127T53 265Z" />
<glyph unicode=")" glyph-name="parenright" horiz-adv-x="362" d="M309 265Q309 190 297 128T259 10T198 -96T112 -199L32 -134Q71 -91 99 -47T146 45T172 147T181 265Q181 330 173 382T146 481T99 571T32 659L112 724Q161 671 197 622T259 518T296 403T309 265Z" />
<glyph unicode="*" glyph-name="asterisk" horiz-adv-x="466" d="M298 250L233 376L168 250L54 326L158 430L22 453L61 583L187 518L166 659H300L278 519L405 583L444 453L305 430L411 326L298 250Z" />
<glyph unicode="+" glyph-name="plus" horiz-adv-x="563" d="M336 213V51H226V213H64V316H226V480H336V316H499V213H336Z" />
<glyph unicode="," glyph-name="comma" horiz-adv-x="256" d="M16 -109Q36 -79 46 -50T62 7T68 64T69 122H188Q188 73 183 34T166 -39T137 -102T95 -161L16 -109Z" />
<glyph unicode="-" glyph-name="hyphen" horiz-adv-x="366" d="M317 180H49V289H317V180Z" />
<glyph unicode="." glyph-name="period" horiz-adv-x="256" d="M193 0H62V122H193V0Z" />
<glyph unicode="/" glyph-name="slash" horiz-adv-x="387" d="M263 691H387L123 -32H0L263 691Z" />
<glyph unicode="0" glyph-name="zero" horiz-adv-x="563" d="M282 -11Q214 -11 166 13T86 82T39 189T24 329Q24 406 39 469T85 576T165 645T282 669Q349 669 397 645T476 577T523 469T538 329Q538 252 523 190T477 83T397 14T282 -11ZM282 569Q248 569 224 552T184
504T161 428T153 329Q153 275 160 231T183 155T223 107T282 90Q347 90 377 154T408 329Q408 384 401 428T378 504T339 552T282 569Z" />
<glyph unicode="1" glyph-name="one" horiz-adv-x="563" d="M251 0V535L117 471L78 552L295 659H383V0H251Z" />
<glyph unicode="2" glyph-name="two" horiz-adv-x="563" d="M526 0H43V70L285 310Q333 356 349 395T366 474Q366 498 357 515T332 545T296 563T253 569Q208 569 165 556T79 517L37 606Q95 638 152 653T265 669Q316 669 360 660T436 628T487 570T506 479Q506 446
496 416T468 358T428 305T381 256L224 102H526V0Z" />
<glyph unicode="3" glyph-name="three" horiz-adv-x="563" d="M263 -11Q188 -11 127 11T28 69L95 152Q123 130 166 113T260 96Q287 96 311 102T352 120T380 152T391 197Q391 245 357 269T260 294Q225 294 207 290T177 283L172 391H218Q239 391 265 395T315 409T354
438T370 484Q370 529 340 548T265 567Q222 567 180 553T105 515L54 601Q87 626 145 647T278 669Q330 669 372 660T445 631T492 579T509 499Q509 476 500 455T476 415T442 384T404 363Q431 353 455 339T496 304T524 258T534 196Q534 142 514 103T457 39T371 1T263
-11Z" />
<glyph unicode="4" glyph-name="four" horiz-adv-x="563" d="M459 659V233H546V136H459V0H327V136H16V210L258 659H459ZM327 233V557H318L151 233H327Z" />
<glyph unicode="5" glyph-name="five" horiz-adv-x="563" d="M83 321V659H481V560H216V419H232Q292 419 345 411T438 380T501 318T524 218Q524 160 505 117T451 46T368 3T261 -11Q186 -11 132 13T39 77L110 159Q143 130 180 112T265 94Q325 94 357 121T389 205Q389
238 375 260T336 296T279 315T210 321H83Z" />
<glyph unicode="6" glyph-name="six" horiz-adv-x="563" d="M37 296Q37 387 54 457T108 574T203 645T343 670Q388 670 425 663T496 642L466 547Q418 568 352 568Q308 568 277 556T225 521T193 468T177 401Q176 399 176 394Q199 407 224 414Q264 426 303 426Q412
426 468 376T525 219Q525 169 510 128T463 55T387 7T283 -10Q224 -10 178 6T101 58T53 153T37 296ZM175 215Q181 158 205 123T284 87Q392 87 392 211Q392 260 363 290T281 321Q246 321 215 311Q190 304 171 292Q171 272 172 253T175 215Z" />
<glyph unicode="7" glyph-name="seven" horiz-adv-x="563" d="M149 0L379 559H35V659H529V591L288 0H149Z" />
<glyph unicode="8" glyph-name="eight" horiz-adv-x="563" d="M414 343Q437 337 459 323T498 287T525 238T536 178Q536 82 468 36T281 -11Q164 -11 95 35T26 178Q26 210 36 237T64 286T102 322T147 343Q127 351 109 364T76 395T54 438T45 492Q45 577 107 623T281
669Q393 669 455 623T517 492Q517 462 508 438T485 396T452 364T414 343ZM390 188Q390 236 361 262T281 288Q226 288 197 262T168 188Q168 139 197 113T281 86Q332 86 361 112T390 188ZM377 481Q377 524 352 548T281 573Q233 573 207 549T181 481Q181 436 207 412T281
388Q326 388 351 412T377 481Z" />
<glyph unicode="9" glyph-name="nine" horiz-adv-x="563" d="M525 363Q525 272 508 202T454 85T359 14T219 -11Q174 -11 137 -4T66 17L96 112Q144 91 210 91Q254 91 285 103T337 138T369 191T385 258Q386 260 386 265Q363 252 338 245Q297 233 259 233Q150 233
94 283T37 440Q37 489 52 531T99 604T175 652T279 669Q338 669 384 653T461 601T509 506T525 363ZM387 444Q381 501 357 536T278 572Q170 572 170 448Q170 399 199 369T281 338Q316 338 347 348Q372 355 391 367Q391 387 390 406T387 444Z" />
<glyph unicode=":" glyph-name="colon" horiz-adv-x="256" d="M192 336H61V458H192V336ZM192 0H61V122H192V0Z" />
<glyph unicode=";" glyph-name="semicolon" horiz-adv-x="256" d="M16 -109Q36 -79 46 -50T62 7T68 64T69 122H188Q188 73 183 34T166 -39T137 -102T95 -161L16 -109ZM197 336H66V458H197V336Z" />
<glyph unicode="&lt;" glyph-name="less" horiz-adv-x="563" d="M372 -12L94 265L372 543L452 470L252 271L454 69L372 -12Z" />
<glyph unicode="=" glyph-name="equal" horiz-adv-x="563" d="M502 134H61V236H502V134ZM502 295H61V396H502V295Z" />
<glyph unicode="&gt;" glyph-name="greater" horiz-adv-x="563" d="M172 543L450 266L172 -12L92 61L292 260L90 462L172 543Z" />
<glyph unicode="?" glyph-name="question" horiz-adv-x="448" d="M257 0H126V122H257V0ZM131 188V250Q131 284 142 310T169 357T204 394T239 427T266 459T277 495Q277 526 256 543T186 561Q152 561 117 550T60 524L25 621Q58 640 109 654T214 669Q257 669 294
661T358 635T400 588T416 515Q416 474 404 446T373 397T333 358T293 321T262 280T249 225V188H131Z" />
<glyph unicode="@" glyph-name="at" horiz-adv-x="1012" d="M564 469Q606 469 652 462T731 439L681 187Q679 178 678 168T677 147Q677 126 687 111T723 96Q756 96 780 112T821 156T846 224T855 308Q855 383 837 433T783 514T694 556T568 569Q371 569 268 462T164
143Q164 68 182 17T234 -66T319 -112T435 -126Q486 -126 528 -120T621 -100L649 -195Q600 -210 547 -219T433 -229Q339 -229 266 -207T143 -140T66 -24T40 143Q40 273 78 371T186 536T354 635T574 669Q671 669 746 649T873 586T951 473T978 305Q978 242 962 186T913
88T830 20T713 -5Q651 -5 611 26Q593 39 581 61L573 52Q545 24 507 7T414 -11Q334 -11 296 36T257 160Q257 314 335 391T564 469ZM561 379Q470 379 430 326T389 175Q389 127 405 105T447 83Q479 83 509 104Q528 117 545 143L595 377Q587 378 578 378T561 379Z"
/>
<glyph unicode="A" glyph-name="A" horiz-adv-x="652" d="M502 0L446 171H200L145 0H5L242 659H417L647 0H502ZM321 557L235 276H412L329 557H321Z" />
<glyph unicode="B" glyph-name="B" horiz-adv-x="606" d="M457 352Q508 334 540 295T573 195Q573 143 556 106T508 46T436 11T349 0H70V659H333Q385 659 426 650T495 622T539 570T554 493Q554 445 528 409T457 352ZM417 474Q417 499 410 515T390 540T361 552T326
556H198V392H327Q367 392 392 413T417 474ZM328 103Q349 103 368 107T402 121T424 150T433 196Q433 224 425 243T403 273T369 289T329 294H198V103H328Z" />
<glyph unicode="C" glyph-name="C" horiz-adv-x="610" d="M348 -11Q267 -11 210 11T116 77T62 183T45 329Q45 500 124 584T353 669Q383 669 415 664T477 647T534 618T582 576L504 500Q477 532 441 548T357 565Q182 565 182 320Q182 101 356 101Q410 101 456 113T544
144L574 42Q532 18 470 4T348 -11Z" />
<glyph unicode="D" glyph-name="D" horiz-adv-x="672" d="M284 659Q366 659 429 641T536 584T603 481T626 327Q626 235 598 172T521 71T404 17T258 0H70V659H284ZM253 103Q308 103 351 114T425 152T471 224T487 338Q487 450 433 502T281 555H203V103H253Z" />
<glyph unicode="E" glyph-name="E" horiz-adv-x="557" d="M505 104V0H70V659H494V555H203V390H484V288H203V104H505Z" />
<glyph unicode="F" glyph-name="F" horiz-adv-x="517" d="M203 0H70V659H484V555H203V390H464V288H203V0Z" />
<glyph unicode="G" glyph-name="G" horiz-adv-x="674" d="M608 34Q560 12 500 1T369 -11Q201 -11 123 77T45 329Q45 413 67 477T132 583T236 647T375 669Q448 669 511 647T619 572L538 500Q510 531 471 550T377 569Q280 569 231 505T181 320Q181 206 232 150T377
93Q405 93 437 96L479 105V260H342V361H608V34Z" />
<glyph unicode="H" glyph-name="H" horiz-adv-x="677" d="M607 659V0H474V277H203V0H70V659H203V382H474V659H607Z" />
<glyph unicode="I" glyph-name="I" horiz-adv-x="273" d="M70 659H203V0H70V659Z" />
<glyph unicode="J" glyph-name="J" horiz-adv-x="372" d="M169 659H301V199Q301 90 254 43T101 -5Q77 -5 48 -1T-5 12L11 108Q32 103 54 100T91 97Q128 97 148 118T169 188V659Z" />
<glyph unicode="K" glyph-name="K" horiz-adv-x="608" d="M203 0H70V659H203V380H251L465 659H613L361 339L607 0H450L251 278H203V0Z" />
<glyph unicode="L" glyph-name="L" horiz-adv-x="478" d="M472 104V0H70V659H203V104H472Z" />
<glyph unicode="M" glyph-name="M" horiz-adv-x="849" d="M779 659V0H647V557H638L513 0H338L211 557H203V0H70V659H304L426 102H434L552 659H779Z" />
<glyph unicode="N" glyph-name="N" horiz-adv-x="729" d="M659 659V0H430L211 557H203V0H70V659H299L518 102H526V659H659Z" />
<glyph unicode="O" glyph-name="O" horiz-adv-x="691" d="M45 333Q45 503 121 586T356 669Q436 669 491 646T581 578T631 470T646 326Q646 157 570 73T334 -11Q253 -11 198 13T109 82T60 190T45 333ZM508 339Q508 385 501 427T477 500T431 550T357 569Q307 569
274 553T219 505T189 427T180 322Q180 275 187 233T212 160T258 110T331 92Q382 92 416 108T471 155T499 233T508 339Z" />
<glyph unicode="P" glyph-name="P" horiz-adv-x="575" d="M70 0V659H317Q429 659 490 609T551 455Q551 404 535 364T489 296T419 253T330 238H201V0H70ZM309 341Q328 341 347 347T381 366T405 401T414 455Q414 483 404 502T379 534T346 551T309 556H201V341H309Z" />
<glyph unicode="Q" glyph-name="Q" horiz-adv-x="690" d="M45 331Q45 503 120 586T357 669Q438 669 493 646T583 578T631 469T646 325Q646 224 616 159T539 55L529 47L663 -74L561 -144L419 -1Q397 -6 376 -8T333 -11Q253 -11 198 12T109 80T60 188T45 331ZM508
338Q508 385 502 427T479 500T433 550T359 569Q308 569 274 553T218 505T189 427T180 321Q180 272 186 230T210 157T256 108T330 90Q382 90 416 105T471 152T499 230T508 338Z" />
<glyph unicode="R" glyph-name="R" horiz-adv-x="597" d="M70 0V659H328Q440 659 501 614T562 466Q562 399 534 355T457 288Q453 286 450 285T442 281L583 0H440L312 260H201V0H70ZM323 362Q342 362 361 367T394 384T417 416T426 466Q426 492 417 509T392 536T359
551T323 555H201V362H323Z" />
<glyph unicode="S" glyph-name="S" horiz-adv-x="551" d="M338 239Q299 258 256 273T170 307Q138 321 115 336T75 371T51 417T43 481Q43 569 107 619T294 669Q346 669 405 658T511 620L466 522Q434 541 389 553T295 565Q231 565 203 545T175 492Q175 459 196 442T238
416Q271 402 315 386T400 350Q424 338 446 325T484 293T509 246T519 179Q519 135 502 100T451 40T371 2T264 -11Q210 -11 150 2T32 43L81 142Q127 119 170 108T262 96Q331 96 360 118T389 172Q389 187 384 198T370 217T353 230T338 239Z" />
<glyph unicode="T" glyph-name="T" horiz-adv-x="531" d="M525 659V555H331V0H199V555H5V659H525Z" />
<glyph unicode="U" glyph-name="U" horiz-adv-x="647" d="M585 659V262Q585 119 515 54T315 -11Q187 -11 125 54T62 269V659H194V253Q194 177 221 134T314 91Q352 91 378 100T421 131T445 187T453 270V659H585Z" />
<glyph unicode="V" glyph-name="V" horiz-adv-x="598" d="M312 103L463 659H598L392 0H217L0 659H142L303 103H312Z" />
<glyph unicode="W" glyph-name="W" horiz-adv-x="925" d="M925 659L762 0H573L468 557H459L359 0H168L0 659H143L262 103H271L369 659H563L666 103H675L790 659H925Z" />
<glyph unicode="X" glyph-name="X" horiz-adv-x="613" d="M295 268L148 0H1L201 338L15 659H169L300 414H320L451 659H599L412 341L612 0H460L314 268H295Z" />
<glyph unicode="Y" glyph-name="Y" horiz-adv-x="603" d="M367 277V0H235V277Q208 320 178 369T117 469T56 568T0 659H152L298 395H307L452 659H603L367 277Z" />
<glyph unicode="Z" glyph-name="Z" horiz-adv-x="567" d="M539 576L188 103H538V0H27V82L378 557H51V659H539V576Z" />
<glyph unicode="[" glyph-name="bracketleft" horiz-adv-x="351" d="M311 -199H39V685H311V582H169V-97H311V-199Z" />
<glyph unicode="\" glyph-name="backslash" horiz-adv-x="387" d="M387 -32H263L0 691H123L387 -32Z" />
<glyph unicode="]" glyph-name="bracketright" horiz-adv-x="351" d="M40 -97H182V582H40V685H312V-199H40V-97Z" />
<glyph unicode="^" glyph-name="asciicircum" horiz-adv-x="464" d="M327 659L440 309H329L237 571H229L142 309H25L139 659H327Z" />
<glyph unicode="_" glyph-name="underscore" horiz-adv-x="427" d="M34 -43H393V-131H34V-43Z" />
<glyph unicode="`" glyph-name="grave" horiz-adv-x="542" d="M272 687L383 529H264L128 687H272Z" />
<glyph unicode="a" glyph-name="a" horiz-adv-x="483" d="M473 0Q456 -4 425 -4Q349 -4 320 42Q295 18 257 4T184 -11Q134 -11 103 1T55 33T33 80T27 134Q27 179 41 208T83 253T148 276T233 283Q248 283 266 283T299 281V302Q299 339 279 358T210 378Q171 378
136 369T71 343L45 422Q82 442 135 455T243 469Q297 469 332 460T390 428T421 368T430 276V135Q430 107 441 97T473 87V0ZM234 198Q192 198 177 183T161 139Q161 109 172 93T216 77Q233 77 257 84T299 108V195Q282 197 266 197T234 198Z" />
<glyph unicode="b" glyph-name="b" horiz-adv-x="519" d="M266 -11Q233 -11 205 -2Q192 2 180 7T157 21L148 0H52V678L182 695V442Q189 446 196 449T210 455Q252 469 296 469Q394 469 440 408T487 243Q487 187 475 141T437 61T369 8T266 -11ZM198 87Q224 79 243
79Q266 79 286 86T321 112T344 159T353 233Q353 378 252 378Q221 378 196 363Q192 361 189 359T182 352V94L198 87Z" />
<glyph unicode="c" glyph-name="c" horiz-adv-x="464" d="M433 31Q408 14 364 2T263 -11Q200 -11 157 4T86 48T47 121T34 222Q34 348 96 408T282 469Q334 469 378 452T445 407L373 338Q354 361 332 370T281 379Q221 379 193 343T165 222Q165 154 189 117T276 79Q317
79 347 88T409 114L433 31Z" />
<glyph unicode="d" glyph-name="d" horiz-adv-x="528" d="M225 -11Q126 -11 80 50T34 216Q34 271 45 317T83 397T152 450T255 469Q286 469 315 460Q321 458 327 457T338 453V678L468 695V123L477 0H366L357 27Q333 11 310 3Q270 -11 225 -11ZM323 372Q301 379
278 379Q255 379 235 372T200 346T177 299T168 225Q168 80 269 80Q299 80 325 95Q328 97 331 100T338 105V364Q334 366 331 368T323 372Z" />
<glyph unicode="e" glyph-name="e" horiz-adv-x="497" d="M263 -11Q200 -11 156 4T85 50T46 126T34 232Q34 469 261 469Q324 469 363 452T425 405T456 334T464 245V198H167Q167 151 185 121Q210 81 284 81Q311 81 332 84T370 93T402 106T432 119L456 38Q443 29
422 21T374 5T320 -6T263 -11ZM329 283Q329 331 313 358T259 385Q215 385 194 364T169 302Q168 298 168 293T168 283H329Z" />
<glyph unicode="f" glyph-name="f" horiz-adv-x="356" d="M364 458V363H213V0H83V363H16V458H82V511Q82 563 96 598T137 655T200 686T279 695Q310 695 339 691T392 677L365 586Q332 600 298 600Q250 600 231 580T212 518V458H364Z" />
<glyph unicode="g" glyph-name="g" horiz-adv-x="519" d="M467 458V-11Q467 -71 449 -112T400 -180T325 -217T230 -229Q181 -229 141 -221T71 -201L105 -114Q123 -120 153 -126T223 -133Q275 -133 306 -111T337 -34V5Q315 -2 290 -6T237 -11Q130 -11 82 48T34
212Q34 269 45 316T82 397T151 450T260 469Q291 469 316 462T362 445L366 458H467ZM337 372Q312 379 284 379Q221 379 194 342T167 220Q167 157 192 118T279 78Q292 78 306 79T337 86V372Z" />
<glyph unicode="h" glyph-name="h" horiz-adv-x="515" d="M337 0V281Q337 298 336 313T328 341T310 360T275 367Q246 367 220 359Q209 354 200 349T182 339V0H52V678L182 695V433Q190 438 199 442T219 450Q244 459 269 463T317 468Q362 468 391 457T437 425T460
375T467 309V0H337Z" />
<glyph unicode="i" glyph-name="i" horiz-adv-x="236" d="M52 659H184V555H52V659ZM53 458H183V0H53V458Z" />
<glyph unicode="j" glyph-name="j" horiz-adv-x="236" d="M-18 -135H-8Q30 -135 41 -117T53 -51V458H183V-35Q183 -91 172 -128T138 -187T78 -219T-11 -229H-18V-135ZM183 557H52V659H183V557Z" />
<glyph unicode="k" glyph-name="k" horiz-adv-x="482" d="M52 0V678L181 695V296H214L351 458H494L314 249L500 0H356L211 199H181V0H52Z" />
<glyph unicode="l" glyph-name="l" horiz-adv-x="245" d="M234 -3Q231 -4 223 -4Q220 -5 211 -5H200Q116 -5 84 34T52 146V678L181 695V149Q181 129 183 117T192 98T208 89T234 87V-3Z" />
<glyph unicode="m" glyph-name="m" horiz-adv-x="757" d="M165 458L167 427Q185 441 210 451Q255 469 301 469Q345 469 374 457Q401 446 415 429Q426 436 437 441T460 451Q485 460 511 464T560 469Q604 469 633 458T678 426T701 376T708 309V0H580V281Q580 298
579 314T573 342T555 361T522 368Q492 368 468 360L443 348Q444 338 444 329T445 309V0H316V281Q316 298 315 314T309 342T292 361T259 368Q229 368 205 360L182 348V0H53V335L44 458H165Z" />
<glyph unicode="n" glyph-name="n" horiz-adv-x="516" d="M165 458L168 426Q179 434 191 440T218 451Q270 469 317 469Q362 469 391 458T437 426T460 376T467 309V0H337V281Q337 298 336 314T328 342T310 361T275 368Q246 368 220 360Q209 356 200 351T183 341V0H53V335L44
458H165Z" />
<glyph unicode="o" glyph-name="o" horiz-adv-x="529" d="M253 -11Q189 -11 147 6T80 54T45 130T34 231Q34 351 91 410T274 469Q337 469 379 453T447 405T484 328T495 226Q495 106 437 48T253 -11ZM253 77Q317 77 340 117T363 235Q363 265 359 291T346 338T319
370T274 382Q211 382 189 342T166 223Q166 193 169 167T183 120T209 89T253 77Z" />
<glyph unicode="p" glyph-name="p" horiz-adv-x="520" d="M155 458L164 431Q187 446 210 455Q252 469 296 469Q394 469 440 408T487 243Q487 187 475 141T437 61T369 8T266 -11Q233 -11 205 -2Q200 0 194 1T183 5V-211L53 -229V335L44 458H155ZM198 87Q224 79
243 79Q266 79 286 86T321 112T344 159T353 233Q353 378 252 378Q221 378 196 363L183 353V93Q190 88 198 87Z" />
<glyph unicode="q" glyph-name="q" horiz-adv-x="519" d="M255 469Q286 469 315 460Q328 457 339 452T362 440L369 458H467V-211L337 -229V14Q330 11 324 8T310 3Q270 -11 225 -11Q126 -11 80 50T34 216Q34 271 45 317T83 397T152 450T255 469ZM323 372Q301 379
278 379Q255 379 235 372T200 346T177 299T168 225Q168 80 269 80Q299 80 325 95Q329 99 337 104V365L323 372Z" />
<glyph unicode="r" glyph-name="r" horiz-adv-x="377" d="M160 458L167 409Q183 430 205 443Q249 469 298 469Q324 469 343 464T376 454L346 352Q321 366 287 366Q250 366 217 348Q200 339 184 322V0H54V328L40 458H160Z" />
<glyph unicode="s" glyph-name="s" horiz-adv-x="446" d="M219 294Q225 291 236 288T259 280T283 273T303 268Q326 261 347 251T383 226T408 189T417 136Q417 63 364 26T217 -11Q155 -11 111 -1T29 24L68 115Q96 100 133 91T216 82Q252 82 272 91T292 123Q292
153 231 172L148 196Q124 204 104 214T68 240T44 275T35 326Q35 398 88 433T234 469Q292 469 335 460T416 435L378 344Q349 360 313 369T234 378Q197 378 177 369T157 340Q157 311 219 294Z" />
<glyph unicode="t" glyph-name="t" horiz-adv-x="405" d="M219 363V175Q219 158 220 143T228 115T246 96T279 89Q307 89 330 95T374 112L394 26Q324 -11 237 -11Q192 -11 164 0T119 32T96 82T90 148V363H12V447L89 456V544L219 567V458H376V363H219Z" />
<glyph unicode="u" glyph-name="u" horiz-adv-x="511" d="M458 123L467 0H347L342 31Q331 24 319 19T292 8Q244 -11 195 -11Q151 -11 123 0T79 33T56 83T49 149V458H179V177Q179 159 180 143T187 115T205 96T238 89Q268 89 292 97Q302 101 311 106T328 116V458H458V123Z" />
<glyph unicode="v" glyph-name="v" horiz-adv-x="480" d="M246 88L348 458H480L323 0H153L0 458H139L236 88H246Z" />
<glyph unicode="w" glyph-name="w" horiz-adv-x="723" d="M452 458L507 88H516L588 458H717L598 0H420L366 370H357L300 0H119L5 458H141L212 88H221L276 458H452Z" />
<glyph unicode="x" glyph-name="x" horiz-adv-x="479" d="M227 179L136 0H0L135 235L2 458H144L231 288H247L334 458H472L339 237L479 0H336L244 179H227Z" />
<glyph unicode="y" glyph-name="y" horiz-adv-x="471" d="M0 458H144L238 148H248L339 458H471L290 -37Q274 -80 257 -115T214 -176T154 -215T69 -229Q53 -229 35 -228T2 -221L18 -134Q34 -138 56 -138Q90 -138 108 -128T135 -104Q147 -89 159 -59T182 0L0 458Z" />
<glyph unicode="z" glyph-name="z" horiz-adv-x="452" d="M430 383L175 95H432V0H22V75L275 363H34V458H430V383Z" />
<glyph unicode="{" glyph-name="braceleft" horiz-adv-x="366" d="M266 -185Q230 -185 198 -182T142 -164T104 -120T90 -40V121Q90 164 69 185T16 211V317Q48 322 69 342T90 407V577Q90 623 103 651T141 694T197 715T266 721H341V619H327Q270 619 246 601T221
532V383Q221 329 201 304T138 271V261Q158 255 173 247T199 226T215 194T221 148V-2Q221 -50 246 -66T327 -83H341V-185H266Z" />
<glyph unicode="|" glyph-name="bar" horiz-adv-x="230" d="M165 -187H65V719H165V-187Z" />
<glyph unicode="}" glyph-name="braceright" horiz-adv-x="366" d="M25 -185V-83H39Q94 -83 119 -67T145 -2V148Q145 175 150 194T165 226T192 247T229 261V271Q184 278 165 303T145 383V532Q145 582 121 600T39 619H25V721H100Q137 721 169 716T225 695T262 651T276
577V407Q276 362 297 342T350 317V211Q318 207 297 186T276 121V-40Q276 -91 262 -120T224 -163T168 -181T100 -185H25Z" />
<glyph unicode="~" glyph-name="asciitilde" horiz-adv-x="479" d="M23 274Q48 299 85 315T165 331Q188 331 207 326T244 315T279 304T315 299Q343 299 367 308T414 333L455 257Q430 232 393 215T312 198Q287 198 268 203T233 215T200 226T162 232Q134 232 109
222T63 197L23 274Z" />
<glyph unicode="&#xa0;" glyph-name="nbspace" horiz-adv-x="300" />
<glyph unicode="&#xa1;" glyph-name="exclamdown" horiz-adv-x="276" d="M204 336H73V458H204V336ZM86 270H190L211 -200H65L86 270Z" />
<glyph unicode="&#xa2;" glyph-name="cent" horiz-adv-x="465" d="M300 -92H227V-10Q116 -4 69 55T22 222Q22 336 74 395T227 466V550H300V468Q345 463 381 447T438 407L365 338Q337 369 300 376V80Q328 83 352 91T402 113L424 32Q381 3 300 -9V-92ZM153 222Q153
165 169 130T227 83V373Q190 361 172 325T153 222Z" />
<glyph unicode="&#xa3;" glyph-name="sterling" horiz-adv-x="500" d="M339 669Q409 669 465 648L429 557Q388 573 346 573Q288 573 264 548T240 470V363H427V268H240V265Q240 204 226 168T175 104H457V0H37V89Q57 104 70 120T92 158T104 205T108 265V268H39V363H108V464Q108
522 125 561T173 624T246 658T339 669Z" />
<glyph unicode="&#xa4;" glyph-name="currency" horiz-adv-x="495" d="M17 114L88 184L81 198Q69 229 69 266Q69 305 82 335L88 347L17 418L94 497L168 422L178 427Q210 440 250 440Q288 440 321 426Q322 425 323 425T326 424L399 497L478 418L405 347L411 333Q424
301 424 266T409 198Q408 194 404 186L478 114L399 37L325 110Q323 109 321 108T315 106Q285 93 244 93Q204 93 172 106Q171 107 170 107T167 108L94 37L17 114ZM244 194Q275 194 294 214T314 268Q314 299 296 318T250 338Q219 338 200 319T180 265Q180 234 198
214T244 194Z" />
<glyph unicode="&#xa5;" glyph-name="yen" horiz-adv-x="603" d="M544 173H367V0H235V173H60V246H235V277L217 304H60V377H172L116 469Q86 520 56 568T0 659H152L298 395H307L452 659H603L429 377H544V304H383L367 277V246H544V173Z" />
<glyph unicode="&#xa6;" glyph-name="brokenbar" horiz-adv-x="230" d="M165 364H65V719H165V364ZM165 -187H65V168H165V-187Z" />
<glyph unicode="&#xa7;" glyph-name="section" horiz-adv-x="528" d="M297 4Q268 16 227 30T148 63Q126 74 107 87T73 118T50 162T41 224Q41 305 103 347L123 359Q97 375 81 395Q53 429 53 497Q53 578 111 623T282 669Q305 669 331 667T383 659T434 646T480 626L439
535Q411 551 370 562T283 573Q223 573 198 555T173 507Q173 477 192 462T231 438Q261 425 301 410T379 378Q401 367 421 354T455 322T478 278T487 217Q487 134 426 94Q421 90 415 87T404 81Q430 64 446 44Q476 11 476 -56Q476 -137 417 -183T247 -229Q199 -229
145 -219T48 -185L89 -94Q117 -110 158 -121T246 -132Q304 -132 329 -114T354 -66Q354 -36 335 -20T297 4ZM322 275Q304 283 285 290T246 304L222 313Q197 306 185 294Q159 270 159 240Q159 210 173 192T206 166Q224 158 243 150T282 135L304 128Q327 134 341 146Q368
171 368 200Q368 231 354 248T322 275Z" />
<glyph unicode="&#xa8;" glyph-name="dieresis" horiz-adv-x="542" d="M233 555H106V659H233V555ZM434 555H308V659H434V555Z" />
<glyph unicode="&#xa9;" glyph-name="copyright" horiz-adv-x="795" d="M750 329Q750 248 724 185T650 79T539 12T398 -11Q321 -11 257 12T145 78T72 185T45 329Q45 410 71 473T145 579T256 646T398 669Q474 669 538 646T650 580T723 473T750 329ZM665 329Q665
388 647 437T594 521T510 575T398 595Q335 595 285 576T201 521T148 437T130 329Q130 270 148 221T200 137T285 83T398 64Q460 64 509 83T593 137T646 221T665 329ZM530 177Q510 162 476 153T395 143Q300 143 257 191T214 325Q214 422 264 470T411 518Q453 518
487 505T539 469L482 414Q468 432 450 439T409 446Q363 446 340 419T317 325Q317 276 339 245T406 214Q439 214 462 221T511 242L530 177Z" />
<glyph unicode="&#xaa;" glyph-name="ordfeminine" horiz-adv-x="370" d="M344 367Q337 365 329 365T311 365Q262 365 241 396Q224 380 199 370T150 360Q116 360 96 368T64 389T49 420T45 457Q45 488 54 507T82 538T125 553T183 558Q193 558 205 558T227 555V570Q227
595 213 608T167 621Q141 621 118 615T74 597L57 651Q82 664 117 673T190 682Q226 682 249 676T287 654T308 614T314 552V458Q314 439 322 433T344 426V367ZM184 500Q155 500 145 490T135 460Q135 440 142 430T171 420Q183 420 199 424T227 439V498Q216 500 205
500T184 500Z" />
<glyph unicode="&#xab;" glyph-name="guillemotleft" horiz-adv-x="536" d="M405 32L234 229L406 426L491 359L378 230L492 104L405 32ZM266 359L159 230L265 104L180 32L16 229L181 426L266 359Z" />
<glyph unicode="&#xac;" glyph-name="logicalnot" horiz-adv-x="617" d="M60 339H527V81H416V242H60V339Z" />
<glyph unicode="&#xae;" glyph-name="registered" horiz-adv-x="518" d="M489 487Q489 434 472 393T424 323T351 279T259 264Q209 264 167 279T95 322T47 392T29 487Q29 540 46 581T94 652T167 696T259 711Q309 711 351 696T424 652T472 582T489 487ZM433 487Q433
565 387 613T259 662Q218 662 186 649T131 613T96 558T84 487Q84 409 131 361T259 313Q341 313 387 361T433 487ZM298 369L252 458H233V369H164V609H268Q313 609 337 592T361 535Q361 510 350 494T321 469L373 369H298ZM265 507Q275 507 282 513T289 535Q289 549
282 553T265 558H233V507H265Z" />
<glyph unicode="&#xaf;" glyph-name="overscore" horiz-adv-x="542" d="M429 558H108V655H429V558Z" />
<glyph unicode="&#xb0;" glyph-name="degree" horiz-adv-x="352" d="M168 361Q127 361 97 372T48 405T20 454T11 516Q11 586 56 627T183 669Q224 669 254 657T303 624T332 575T341 513Q341 444 295 403T168 361ZM169 451Q208 451 225 468T243 517Q243 542 230
561T183 580Q144 580 127 562T109 513Q109 489 122 470T169 451Z" />
<glyph unicode="&#xb1;" glyph-name="plusminus" horiz-adv-x="563" d="M336 288V136H226V288H64V391H226V545H336V391H499V288H336ZM502 0H61V102H502V0Z" />
<glyph unicode="&#xb2;" glyph-name="twosuperior" horiz-adv-x="315" d="M25 320V365L152 487Q170 506 178 520T186 550Q186 569 175 582T140 595Q100 595 47 567L17 626Q52 647 88 655T153 664Q181 664 205 659T246 643T274 612T284 563Q284 530 261 501T210
447L147 389H290V320H25Z" />
<glyph unicode="&#xb3;" glyph-name="threesuperior" horiz-adv-x="315" d="M58 413Q96 386 144 386Q168 386 183 395T199 426Q199 444 183 454T139 465Q125 465 117 465T93 461V524H126Q135 524 146 526T168 533T184 545T191 563Q191 580 176 588T143 596Q117
596 97 589T58 569L27 627Q47 642 80 653T154 665Q211 665 246 645T281 574Q281 549 265 532T225 508Q255 499 274 478T294 422Q294 368 252 341T146 313Q106 313 74 325T17 359L58 413Z" />
<glyph unicode="&#xb4;" glyph-name="acute" horiz-adv-x="542" d="M412 687L275 529H156L268 687H412Z" />
<glyph unicode="&#xb5;" glyph-name="mu" horiz-adv-x="516" d="M179 -222H49V458H179V177Q179 159 180 144T188 116T206 97T239 90Q268 90 290 97T328 115Q329 116 330 116T333 117V458H463V123L471 0H351L347 29Q294 -10 224 -10Q194 -10 170 -2L179 -222Z" />
<glyph unicode="&#xb6;" glyph-name="paragraph" horiz-adv-x="614" d="M231 222Q171 222 133 238T73 283T43 350T34 434Q34 488 44 530T80 600T147 644T253 659H544V-211L455 -223V557H376V-211L287 -223V222H231Z" />
<glyph unicode="&#xb7;" glyph-name="middot" horiz-adv-x="256" d="M193 204H62V326H193V204Z" />
<glyph unicode="&#xb8;" glyph-name="cedilla" horiz-adv-x="542" d="M171 -140Q188 -145 202 -148T234 -151Q259 -151 273 -142T287 -114Q287 -100 283 -92T268 -79T242 -70T201 -62L224 -1Q315 -6 360 -29T406 -113Q406 -173 369 -200T250 -227Q220 -227 191
-222T143 -210L171 -140Z" />
<glyph unicode="&#xb9;" glyph-name="onesuperior" horiz-adv-x="315" d="M133 320V575L65 544L37 601L160 660H221V320H133Z" />
<glyph unicode="&#xba;" glyph-name="ordmasculine" horiz-adv-x="392" d="M194 360Q151 360 123 371T78 404T54 455T47 522Q47 603 85 642T208 682Q250 682 278 671T324 638T349 587T356 519Q356 438 318 399T194 360ZM194 423Q237 423 252 447T268 525Q268 565
256 592T208 620Q166 620 151 595T135 517Q135 476 147 450T194 423Z" />
<glyph unicode="&#xbb;" glyph-name="guillemotright" horiz-adv-x="536" d="M131 426L302 229L130 32L45 99L158 228L44 354L131 426ZM270 99L377 228L271 354L356 426L520 229L355 32L270 99Z" />
<glyph unicode="&#xbc;" glyph-name="onequarter" horiz-adv-x="740" d="M56 -32L533 691H646L168 -32H56ZM143 320V576L75 545L47 602L170 661H231V320H143ZM638 342V112H675V44H638V0H551V44H384V98L526 342H638ZM551 112V235L479 112H551Z" />
<glyph unicode="&#xbd;" glyph-name="onehalf" horiz-adv-x="693" d="M49 -32L526 691H639L161 -32H49ZM143 320V576L75 545L47 602L170 661H231V320H143ZM429 0V45L556 168Q574 186 582 200T590 231Q590 249 579 262T544 275Q504 275 451 247L421 307Q456 327
492 335T557 344Q585 344 609 339T650 323T678 292T688 244Q688 210 665 182T614 128L551 69H694V0H429Z" />
<glyph unicode="&#xbe;" glyph-name="threequarters" horiz-adv-x="751" d="M167 311Q116 311 86 326T42 354L76 400Q94 388 117 381T166 373Q192 373 206 385T220 419Q220 445 205 455T157 465Q152 465 141 464T118 459V528H149Q176 528 191 537T207 570Q207
604 168 604Q148 604 127 598T83 578L55 624Q69 636 97 650T170 665Q231 665 263 640T295 570Q295 541 278 524T233 501Q265 496 286 477T308 419Q308 367 270 339T167 311ZM96 -32L573 691H686L208 -32H96ZM657 342V112H694V44H657V0H570V44H403V98L545 342H657ZM570
112V235L498 112H570Z" />
<glyph unicode="&#xbf;" glyph-name="questiondown" horiz-adv-x="448" d="M191 458H322V336H191V458ZM317 270V208Q317 174 306 148T279 101T244 64T209 31T182 -1T171 -37Q171 -68 192 -85T262 -103Q296 -103 331 -92T388 -66L423 -163Q390 -182 339 -196T234
-211Q191 -211 154 -203T90 -177T48 -130T32 -57Q32 -17 44 11T75 61T115 100T155 137T186 178T199 233V270H317Z" />
<glyph unicode="&#xc0;" glyph-name="Agrave" horiz-adv-x="652" d="M502 0L446 171H200L145 0H5L242 659H417L647 0H502ZM321 557L235 276H412L329 557H321ZM303 888L414 730H295L159 888H303Z" />
<glyph unicode="&#xc1;" glyph-name="Aacute" horiz-adv-x="652" d="M502 0L446 171H200L145 0H5L242 659H417L647 0H502ZM321 557L235 276H412L329 557H321ZM504 888L367 730H248L360 888H504Z" />
<glyph unicode="&#xc2;" glyph-name="Acircumflex" horiz-adv-x="652" d="M502 0L446 171H200L145 0H5L242 659H417L647 0H502ZM321 557L235 276H412L329 557H321ZM414 887L515 729H402L337 822H326L257 729H148L253 887H414Z" />
<glyph unicode="&#xc3;" glyph-name="Atilde" horiz-adv-x="652" d="M502 0L446 171H200L145 0H5L242 659H417L647 0H502ZM321 557L235 276H412L329 557H321ZM138 815Q160 839 193 855T264 872Q285 872 302 867T334 856T364 844T396 839Q421 839 442 849T484 873L519
798Q498 774 465 758T394 742Q373 742 356 747T324 758T294 769T262 774Q237 774 215 765T174 741L138 815Z" />
<glyph unicode="&#xc4;" glyph-name="Adieresis" horiz-adv-x="652" d="M502 0L446 171H200L145 0H5L242 659H417L647 0H502ZM321 557L235 276H412L329 557H321ZM288 755H161V859H288V755ZM489 755H363V859H489V755Z" />
<glyph unicode="&#xc5;" glyph-name="Aring" horiz-adv-x="652" d="M502 0L446 171H200L145 0H5L242 659H417L647 0H502ZM321 557L235 276H412L329 557H321ZM322 706Q257 706 231 737T205 817Q205 869 237 898T332 927Q365 927 387 919T423 895T443 860T449 816Q449
764 417 735T322 706ZM325 774Q370 774 370 817Q370 858 329 858Q283 858 283 817Q283 774 325 774Z" />
<glyph unicode="&#xc6;" glyph-name="AE" horiz-adv-x="936" d="M884 104V0H476L467 171H224L125 0H-11L380 659H873V555H576L586 390H863V288H591L601 104H884ZM440 555L284 276H463L448 555H440Z" />
<glyph unicode="&#xc7;" glyph-name="Ccedilla" horiz-adv-x="610" d="M228 -140Q245 -145 259 -148T291 -151Q316 -151 330 -142T344 -114Q344 -100 340 -92T325 -79T299 -70T258 -62L279 -6Q217 3 173 29T100 97T58 198T45 329Q45 500 124 584T353 669Q383 669
415 664T477 647T534 618T582 576L504 500Q477 532 441 548T357 565Q182 565 182 320Q182 101 356 101Q410 101 456 113T544 144L574 42Q534 19 478 5T364 -11Q413 -22 438 -45T463 -113Q463 -173 426 -200T307 -227Q277 -227 248 -222T200 -210L228 -140Z" />
<glyph unicode="&#xc8;" glyph-name="Egrave" horiz-adv-x="557" d="M505 104V0H70V659H494V555H203V390H484V288H203V104H505ZM250 888L361 730H242L106 888H250Z" />
<glyph unicode="&#xc9;" glyph-name="Eacute" horiz-adv-x="557" d="M505 104V0H70V659H494V555H203V390H484V288H203V104H505ZM462 888L325 730H206L318 888H462Z" />
<glyph unicode="&#xca;" glyph-name="Ecircumflex" horiz-adv-x="557" d="M505 104V0H70V659H494V555H203V390H484V288H203V104H505ZM370 887L471 729H358L293 822H282L213 729H104L209 887H370Z" />
<glyph unicode="&#xcb;" glyph-name="Edieresis" horiz-adv-x="557" d="M505 104V0H70V659H494V555H203V390H484V288H203V104H505ZM247 740H120V844H247V740ZM448 740H322V844H448V740Z" />
<glyph unicode="&#xcc;" glyph-name="Igrave" horiz-adv-x="273" d="M70 659H203V0H70V659ZM105 888L216 730H97L-39 888H105Z" />
<glyph unicode="&#xcd;" glyph-name="Iacute" horiz-adv-x="273" d="M70 659H203V0H70V659ZM323 888L186 730H67L179 888H323Z" />
<glyph unicode="&#xce;" glyph-name="Icircumflex" horiz-adv-x="273" d="M70 659H203V0H70V659ZM221 887L322 729H209L144 822H133L64 729H-45L60 887H221Z" />
<glyph unicode="&#xcf;" glyph-name="Idieresis" horiz-adv-x="273" d="M70 659H203V0H70V659ZM101 740H-26V844H101V740ZM302 740H176V844H302V740Z" />
<glyph unicode="&#xd0;" glyph-name="Eth" horiz-adv-x="685" d="M297 659Q379 659 442 641T549 584T616 481T639 327Q639 235 611 172T534 71T417 17T271 0H83V278H16V381H83V659H297ZM266 103Q321 103 364 114T438 152T484 224T500 338Q500 450 446 502T294
555H216V381H349V278H216V103H266Z" />
<glyph unicode="&#xd1;" glyph-name="Ntilde" horiz-adv-x="729" d="M659 659V0H430L211 557H203V0H70V659H299L518 102H526V659H659ZM185 819Q207 843 240 859T311 876Q332 876 349 871T381 860T411 848T443 843Q468 843 489 853T531 877L566 802Q545 778 512
762T441 746Q420 746 403 751T371 762T341 773T309 778Q284 778 262 769T221 745L185 819Z" />
<glyph unicode="&#xd2;" glyph-name="Ograve" horiz-adv-x="691" d="M45 333Q45 503 121 586T356 669Q436 669 491 646T581 578T631 470T646 326Q646 157 570 73T334 -11Q253 -11 198 13T109 82T60 190T45 333ZM508 339Q508 385 501 427T477 500T431 550T357 569Q307
569 274 553T219 505T189 427T180 322Q180 275 187 233T212 160T258 110T331 92Q382 92 416 108T471 155T499 233T508 339ZM325 888L436 730H317L181 888H325Z" />
<glyph unicode="&#xd3;" glyph-name="Oacute" horiz-adv-x="691" d="M45 333Q45 503 121 586T356 669Q436 669 491 646T581 578T631 470T646 326Q646 157 570 73T334 -11Q253 -11 198 13T109 82T60 190T45 333ZM508 339Q508 385 501 427T477 500T431 550T357 569Q307
569 274 553T219 505T189 427T180 322Q180 275 187 233T212 160T258 110T331 92Q382 92 416 108T471 155T499 233T508 339ZM504 888L367 730H248L360 888H504Z" />
<glyph unicode="&#xd4;" glyph-name="Ocircumflex" horiz-adv-x="691" d="M45 333Q45 503 121 586T356 669Q436 669 491 646T581 578T631 470T646 326Q646 157 570 73T334 -11Q253 -11 198 13T109 82T60 190T45 333ZM508 339Q508 385 501 427T477 500T431 550T357
569Q307 569 274 553T219 505T189 427T180 322Q180 275 187 233T212 160T258 110T331 92Q382 92 416 108T471 155T499 233T508 339ZM430 887L531 729H418L353 822H342L273 729H164L269 887H430Z" />
<glyph unicode="&#xd5;" glyph-name="Otilde" horiz-adv-x="691" d="M45 333Q45 503 121 586T356 669Q436 669 491 646T581 578T631 470T646 326Q646 157 570 73T334 -11Q253 -11 198 13T109 82T60 190T45 333ZM508 339Q508 385 501 427T477 500T431 550T357 569Q307
569 274 553T219 505T189 427T180 322Q180 275 187 233T212 160T258 110T331 92Q382 92 416 108T471 155T499 233T508 339ZM160 815Q182 839 215 855T286 872Q307 872 324 867T356 856T386 844T418 839Q443 839 464 849T506 873L541 798Q520 774 487 758T416 742Q395
742 378 747T346 758T316 769T284 774Q259 774 237 765T196 741L160 815Z" />
<glyph unicode="&#xd6;" glyph-name="Odieresis" horiz-adv-x="691" d="M45 333Q45 503 121 586T356 669Q436 669 491 646T581 578T631 470T646 326Q646 157 570 73T334 -11Q253 -11 198 13T109 82T60 190T45 333ZM508 339Q508 385 501 427T477 500T431 550T357
569Q307 569 274 553T219 505T189 427T180 322Q180 275 187 233T212 160T258 110T331 92Q382 92 416 108T471 155T499 233T508 339ZM310 740H183V844H310V740ZM511 740H385V844H511V740Z" />
<glyph unicode="&#xd7;" glyph-name="multiply" horiz-adv-x="563" d="M428 38L281 184L134 38L53 119L199 265L53 413L134 494L281 347L428 494L509 413L362 265L509 119L428 38Z" />
<glyph unicode="&#xd8;" glyph-name="Oslash" horiz-adv-x="691" d="M45 331Q45 503 121 587T356 671Q436 671 492 647L508 638L570 721L649 669L581 577Q615 532 630 469T646 325Q646 156 570 71T334 -14Q252 -14 197 10Q182 16 172 23L112 -58L32 -6L102 88Q73
130 60 188Q45 252 45 331ZM513 338Q513 384 507 428Q505 448 498 466L238 113L252 103Q284 83 331 83Q382 83 417 100T473 150T504 230T513 338ZM437 556Q406 575 357 575Q258 575 216 508T174 321Q174 271 181 230Q182 223 183 217T186 203L443 550Q440 554 437
556Z" />
<glyph unicode="&#xd9;" glyph-name="Ugrave" horiz-adv-x="647" d="M585 659V262Q585 119 515 54T315 -11Q187 -11 125 54T62 269V659H194V253Q194 177 221 134T314 91Q352 91 378 100T421 131T445 187T453 270V659H585ZM293 888L404 730H285L149 888H293Z" />
<glyph unicode="&#xda;" glyph-name="Uacute" horiz-adv-x="647" d="M585 659V262Q585 119 515 54T315 -11Q187 -11 125 54T62 269V659H194V253Q194 177 221 134T314 91Q352 91 378 100T421 131T445 187T453 270V659H585ZM493 888L356 730H237L349 888H493Z" />
<glyph unicode="&#xdb;" glyph-name="Ucircumflex" horiz-adv-x="647" d="M585 659V262Q585 119 515 54T315 -11Q187 -11 125 54T62 269V659H194V253Q194 177 221 134T314 91Q352 91 378 100T421 131T445 187T453 270V659H585ZM404 887L505 729H392L327 822H316L247
729H138L243 887H404Z" />
<glyph unicode="&#xdc;" glyph-name="Udieresis" horiz-adv-x="647" d="M585 659V262Q585 119 515 54T315 -11Q187 -11 125 54T62 269V659H194V253Q194 177 221 134T314 91Q352 91 378 100T421 131T445 187T453 270V659H585ZM287 740H160V844H287V740ZM488 740H362V844H488V740Z"
/>
<glyph unicode="&#xdd;" glyph-name="Yacute" horiz-adv-x="603" d="M367 277V0H235V277Q208 320 178 369T117 469T56 568T0 659H152L298 395H307L452 659H603L367 277ZM482 888L345 730H226L338 888H482Z" />
<glyph unicode="&#xde;" glyph-name="Thorn" horiz-adv-x="575" d="M201 0H70V659H201V544H317Q429 544 490 493T551 339Q551 288 535 248T489 180T419 137T330 122H201V0ZM309 225Q328 225 347 231T381 250T405 285T414 339Q414 367 404 386T379 418T346 435T309
440H201V225H309Z" />
<glyph unicode="&#xdf;" glyph-name="germandbls" horiz-adv-x="572" d="M550 136Q550 64 502 28T366 -8Q315 -8 277 0T208 23L243 112Q268 99 298 90T363 81Q394 81 412 91T431 123Q431 140 420 152T380 175Q367 181 348 188T321 198Q303 205 286 215T256 240T234
275T225 322Q225 360 242 392T314 455Q343 471 360 487T377 530Q377 546 370 557T352 575T326 585T298 588Q265 588 243 577T206 546T186 500T180 445V0H51V431Q51 563 116 623T305 684Q343 684 380 675T446 646T492 597T510 529Q510 499 498 477T467 437T426 406T383
381Q365 369 357 361T348 337Q348 322 358 313T387 296Q401 290 422 282T459 268Q483 257 500 245T528 218T545 183T550 136Z" />
<glyph unicode="&#xe0;" glyph-name="agrave" horiz-adv-x="483" d="M473 0Q456 -4 425 -4Q349 -4 320 42Q295 18 257 4T184 -11Q134 -11 103 1T55 33T33 80T27 134Q27 179 41 208T83 253T148 276T233 283Q248 283 266 283T299 281V302Q299 339 279 358T210 378Q171
378 136 369T71 343L45 422Q82 442 135 455T243 469Q297 469 332 460T390 428T421 368T430 276V135Q430 107 441 97T473 87V0ZM234 198Q192 198 177 183T161 139Q161 109 172 93T216 77Q233 77 257 84T299 108V195Q282 197 266 197T234 198ZM237 687L348 529H229L93
687H237Z" />
<glyph unicode="&#xe1;" glyph-name="aacute" horiz-adv-x="483" d="M473 0Q456 -4 425 -4Q349 -4 320 42Q295 18 257 4T184 -11Q134 -11 103 1T55 33T33 80T27 134Q27 179 41 208T83 253T148 276T233 283Q248 283 266 283T299 281V302Q299 339 279 358T210 378Q171
378 136 369T71 343L45 422Q82 442 135 455T243 469Q297 469 332 460T390 428T421 368T430 276V135Q430 107 441 97T473 87V0ZM234 198Q192 198 177 183T161 139Q161 109 172 93T216 77Q233 77 257 84T299 108V195Q282 197 266 197T234 198ZM408 687L271 529H152L264
687H408Z" />
<glyph unicode="&#xe2;" glyph-name="acircumflex" horiz-adv-x="483" d="M473 0Q456 -4 425 -4Q349 -4 320 42Q295 18 257 4T184 -11Q134 -11 103 1T55 33T33 80T27 134Q27 179 41 208T83 253T148 276T233 283Q248 283 266 283T299 281V302Q299 339 279 358T210
378Q171 378 136 369T71 343L45 422Q82 442 135 455T243 469Q297 469 332 460T390 428T421 368T430 276V135Q430 107 441 97T473 87V0ZM234 198Q192 198 177 183T161 139Q161 109 172 93T216 77Q233 77 257 84T299 108V195Q282 197 266 197T234 198ZM328 687L429
529H316L251 622H240L171 529H62L167 687H328Z" />
<glyph unicode="&#xe3;" glyph-name="atilde" horiz-adv-x="483" d="M473 0Q456 -4 425 -4Q349 -4 320 42Q295 18 257 4T184 -11Q134 -11 103 1T55 33T33 80T27 134Q27 179 41 208T83 253T148 276T233 283Q248 283 266 283T299 281V302Q299 339 279 358T210 378Q171
378 136 369T71 343L45 422Q82 442 135 455T243 469Q297 469 332 460T390 428T421 368T430 276V135Q430 107 441 97T473 87V0ZM234 198Q192 198 177 183T161 139Q161 109 172 93T216 77Q233 77 257 84T299 108V195Q282 197 266 197T234 198ZM54 615Q76 639 109
655T180 672Q201 672 218 667T250 656T280 644T312 639Q337 639 358 649T400 673L435 598Q414 574 381 558T310 542Q289 542 272 547T240 558T210 569T178 574Q153 574 131 565T90 541L54 615Z" />
<glyph unicode="&#xe4;" glyph-name="adieresis" horiz-adv-x="483" d="M473 0Q456 -4 425 -4Q349 -4 320 42Q295 18 257 4T184 -11Q134 -11 103 1T55 33T33 80T27 134Q27 179 41 208T83 253T148 276T233 283Q248 283 266 283T299 281V302Q299 339 279 358T210
378Q171 378 136 369T71 343L45 422Q82 442 135 455T243 469Q297 469 332 460T390 428T421 368T430 276V135Q430 107 441 97T473 87V0ZM234 198Q192 198 177 183T161 139Q161 109 172 93T216 77Q233 77 257 84T299 108V195Q282 197 266 197T234 198ZM210 555H83V659H210V555ZM411
555H285V659H411V555Z" />
<glyph unicode="&#xe5;" glyph-name="aring" horiz-adv-x="483" d="M473 0Q456 -4 425 -4Q349 -4 320 42Q295 18 257 4T184 -11Q134 -11 103 1T55 33T33 80T27 134Q27 179 41 208T83 253T148 276T233 283Q248 283 266 283T299 281V302Q299 339 279 358T210 378Q171
378 136 369T71 343L45 422Q82 442 135 455T243 469Q297 469 332 460T390 428T421 368T430 276V135Q430 107 441 97T473 87V0ZM234 198Q192 198 177 183T161 139Q161 109 172 93T216 77Q233 77 257 84T299 108V195Q282 197 266 197T234 198ZM247 496Q182 496 156
527T130 607Q130 659 162 688T257 717Q290 717 312 709T348 685T368 650T374 606Q374 554 342 525T247 496ZM250 564Q295 564 295 607Q295 648 254 648Q208 648 208 607Q208 564 250 564Z" />
<glyph unicode="&#xe6;" glyph-name="ae" horiz-adv-x="763" d="M724 38Q710 29 689 21T641 5T585 -6T529 -11Q415 -11 363 34Q337 18 297 4T196 -11Q149 -11 117 1T64 34T36 81T27 134Q27 177 42 205T84 250T150 272T236 279H303V300Q303 337 281 357T211 378Q171
378 136 369T71 343L44 422Q82 442 136 455T244 469Q298 469 331 457T385 422Q435 469 530 469Q591 469 629 452T690 405T720 334T729 245V198H431Q432 141 458 111T549 81Q576 81 597 84T636 93T669 106T699 119L724 38ZM220 78Q248 78 273 86T318 107Q313 126
311 148T305 198H234Q192 198 176 183T160 139Q160 114 175 96T220 78ZM524 385Q472 385 453 358T432 278H597Q597 330 582 357T524 385Z" />
<glyph unicode="&#xe7;" glyph-name="ccedilla" horiz-adv-x="465" d="M147 -140Q164 -145 178 -148T210 -151Q235 -151 249 -142T263 -114Q263 -100 259 -92T244 -79T218 -70T177 -62L198 -6Q109 8 72 66T34 222Q34 348 96 408T282 469Q334 469 378 452T445 407L373
338Q354 361 332 370T281 379Q221 379 193 343T165 222Q165 154 189 117T276 79Q317 79 347 88T409 114L433 31Q410 15 372 4T282 -10Q332 -21 357 -44T382 -113Q382 -173 345 -200T226 -227Q196 -227 167 -222T119 -210L147 -140Z" />
<glyph unicode="&#xe8;" glyph-name="egrave" horiz-adv-x="497" d="M263 -11Q200 -11 156 4T85 50T46 126T34 232Q34 469 261 469Q324 469 363 452T425 405T456 334T464 245V198H167Q167 151 185 121Q210 81 284 81Q311 81 332 84T370 93T402 106T432 119L456
38Q443 29 422 21T374 5T320 -6T263 -11ZM329 283Q329 331 313 358T259 385Q215 385 194 364T169 302Q168 298 168 293T168 283H329ZM244 687L355 529H236L100 687H244Z" />
<glyph unicode="&#xe9;" glyph-name="eacute" horiz-adv-x="497" d="M263 -11Q200 -11 156 4T85 50T46 126T34 232Q34 469 261 469Q324 469 363 452T425 405T456 334T464 245V198H167Q167 151 185 121Q210 81 284 81Q311 81 332 84T370 93T402 106T432 119L456
38Q443 29 422 21T374 5T320 -6T263 -11ZM329 283Q329 331 313 358T259 385Q215 385 194 364T169 302Q168 298 168 293T168 283H329ZM427 687L290 529H171L283 687H427Z" />
<glyph unicode="&#xea;" glyph-name="ecircumflex" horiz-adv-x="497" d="M263 -11Q200 -11 156 4T85 50T46 126T34 232Q34 469 261 469Q324 469 363 452T425 405T456 334T464 245V198H167Q167 151 185 121Q210 81 284 81Q311 81 332 84T370 93T402 106T432 119L456
38Q443 29 422 21T374 5T320 -6T263 -11ZM329 283Q329 331 313 358T259 385Q215 385 194 364T169 302Q168 298 168 293T168 283H329ZM343 687L444 529H331L266 622H255L186 529H77L182 687H343Z" />
<glyph unicode="&#xeb;" glyph-name="edieresis" horiz-adv-x="497" d="M263 -11Q200 -11 156 4T85 50T46 126T34 232Q34 469 261 469Q324 469 363 452T425 405T456 334T464 245V198H167Q167 151 185 121Q210 81 284 81Q311 81 332 84T370 93T402 106T432 119L456
38Q443 29 422 21T374 5T320 -6T263 -11ZM329 283Q329 331 313 358T259 385Q215 385 194 364T169 302Q168 298 168 293T168 283H329ZM223 555H96V659H223V555ZM424 555H298V659H424V555Z" />
<glyph unicode="&#xec;" glyph-name="igrave" horiz-adv-x="236" d="M106 687L217 529H98L-38 687H106ZM183 0H53V458H183V0Z" />
<glyph unicode="&#xed;" glyph-name="iacute" horiz-adv-x="236" d="M275 687L138 529H19L131 687H275ZM183 0H53V458H183V0Z" />
<glyph unicode="&#xee;" glyph-name="icircumflex" horiz-adv-x="236" d="M201 692L291 534H184L125 627H114L50 534H-54L40 692H201ZM183 0H53V458H183V0Z" />
<glyph unicode="&#xef;" glyph-name="idieresis" horiz-adv-x="236" d="M88 555H-26V659H88V555ZM259 555H146V659H259V555ZM183 0H53V458H183V0Z" />
<glyph unicode="&#xf0;" glyph-name="eth" horiz-adv-x="530" d="M265 -13Q202 -13 158 4T87 52T47 129T34 231Q34 349 93 408T258 468Q305 468 335 453L342 450Q338 458 334 467T325 484Q302 520 263 548L95 470L64 533L184 588Q132 607 52 613L69 701Q160 691
238 665Q272 654 298 640L425 700L458 638L367 596L374 590Q431 541 463 463T496 269Q496 190 481 136T436 49T363 2T265 -13ZM339 359Q325 365 308 369T275 374Q214 374 190 338T166 223Q166 192 171 166T188 119T219 88T265 76Q297 76 317 89T348 125T364 180T368
251Q368 275 367 299T364 346L339 359Z" />
<glyph unicode="&#xf1;" glyph-name="ntilde" horiz-adv-x="516" d="M165 458L168 426Q179 434 191 440T218 451Q270 469 317 469Q362 469 391 458T437 426T460 376T467 309V0H337V281Q337 298 336 314T328 342T310 361T275 368Q246 368 220 360Q209 356 200 351T183
341V0H53V335L44 458H165ZM71 615Q93 639 126 655T197 672Q218 672 235 667T267 656T297 644T329 639Q354 639 375 649T417 673L452 598Q431 574 398 558T327 542Q306 542 289 547T257 558T227 569T195 574Q170 574 148 565T107 541L71 615Z" />
<glyph unicode="&#xf2;" glyph-name="ograve" horiz-adv-x="529" d="M253 -11Q189 -11 147 6T80 54T45 130T34 231Q34 351 91 410T274 469Q337 469 379 453T447 405T484 328T495 226Q495 106 437 48T253 -11ZM253 77Q317 77 340 117T363 235Q363 265 359 291T346
338T319 370T274 382Q211 382 189 342T166 223Q166 193 169 167T183 120T209 89T253 77ZM260 687L371 529H252L116 687H260Z" />
<glyph unicode="&#xf3;" glyph-name="oacute" horiz-adv-x="529" d="M253 -11Q189 -11 147 6T80 54T45 130T34 231Q34 351 91 410T274 469Q337 469 379 453T447 405T484 328T495 226Q495 106 437 48T253 -11ZM253 77Q317 77 340 117T363 235Q363 265 359 291T346
338T319 370T274 382Q211 382 189 342T166 223Q166 193 169 167T183 120T209 89T253 77ZM437 687L300 529H181L293 687H437Z" />
<glyph unicode="&#xf4;" glyph-name="ocircumflex" horiz-adv-x="529" d="M253 -11Q189 -11 147 6T80 54T45 130T34 231Q34 351 91 410T274 469Q337 469 379 453T447 405T484 328T495 226Q495 106 437 48T253 -11ZM253 77Q317 77 340 117T363 235Q363 265 359
291T346 338T319 370T274 382Q211 382 189 342T166 223Q166 193 169 167T183 120T209 89T253 77ZM353 687L454 529H341L276 622H265L196 529H87L192 687H353Z" />
<glyph unicode="&#xf5;" glyph-name="otilde" horiz-adv-x="529" d="M253 -11Q189 -11 147 6T80 54T45 130T34 231Q34 351 91 410T274 469Q337 469 379 453T447 405T484 328T495 226Q495 106 437 48T253 -11ZM253 77Q317 77 340 117T363 235Q363 265 359 291T346
338T319 370T274 382Q211 382 189 342T166 223Q166 193 169 167T183 120T209 89T253 77ZM82 615Q104 639 137 655T208 672Q229 672 246 667T278 656T308 644T340 639Q365 639 386 649T428 673L463 598Q442 574 409 558T338 542Q317 542 300 547T268 558T238 569T206
574Q181 574 159 565T118 541L82 615Z" />
<glyph unicode="&#xf6;" glyph-name="odieresis" horiz-adv-x="529" d="M253 -11Q189 -11 147 6T80 54T45 130T34 231Q34 351 91 410T274 469Q337 469 379 453T447 405T484 328T495 226Q495 106 437 48T253 -11ZM253 77Q317 77 340 117T363 235Q363 265 359 291T346
338T319 370T274 382Q211 382 189 342T166 223Q166 193 169 167T183 120T209 89T253 77ZM230 555H103V659H230V555ZM431 555H305V659H431V555Z" />
<glyph unicode="&#xf7;" glyph-name="divide" horiz-adv-x="542" d="M56 316H484V214H56V316ZM336 375H206V497H336V375ZM206 156H336V35H206V156Z" />
<glyph unicode="&#xf8;" glyph-name="oslash" horiz-adv-x="529" d="M253 -13Q221 -13 195 -9T147 3L96 -58L12 12L65 75Q48 105 41 144T34 231Q34 352 91 411T274 470Q334 470 379 453L431 516L516 445L463 382Q480 352 487 313T495 226Q495 105 437 46T253 -13ZM253
69Q318 69 343 111T369 235V257Q369 262 369 267T368 277L204 81Q223 69 253 69ZM274 389Q210 389 185 346T159 223V201Q159 196 159 192T160 182L323 377Q303 389 274 389Z" />
<glyph unicode="&#xf9;" glyph-name="ugrave" horiz-adv-x="511" d="M458 123L467 0H347L342 31Q331 24 319 19T292 8Q244 -11 195 -11Q151 -11 123 0T79 33T56 83T49 149V458H179V177Q179 159 180 143T187 115T205 96T238 89Q268 89 292 97Q302 101 311 106T328
116V458H458V123ZM210 687L321 529H202L66 687H210Z" />
<glyph unicode="&#xfa;" glyph-name="uacute" horiz-adv-x="511" d="M458 123L467 0H347L342 31Q331 24 319 19T292 8Q244 -11 195 -11Q151 -11 123 0T79 33T56 83T49 149V458H179V177Q179 159 180 143T187 115T205 96T238 89Q268 89 292 97Q302 101 311 106T328
116V458H458V123ZM441 687L304 529H185L297 687H441Z" />
<glyph unicode="&#xfb;" glyph-name="ucircumflex" horiz-adv-x="511" d="M458 123L467 0H347L342 31Q331 24 319 19T292 8Q244 -11 195 -11Q151 -11 123 0T79 33T56 83T49 149V458H179V177Q179 159 180 143T187 115T205 96T238 89Q268 89 292 97Q302 101 311
106T328 116V458H458V123ZM339 687L440 529H327L262 622H251L182 529H73L178 687H339Z" />
<glyph unicode="&#xfc;" glyph-name="udieresis" horiz-adv-x="511" d="M458 123L467 0H347L342 31Q331 24 319 19T292 8Q244 -11 195 -11Q151 -11 123 0T79 33T56 83T49 149V458H179V177Q179 159 180 143T187 115T205 96T238 89Q268 89 292 97Q302 101 311 106T328
116V458H458V123ZM219 555H92V659H219V555ZM420 555H294V659H420V555Z" />
<glyph unicode="&#xfd;" glyph-name="yacute" horiz-adv-x="471" d="M0 458H144L238 148H248L339 458H471L290 -37Q274 -80 256 -115T213 -176T154 -215T69 -229Q53 -229 35 -228T2 -221L18 -134Q34 -138 56 -138Q90 -138 108 -128T135 -104Q147 -89 159 -59T182
0L0 458ZM422 687L285 529H166L278 687H422Z" />
<glyph unicode="&#xfe;" glyph-name="thorn" horiz-adv-x="520" d="M265 -11Q232 -11 204 -2Q198 0 192 1T181 6V-206L51 -222V678L181 695V442Q188 446 195 449T209 455Q251 469 295 469Q393 469 439 408T486 243Q486 187 474 141T436 61T368 8T265 -11ZM197
87Q223 79 242 79Q265 79 285 86T320 112T343 159T352 233Q352 378 251 378Q220 378 195 363Q191 361 188 359T181 352V94L197 87Z" />
<glyph unicode="&#xff;" glyph-name="ydieresis" horiz-adv-x="471" d="M0 458H144L238 148H248L339 458H471L290 -37Q274 -80 256 -115T213 -176T154 -215T69 -229Q53 -229 35 -228T2 -221L18 -134Q34 -138 56 -138Q90 -138 108 -128T135 -104Q147 -89 159 -59T182
0L0 458ZM203 555H76V659H203V555ZM404 555H278V659H404V555Z" />
<glyph unicode="&#x100;" glyph-name="Amacron" horiz-adv-x="652" d="M502 0L446 171H200L145 0H5L242 659H417L647 0H502ZM321 557L235 276H412L329 557H321ZM491 758H170V855H491V758Z" />
<glyph unicode="&#x101;" glyph-name="amacron" horiz-adv-x="483" d="M473 0Q456 -4 425 -4Q349 -4 320 42Q295 18 257 4T184 -11Q134 -11 103 1T55 33T33 80T27 134Q27 179 41 208T83 253T148 276T233 283Q248 283 266 283T299 281V302Q299 339 279 358T210
378Q171 378 136 369T71 343L45 422Q82 442 135 455T243 469Q297 469 332 460T390 428T421 368T430 276V135Q430 107 441 97T473 87V0ZM234 198Q192 198 177 183T161 139Q161 109 172 93T216 77Q233 77 257 84T299 108V195Q282 197 266 197T234 198ZM418 558H97V655H418V558Z"
/>
<glyph unicode="&#x102;" glyph-name="Abreve" horiz-adv-x="652" d="M502 0L446 171H200L145 0H5L242 659H417L647 0H502ZM321 557L235 276H412L329 557H321ZM494 886Q494 801 457 760T326 719Q233 719 196 760T158 886H255Q258 848 272 826T326 803Q366 803
380 825T396 886H494Z" />
<glyph unicode="&#x103;" glyph-name="abreve" horiz-adv-x="483" d="M473 0Q456 -4 425 -4Q349 -4 320 42Q295 18 257 4T184 -11Q134 -11 103 1T55 33T33 80T27 134Q27 179 41 208T83 253T148 276T233 283Q248 283 266 283T299 281V302Q299 339 279 358T210 378Q171
378 136 369T71 343L45 422Q82 442 135 455T243 469Q297 469 332 460T390 428T421 368T430 276V135Q430 107 441 97T473 87V0ZM234 198Q192 198 177 183T161 139Q161 109 172 93T216 77Q233 77 257 84T299 108V195Q282 197 266 197T234 198ZM411 687Q411 602 374
561T243 520Q150 520 113 561T75 687H172Q175 649 189 627T243 604Q283 604 297 626T313 687H411Z" />
<glyph unicode="&#x104;" glyph-name="Aogonek" horiz-adv-x="652" d="M502 0L446 171H200L145 0H5L242 659H417L647 0Q633 -4 614 -12T576 -32Q555 -47 547 -63T538 -100Q538 -145 586 -145Q598 -145 610 -144T634 -138L656 -205Q636 -214 605 -220T544 -226Q480
-226 449 -202T417 -123Q417 -104 420 -87T434 -55T461 -27T505 0H502ZM321 557L235 276H412L329 557H321Z" />
<glyph unicode="&#x105;" glyph-name="aogonek" horiz-adv-x="483" d="M496 -205Q476 -214 445 -220T383 -226Q320 -226 289 -202T257 -123Q257 -82 278 -54T357 2L364 5Q336 17 320 42Q295 18 257 4T184 -11Q134 -11 103 1T55 33T33 80T27 134Q27 179 41 208T83
253T148 276T233 283Q248 283 266 283T299 281V302Q299 339 279 358T210 378Q171 378 136 369T71 343L45 422Q82 442 135 455T243 469Q297 469 332 460T390 428T421 368T430 276V135Q430 107 441 97T473 87V0Q456 -9 441 -17T412 -37Q393 -51 386 -65T378 -100Q378
-145 426 -145Q438 -145 450 -144T473 -138L496 -205ZM234 198Q192 198 177 183T161 139Q161 109 172 93T216 77Q233 77 257 84T299 108V195Q282 197 266 197T234 198Z" />
<glyph unicode="&#x106;" glyph-name="Cacute" horiz-adv-x="610" d="M348 -11Q267 -11 210 11T116 77T62 183T45 329Q45 500 124 584T353 669Q383 669 415 664T477 647T534 618T582 576L504 500Q477 532 441 548T357 565Q182 565 182 320Q182 101 356 101Q410
101 456 113T544 144L574 42Q532 18 470 4T348 -11ZM537 888L400 730H281L393 888H537Z" />
<glyph unicode="&#x107;" glyph-name="cacute" horiz-adv-x="465" d="M433 31Q408 14 364 2T263 -11Q200 -11 157 4T86 48T47 121T34 222Q34 348 96 408T282 469Q334 469 378 452T445 407L373 338Q354 361 332 370T281 379Q221 379 193 343T165 222Q165 154 189
117T276 79Q317 79 347 88T409 114L433 31ZM427 687L290 529H171L283 687H427Z" />
<glyph unicode="&#x108;" glyph-name="Ccircumflex" horiz-adv-x="610" d="M348 -11Q267 -11 210 11T116 77T62 183T45 329Q45 500 124 584T353 669Q383 669 415 664T477 647T534 618T582 576L504 500Q477 532 441 548T357 565Q182 565 182 320Q182 101 356 101Q410
101 456 113T544 144L574 42Q532 18 470 4T348 -11ZM430 887L531 729H418L353 822H342L273 729H164L269 887H430Z" />
<glyph unicode="&#x109;" glyph-name="ccircumflex" horiz-adv-x="465" d="M433 31Q408 14 364 2T263 -11Q200 -11 157 4T86 48T47 121T34 222Q34 348 96 408T282 469Q334 469 378 452T445 407L373 338Q354 361 332 370T281 379Q221 379 193 343T165 222Q165 154
189 117T276 79Q317 79 347 88T409 114L433 31ZM344 687L445 529H332L267 622H256L187 529H78L183 687H344Z" />
<glyph unicode="&#x10a;" glyph-name="Cdotaccent" horiz-adv-x="610" d="M348 -11Q267 -11 210 11T116 77T62 183T45 329Q45 500 124 584T353 669Q383 669 415 664T477 647T534 618T582 576L504 500Q477 532 441 548T357 565Q182 565 182 320Q182 101 356 101Q410
101 456 113T544 144L574 42Q532 18 470 4T348 -11ZM410 755H278V859H410V755Z" />
<glyph unicode="&#x10b;" glyph-name="cdotaccent" horiz-adv-x="465" d="M433 31Q408 14 364 2T263 -11Q200 -11 157 4T86 48T47 121T34 222Q34 348 96 408T282 469Q334 469 378 452T445 407L373 338Q354 361 332 370T281 379Q221 379 193 343T165 222Q165 154
189 117T276 79Q317 79 347 88T409 114L433 31ZM326 555H194V659H326V555Z" />
<glyph unicode="&#x10c;" glyph-name="Ccaron" horiz-adv-x="610" d="M348 -11Q267 -11 210 11T116 77T62 183T45 329Q45 500 124 584T353 669Q383 669 415 664T477 647T534 618T582 576L504 500Q477 532 441 548T357 565Q182 565 182 320Q182 101 356 101Q410
101 456 113T544 144L574 42Q532 18 470 4T348 -11ZM267 729L167 887H279L344 794H355L424 887H534L429 729H267Z" />
<glyph unicode="&#x10d;" glyph-name="ccaron" horiz-adv-x="465" d="M433 31Q408 14 364 2T263 -11Q200 -11 157 4T86 48T47 121T34 222Q34 348 96 408T282 469Q334 469 378 452T445 407L373 338Q354 361 332 370T281 379Q221 379 193 343T165 222Q165 154 189
117T276 79Q317 79 347 88T409 114L433 31ZM187 529L87 687H199L264 594H275L344 687H454L349 529H187Z" />
<glyph unicode="&#x10e;" glyph-name="Dcaron" horiz-adv-x="672" d="M284 659Q366 659 429 641T536 584T603 481T626 327Q626 235 598 172T521 71T404 17T258 0H70V659H284ZM253 103Q308 103 351 114T425 152T471 224T487 338Q487 450 433 502T281 555H203V103H253ZM228
729L128 887H240L305 794H316L385 887H495L390 729H228Z" />
<glyph unicode="&#x10f;" glyph-name="dcaron" horiz-adv-x="652" d="M601 523H516L538 691H664L601 523ZM225 -11Q126 -11 80 50T34 216Q34 271 45 317T83 397T152 450T255 469Q286 469 315 460Q321 458 327 457T338 453V678L468 695V123L477 0H366L357 27Q333
11 310 3Q270 -11 225 -11ZM323 372Q301 379 278 379Q255 379 235 372T200 346T177 299T168 225Q168 80 269 80Q299 80 325 95Q328 97 331 100T338 105V364Q334 366 331 368T323 372Z" />
<glyph unicode="&#x110;" glyph-name="Dcroat" horiz-adv-x="685" d="M297 659Q379 659 442 641T549 584T616 481T639 327Q639 235 611 172T534 71T417 17T271 0H83V278H16V381H83V659H297ZM266 103Q321 103 364 114T438 152T484 224T500 338Q500 450 446 502T294
555H216V381H349V278H216V103H266Z" />
<glyph unicode="&#x111;" glyph-name="" horiz-adv-x="528" d="M225 -11Q126 -11 80 50T34 216Q34 271 45 317T83 397T152 450T255 469Q286 469 315 460Q321 458 327 457T338 453V518H237V606H338V678L468 695V606H545V518H468V123L477 0H366L357 27Q333 11 310
3Q270 -11 225 -11ZM323 372Q301 379 278 379Q255 379 235 372T200 346T177 299T168 225Q168 80 269 80Q299 80 325 95Q328 97 331 100T338 105V364Q334 366 331 368T323 372Z" />
<glyph unicode="&#x112;" glyph-name="Emacron" horiz-adv-x="557" d="M505 104V0H70V659H494V555H203V390H484V288H203V104H505ZM444 758H123V855H444V758Z" />
<glyph unicode="&#x113;" glyph-name="emacron" horiz-adv-x="497" d="M263 -11Q200 -11 156 4T85 50T46 126T34 232Q34 469 261 469Q324 469 363 452T425 405T456 334T464 245V198H167Q167 151 185 121Q210 81 284 81Q311 81 332 84T370 93T402 106T432 119L456
38Q443 29 422 21T374 5T320 -6T263 -11ZM329 283Q329 331 313 358T259 385Q215 385 194 364T169 302Q168 298 168 293T168 283H329ZM419 558H98V655H419V558Z" />
<glyph unicode="&#x114;" glyph-name="Ebreve" horiz-adv-x="557" d="M505 104V0H70V659H494V555H203V390H484V288H203V104H505ZM451 886Q451 801 414 760T283 719Q190 719 153 760T115 886H212Q215 848 229 826T283 803Q323 803 337 825T353 886H451Z" />
<glyph unicode="&#x115;" glyph-name="ebreve" horiz-adv-x="497" d="M263 -11Q200 -11 156 4T85 50T46 126T34 232Q34 469 261 469Q324 469 363 452T425 405T456 334T464 245V198H167Q167 151 185 121Q210 81 284 81Q311 81 332 84T370 93T402 106T432 119L456
38Q443 29 422 21T374 5T320 -6T263 -11ZM329 283Q329 331 313 358T259 385Q215 385 194 364T169 302Q168 298 168 293T168 283H329ZM426 687Q426 602 389 561T258 520Q165 520 128 561T90 687H187Q190 649 204 627T258 604Q298 604 312 626T328 687H426Z" />
<glyph unicode="&#x116;" glyph-name="Edotaccent" horiz-adv-x="557" d="M505 104V0H70V659H494V555H203V390H484V288H203V104H505ZM363 755H231V859H363V755Z" />
<glyph unicode="&#x117;" glyph-name="edotaccent" horiz-adv-x="497" d="M263 -11Q200 -11 156 4T85 50T46 126T34 232Q34 469 261 469Q324 469 363 452T425 405T456 334T464 245V198H167Q167 151 185 121Q210 81 284 81Q311 81 332 84T370 93T402 106T432 119L456
38Q443 29 422 21T374 5T320 -6T263 -11ZM329 283Q329 331 313 358T259 385Q215 385 194 364T169 302Q168 298 168 293T168 283H329ZM324 555H192V659H324V555Z" />
<glyph unicode="&#x118;" glyph-name="Eogonek" horiz-adv-x="557" d="M528 -205Q507 -214 477 -220T415 -226Q351 -226 320 -202T289 -123Q289 -82 309 -54T384 0H70V659H494V555H203V390H484V288H203V104H505V0Q488 -9 473 -17T443 -37Q425 -51 418 -65T410
-100Q410 -145 458 -145Q469 -145 481 -144T505 -138L528 -205Z" />
<glyph unicode="&#x119;" glyph-name="eogonek" horiz-adv-x="497" d="M478 -205Q457 -214 426 -220T365 -226Q238 -226 238 -121Q238 -72 263 -41Q270 -33 279 -25T300 -8Q291 -9 282 -9T263 -10Q200 -10 156 5T85 51T46 126T34 232Q34 469 261 469Q324 469 363
452T425 405T456 334T464 245V198H167Q168 141 194 112T284 82Q311 82 332 85T370 94T402 107T432 120L456 39Q446 34 429 22T395 -3Q378 -18 369 -36T360 -83Q360 -107 371 -126T407 -145Q419 -145 431 -144T455 -138L478 -205ZM329 283Q329 331 313 358T259 385Q208
385 189 360T168 283H329Z" />
<glyph unicode="&#x11a;" glyph-name="Ecaron" horiz-adv-x="557" d="M505 104V0H70V659H494V555H203V390H484V288H203V104H505ZM206 729L106 887H218L283 794H294L363 887H473L368 729H206Z" />
<glyph unicode="&#x11b;" glyph-name="ecaron" horiz-adv-x="497" d="M263 -11Q200 -11 156 4T85 50T46 126T34 232Q34 469 261 469Q324 469 363 452T425 405T456 334T464 245V198H167Q167 151 185 121Q210 81 284 81Q311 81 332 84T370 93T402 106T432 119L456
38Q443 29 422 21T374 5T320 -6T263 -11ZM329 283Q329 331 313 358T259 385Q215 385 194 364T169 302Q168 298 168 293T168 283H329ZM178 529L78 687H190L255 594H266L335 687H445L340 529H178Z" />
<glyph unicode="&#x11c;" glyph-name="Gcircumflex" horiz-adv-x="674" d="M608 34Q560 12 500 1T369 -11Q201 -11 123 77T45 329Q45 413 67 477T132 583T236 647T375 669Q448 669 511 647T619 572L538 500Q510 531 471 550T377 569Q280 569 231 505T181 320Q181
206 232 150T377 93Q405 93 437 96L479 105V260H342V361H608V34ZM437 887L538 729H425L360 822H349L280 729H171L276 887H437Z" />
<glyph unicode="&#x11d;" glyph-name="gcircumflex" horiz-adv-x="519" d="M467 458V-11Q467 -71 449 -112T400 -180T325 -217T230 -229Q181 -229 141 -221T71 -201L105 -114Q123 -120 153 -126T223 -133Q275 -133 306 -111T337 -34V5Q315 -2 290 -6T237 -11Q130
-11 82 48T34 212Q34 269 45 316T82 397T151 450T260 469Q291 469 316 462T362 445L366 458H467ZM337 372Q312 379 284 379Q221 379 194 342T167 220Q167 157 192 118T279 78Q292 78 306 79T337 86V372ZM355 687L456 529H343L278 622H267L198 529H89L194 687H355Z"
/>
<glyph unicode="&#x11e;" glyph-name="Gbreve" horiz-adv-x="674" d="M608 34Q560 12 500 1T369 -11Q201 -11 123 77T45 329Q45 413 67 477T132 583T236 647T375 669Q448 669 511 647T619 572L538 500Q510 531 471 550T377 569Q280 569 231 505T181 320Q181 206
232 150T377 93Q405 93 437 96L479 105V260H342V361H608V34ZM527 886Q527 801 490 760T359 719Q266 719 229 760T191 886H288Q291 848 305 826T359 803Q399 803 413 825T429 886H527Z" />
<glyph unicode="&#x11f;" glyph-name="gbreve" horiz-adv-x="519" d="M467 458V-11Q467 -71 449 -112T400 -180T325 -217T230 -229Q181 -229 141 -221T71 -201L105 -114Q123 -120 153 -126T223 -133Q275 -133 306 -111T337 -34V5Q315 -2 290 -6T237 -11Q130 -11
82 48T34 212Q34 269 45 316T82 397T151 450T260 469Q291 469 316 462T362 445L366 458H467ZM337 372Q312 379 284 379Q221 379 194 342T167 220Q167 157 192 118T279 78Q292 78 306 79T337 86V372ZM430 687Q430 602 393 561T262 520Q169 520 132 561T94 687H191Q194
649 208 627T262 604Q302 604 316 626T332 687H430Z" />
<glyph unicode="&#x120;" glyph-name="Gdotaccent" horiz-adv-x="674" d="M608 34Q560 12 500 1T369 -11Q201 -11 123 77T45 329Q45 413 67 477T132 583T236 647T375 669Q448 669 511 647T619 572L538 500Q510 531 471 550T377 569Q280 569 231 505T181 320Q181
206 232 150T377 93Q405 93 437 96L479 105V260H342V361H608V34ZM430 755H298V859H430V755Z" />
<glyph unicode="&#x121;" glyph-name="gdotaccent" horiz-adv-x="519" d="M467 458V-11Q467 -71 449 -112T400 -180T325 -217T230 -229Q181 -229 141 -221T71 -201L105 -114Q123 -120 153 -126T223 -133Q275 -133 306 -111T337 -34V5Q315 -2 290 -6T237 -11Q130
-11 82 48T34 212Q34 269 45 316T82 397T151 450T260 469Q291 469 316 462T362 445L366 458H467ZM337 372Q312 379 284 379Q221 379 194 342T167 220Q167 157 192 118T279 78Q292 78 306 79T337 86V372ZM326 555H194V659H326V555Z" />
<glyph unicode="&#x122;" glyph-name="uni0122" horiz-adv-x="674" d="M608 34Q560 12 500 1T369 -11Q201 -11 123 77T45 329Q45 413 67 477T132 583T236 647T375 669Q448 669 511 647T619 572L538 500Q510 531 471 550T377 569Q280 569 231 505T181 320Q181 206
232 150T377 93Q405 93 437 96L479 105V260H342V361H608V34ZM253 -258Q270 -233 280 -210T296 -164T304 -114T306 -54H423Q423 -136 402 -199T330 -317L253 -258Z" />
<glyph unicode="&#x123;" glyph-name="uni0123" horiz-adv-x="519" d="M467 458V-11Q467 -71 449 -112T400 -180T325 -217T230 -229Q181 -229 141 -221T71 -201L105 -114Q123 -120 153 -126T223 -133Q275 -133 306 -111T337 -34V5Q315 -2 290 -6T237 -11Q130 -11
82 48T34 212Q34 269 45 316T82 397T151 450T260 469Q291 469 316 462T362 445L366 458H467ZM337 372Q312 379 284 379Q221 379 194 342T167 220Q167 157 192 118T279 78Q292 78 306 79T337 86V372ZM378 716Q361 691 351 668T335 622T327 572T325 512H208Q208 594
229 657T301 775L378 716Z" />
<glyph unicode="&#x124;" glyph-name="Hcircumflex" horiz-adv-x="677" d="M607 659V0H474V277H203V0H70V659H203V382H474V659H607ZM426 887L527 729H414L349 822H338L269 729H160L265 887H426Z" />
<glyph unicode="&#x125;" glyph-name="hcircumflex" horiz-adv-x="515" d="M337 0V281Q337 298 336 313T328 341T310 360T275 367Q246 367 220 359Q209 354 200 349T182 339V0H52V678L182 695V433Q190 438 199 442T219 450Q244 459 269 463T317 468Q362 468 391
457T437 425T460 375T467 309V0H337ZM203 912L304 754H191L126 847H115L46 754H-63L42 912H203Z" />
<glyph unicode="&#x126;" glyph-name="Hbar" horiz-adv-x="699" d="M618 659V558H685V463H618V0H485V277H214V0H81V463H13V558H81V659H214V558H485V659H618ZM485 382V463H214V382H485Z" />
<glyph unicode="&#x127;" glyph-name="hbar" horiz-adv-x="515" d="M337 0V281Q337 298 336 313T328 341T310 360T275 367Q246 367 220 359Q209 354 200 349T182 339V0H52V518H-15V606H52V678L182 695V606H292V518H182V433Q190 438 199 442T219 450Q244 459 269
463T317 468Q362 468 391 457T437 425T460 375T467 309V0H337Z" />
<glyph unicode="&#x128;" glyph-name="Itilde" horiz-adv-x="273" d="M70 659H203V0H70V659ZM-53 815Q-31 839 2 855T73 872Q94 872 111 867T143 856T173 844T205 839Q230 839 251 849T293 873L328 798Q307 774 274 758T203 742Q182 742 165 747T133 758T103 769T71
774Q46 774 24 765T-17 741L-53 815Z" />
<glyph unicode="&#x129;" glyph-name="itilde" horiz-adv-x="236" d="M259 576Q240 560 218 551T171 542Q154 542 140 547T112 558T85 569T58 574Q37 574 20 567T-10 548L-22 636Q14 672 66 672Q84 672 98 667T126 656T151 644T178 639Q220 639 246 664L259 576ZM183
0H53V458H183V0Z" />
<glyph unicode="&#x12a;" glyph-name="Imacron" horiz-adv-x="273" d="M70 659H203V0H70V659ZM298 758H-23V855H298V758Z" />
<glyph unicode="&#x12b;" glyph-name="imacron" horiz-adv-x="236" d="M53 458H183V0H53V458ZM246 558H-10V655H246V558Z" />
<glyph unicode="&#x12c;" glyph-name="Ibreve" horiz-adv-x="273" d="M70 659H203V0H70V659ZM305 886Q305 801 268 760T137 719Q44 719 7 760T-31 886H66Q69 848 83 826T137 803Q177 803 191 825T207 886H305Z" />
<glyph unicode="&#x12d;" glyph-name="ibreve" horiz-adv-x="236" d="M53 458H183V0H53V458ZM286 687Q286 602 249 561T118 520Q25 520 -12 561T-50 687H47Q50 649 64 627T118 604Q158 604 172 626T188 687H286Z" />
<glyph unicode="&#x12e;" glyph-name="Iogonek" horiz-adv-x="273" d="M70 659H203V0Q188 -4 170 -12T132 -32Q110 -47 102 -63T94 -100Q94 -145 142 -145Q154 -145 166 -144T190 -138L212 -205Q192 -214 161 -220T100 -226Q36 -226 5 -202T-27 -126Q-27 -85 -7
-56T70 0V659Z" />
<glyph unicode="&#x12f;" glyph-name="iogonek" horiz-adv-x="236" d="M53 458H183V0Q169 -4 151 -13T119 -32Q86 -58 86 -100Q86 -145 133 -145Q145 -145 157 -144T181 -138L204 -205Q183 -214 152 -220T91 -226Q27 -226 -4 -202T-36 -123Q-36 -84 -19 -55T53
0V458ZM52 659H184V555H52V659Z" />
<glyph unicode="&#x130;" glyph-name="Idotaccent" horiz-adv-x="273" d="M70 659H203V0H70V659ZM204 755H72V859H204V755Z" />
<glyph unicode="&#x131;" glyph-name="dotlessi" horiz-adv-x="236" d="M183 0H53V458H183V0Z" />
<glyph unicode="&#x132;" glyph-name="IJ" horiz-adv-x="644" d="M70 659H203V0H70V659ZM442 659H574V199Q574 90 527 43T374 -5Q350 -5 321 -1T268 12L284 108Q305 103 327 100T364 97Q401 97 421 118T442 188V659Z" />
<glyph unicode="&#x133;" glyph-name="ij" horiz-adv-x="471" d="M52 659H184V555H52V659ZM53 458H183V0H53V458ZM217 -135H227Q265 -135 276 -117T288 -51V458H418V-35Q418 -91 407 -128T373 -187T313 -219T224 -229H217V-135ZM418 557H287V659H418V557Z" />
<glyph unicode="&#x134;" glyph-name="Jcircumflex" horiz-adv-x="372" d="M169 659H301V199Q301 90 254 43T101 -5Q77 -5 48 -1T-5 12L11 108Q32 103 54 100T91 97Q128 97 148 118T169 188V659ZM320 887L421 729H308L243 822H232L163 729H54L159 887H320Z" />
<glyph unicode="&#x135;" glyph-name="jcircumflex" horiz-adv-x="236" d="M-18 -129H-8Q30 -129 41 -111T53 -44V458H183V-28Q183 -84 172 -121T138 -180T78 -212T-11 -222H-18V-129ZM201 692L291 534H184L125 627H114L50 534H-54L40 692H201Z" />
<glyph unicode="&#x136;" glyph-name="uni0136" horiz-adv-x="608" d="M203 0H70V659H203V380H251L465 659H613L361 339L607 0H450L251 278H203V0ZM187 -258Q204 -233 214 -210T230 -164T238 -114T240 -54H357Q357 -136 336 -199T264 -317L187 -258Z" />
<glyph unicode="&#x137;" glyph-name="uni0137" horiz-adv-x="482" d="M52 0V678L181 695V296H214L351 458H494L314 249L500 0H356L211 199H181V0H52ZM135 -258Q152 -233 162 -210T178 -164T186 -114T188 -54H305Q305 -136 284 -199T212 -317L135 -258Z" />
<glyph unicode="&#x138;" glyph-name="kgreenlandic" horiz-adv-x="483" d="M53 0V458H182V284H217L352 458H495L313 238L502 0H357L213 187H182V0H53Z" />
<glyph unicode="&#x139;" glyph-name="Lacute" horiz-adv-x="478" d="M472 104V0H70V659H203V104H472ZM364 888L227 730H108L220 888H364Z" />
<glyph unicode="&#x13a;" glyph-name="lacute" horiz-adv-x="246" d="M235 -3Q232 -4 224 -4Q221 -5 212 -5H201Q117 -5 85 34T53 146V678L182 695V149Q182 129 184 117T193 98T209 89T235 87V-3ZM309 912L172 754H53L165 912H309Z" />
<glyph unicode="&#x13b;" glyph-name="uni013B" horiz-adv-x="478" d="M472 104V0H70V659H203V104H472ZM138 -258Q155 -233 165 -210T181 -164T189 -114T191 -54H308Q308 -136 287 -199T215 -317L138 -258Z" />
<glyph unicode="&#x13c;" glyph-name="uni013C" horiz-adv-x="245" d="M234 -3Q231 -4 223 -4Q220 -5 211 -5H200Q116 -5 84 34T52 146V678L181 695V149Q181 129 183 117T192 98T208 89T234 87V-3ZM21 -258Q38 -233 48 -210T64 -164T72 -114T74 -54H191Q191 -136
170 -199T98 -317L21 -258Z" />
<glyph unicode="&#x13d;" glyph-name="Lcaron" horiz-adv-x="478" d="M348 523H251L274 691H413L348 523ZM472 104V0H70V659H203V104H472Z" />
<glyph unicode="&#x13e;" glyph-name="lcaron" horiz-adv-x="365" d="M316 523H231L253 691H379L316 523ZM234 -3Q231 -4 223 -4Q220 -5 211 -5H200Q116 -5 84 34T52 146V678L181 695V149Q181 129 183 117T192 98T208 89T234 87V-3Z" />
<glyph unicode="&#x13f;" glyph-name="Ldot" horiz-adv-x="488" d="M472 104V0H70V659H203V104H472ZM413 267H287V371H413V267Z" />
<glyph unicode="&#x140;" glyph-name="ldot" horiz-adv-x="281" d="M234 -3Q231 -4 223 -4Q220 -5 211 -5H200Q116 -5 84 34T52 146V678L181 695V149Q181 129 183 117T192 98T208 89T234 87V-3ZM340 199H214V303H340V199Z" />
<glyph unicode="&#x141;" glyph-name="Lslash" horiz-adv-x="474" d="M469 104V0H67V219L0 181V284L67 322V659H200V399L346 484V381L200 296V104H469Z" />
<glyph unicode="&#x142;" glyph-name="lslash" horiz-adv-x="277" d="M248 -3Q245 -4 237 -4Q234 -5 225 -5H214Q130 -5 98 34T66 146V230L0 183V286L66 333V678L195 695V425L277 484V381L195 322V149Q195 129 197 117T206 98T222 89T248 87V-3Z" />
<glyph unicode="&#x143;" glyph-name="Nacute" horiz-adv-x="729" d="M659 659V0H430L211 557H203V0H70V659H299L518 102H526V659H659ZM556 888L419 730H300L412 888H556Z" />
<glyph unicode="&#x144;" glyph-name="nacute" horiz-adv-x="516" d="M165 458L168 426Q179 434 191 440T218 451Q270 469 317 469Q362 469 391 458T437 426T460 376T467 309V0H337V281Q337 298 336 314T328 342T310 361T275 368Q246 368 220 360Q209 356 200
351T183 341V0H53V335L44 458H165ZM410 687L273 529H154L266 687H410Z" />
<glyph unicode="&#x145;" glyph-name="uni0145" horiz-adv-x="729" d="M659 659V0H430L211 557H203V0H70V659H299L518 102H526V659H659ZM238 -258Q255 -233 265 -210T281 -164T289 -114T291 -54H408Q408 -136 387 -199T315 -317L238 -258Z" />
<glyph unicode="&#x146;" glyph-name="uni0146" horiz-adv-x="516" d="M165 458L168 426Q179 434 191 440T218 451Q270 469 317 469Q362 469 391 458T437 426T460 376T467 309V0H337V281Q337 298 336 314T328 342T310 361T275 368Q246 368 220 360Q209 356 200
351T183 341V0H53V335L44 458H165ZM148 -258Q165 -233 175 -210T191 -164T199 -114T201 -54H318Q318 -136 297 -199T225 -317L148 -258Z" />
<glyph unicode="&#x147;" glyph-name="Ncaron" horiz-adv-x="729" d="M659 659V0H430L211 557H203V0H70V659H299L518 102H526V659H659ZM273 729L173 887H285L350 794H361L430 887H540L435 729H273Z" />
<glyph unicode="&#x148;" glyph-name="ncaron" horiz-adv-x="516" d="M165 458L168 426Q179 434 191 440T218 451Q270 469 317 469Q362 469 391 458T437 426T460 376T467 309V0H337V281Q337 298 336 314T328 342T310 361T275 368Q246 368 220 360Q209 356 200
351T183 341V0H53V335L44 458H165ZM176 529L76 687H188L253 594H264L333 687H443L338 529H176Z" />
<glyph unicode="&#x14a;" glyph-name="Eng" horiz-adv-x="729" d="M659 659V-28Q659 -84 647 -121T609 -180T543 -212T444 -222H437V-129H447Q485 -129 505 -111T526 -44V0H430L211 557H203V0H70V659H299L518 102H526V659H659Z" />
<glyph unicode="&#x14b;" glyph-name="eng" horiz-adv-x="516" d="M165 458L168 425L170 426Q205 448 244 458T317 468Q362 468 391 457T437 425T460 375T467 309V-28Q467 -84 456 -121T422 -180T362 -212T273 -222H265V-129H276Q314 -129 325 -111T337 -44V281Q337
298 336 313T328 341T310 360T275 367Q246 367 220 359Q198 350 183 340V0H53V335L44 458H165Z" />
<glyph unicode="&#x14c;" glyph-name="Omacron" horiz-adv-x="691" d="M45 333Q45 503 121 586T356 669Q436 669 491 646T581 578T631 470T646 326Q646 157 570 73T334 -11Q253 -11 198 13T109 82T60 190T45 333ZM508 339Q508 385 501 427T477 500T431 550T357
569Q307 569 274 553T219 505T189 427T180 322Q180 275 187 233T212 160T258 110T331 92Q382 92 416 108T471 155T499 233T508 339ZM502 758H181V855H502V758Z" />
<glyph unicode="&#x14d;" glyph-name="omacron" horiz-adv-x="529" d="M253 -11Q189 -11 147 6T80 54T45 130T34 231Q34 351 91 410T274 469Q337 469 379 453T447 405T484 328T495 226Q495 106 437 48T253 -11ZM253 77Q317 77 340 117T363 235Q363 265 359 291T346
338T319 370T274 382Q211 382 189 342T166 223Q166 193 169 167T183 120T209 89T253 77ZM433 558H112V655H433V558Z" />
<glyph unicode="&#x14e;" glyph-name="Obreve" horiz-adv-x="691" d="M45 333Q45 503 121 586T356 669Q436 669 491 646T581 578T631 470T646 326Q646 157 570 73T334 -11Q253 -11 198 13T109 82T60 190T45 333ZM508 339Q508 385 501 427T477 500T431 550T357
569Q307 569 274 553T219 505T189 427T180 322Q180 275 187 233T212 160T258 110T331 92Q382 92 416 108T471 155T499 233T508 339ZM509 886Q509 801 472 760T341 719Q248 719 211 760T173 886H270Q273 848 287 826T341 803Q381 803 395 825T411 886H509Z" />
<glyph unicode="&#x14f;" glyph-name="obreve" horiz-adv-x="529" d="M253 -11Q189 -11 147 6T80 54T45 130T34 231Q34 351 91 410T274 469Q337 469 379 453T447 405T484 328T495 226Q495 106 437 48T253 -11ZM253 77Q317 77 340 117T363 235Q363 265 359 291T346
338T319 370T274 382Q211 382 189 342T166 223Q166 193 169 167T183 120T209 89T253 77ZM440 687Q440 602 403 561T272 520Q179 520 142 561T104 687H201Q204 649 218 627T272 604Q312 604 326 626T342 687H440Z" />
<glyph unicode="&#x150;" glyph-name="Ohungarumlaut" horiz-adv-x="691" d="M45 333Q45 503 121 586T356 669Q436 669 491 646T581 578T631 470T646 326Q646 157 570 73T334 -11Q253 -11 198 13T109 82T60 190T45 333ZM508 339Q508 385 501 427T477 500T431 550T357
569Q307 569 274 553T219 505T189 427T180 322Q180 275 187 233T212 160T258 110T331 92Q382 92 416 108T471 155T499 233T508 339ZM410 890L274 732H166L277 890H410ZM603 890L467 732H358L470 890H603Z" />
<glyph unicode="&#x151;" glyph-name="ohungarumlaut" horiz-adv-x="529" d="M253 -11Q189 -11 147 6T80 54T45 130T34 231Q34 351 91 410T274 469Q337 469 379 453T447 405T484 328T495 226Q495 106 437 48T253 -11ZM253 77Q317 77 340 117T363 235Q363 265 359
291T346 338T319 370T274 382Q211 382 189 342T166 223Q166 193 169 167T183 120T209 89T253 77ZM331 687L195 529H87L198 687H331ZM524 687L388 529H279L391 687H524Z" />
<glyph unicode="&#x152;" glyph-name="OE" horiz-adv-x="993" d="M941 104V0H518V34Q447 -11 334 -11Q253 -11 198 13T109 82T60 190T45 333Q45 503 121 586T356 669Q436 669 490 646Q506 638 518 630V659H931V555H639V390H921V288H639V104H941ZM508 339Q508 385
501 427T477 500T431 550T357 569Q307 569 274 553T219 505T189 427T180 322Q180 275 187 233T212 160T258 110T331 92Q382 92 416 108T471 155T499 233T508 339Z" />
<glyph unicode="&#x153;" glyph-name="oe" horiz-adv-x="827" d="M593 -11Q529 -11 486 4Q448 18 424 45Q397 18 359 5Q317 -11 253 -11Q189 -11 147 6T80 54T45 130T34 231Q34 351 91 410T274 469Q376 469 428 414Q479 469 590 469Q653 469 692 452T754 405T785
334T793 245V198H496Q496 150 515 121Q539 81 613 81Q640 81 661 84T699 93T732 106T762 119L785 38Q772 29 751 21T703 5T649 -6T593 -11ZM253 77Q317 77 340 117T363 235Q363 265 359 291T346 338T319 370T274 382Q211 382 189 342T166 223Q166 193 169 167T183
120T209 89T253 77ZM659 283Q659 331 643 358T588 385Q544 385 523 364T498 302Q497 298 497 293T497 283H659Z" />
<glyph unicode="&#x154;" glyph-name="Racute" horiz-adv-x="597" d="M70 0V659H328Q440 659 501 614T562 466Q562 399 534 355T457 288Q453 286 450 285T442 281L583 0H440L312 260H201V0H70ZM323 362Q342 362 361 367T394 384T417 416T426 466Q426 492 417 509T392
536T359 551T323 555H201V362H323ZM466 888L329 730H210L322 888H466Z" />
<glyph unicode="&#x155;" glyph-name="racute" horiz-adv-x="377" d="M160 458L167 409Q183 430 205 443Q249 469 298 469Q324 469 343 464T376 454L346 352Q321 366 287 366Q250 366 217 348Q200 339 184 322V0H54V328L40 458H160ZM371 687L234 529H115L227 687H371Z" />
<glyph unicode="&#x156;" glyph-name="uni0156" horiz-adv-x="597" d="M70 0V659H328Q440 659 501 614T562 466Q562 399 534 355T457 288Q453 286 450 285T442 281L583 0H440L312 260H201V0H70ZM323 362Q342 362 361 367T394 384T417 416T426 466Q426 492 417
509T392 536T359 551T323 555H201V362H323ZM196 -258Q213 -233 223 -210T239 -164T247 -114T249 -54H366Q366 -136 345 -199T273 -317L196 -258Z" />
<glyph unicode="&#x157;" glyph-name="uni0157" horiz-adv-x="377" d="M160 458L167 409Q183 430 205 443Q249 469 298 469Q324 469 343 464T376 454L346 352Q321 366 287 366Q250 366 217 348Q200 339 184 322V0H54V328L40 458H160ZM9 -258Q26 -233 36 -210T52
-164T60 -114T62 -54H179Q179 -136 158 -199T86 -317L9 -258Z" />
<glyph unicode="&#x158;" glyph-name="Rcaron" horiz-adv-x="597" d="M70 0V659H328Q440 659 501 614T562 466Q562 399 534 355T457 288Q453 286 450 285T442 281L583 0H440L312 260H201V0H70ZM323 362Q342 362 361 367T394 384T417 416T426 466Q426 492 417 509T392
536T359 551T323 555H201V362H323ZM210 729L110 887H222L287 794H298L367 887H477L372 729H210Z" />
<glyph unicode="&#x159;" glyph-name="rcaron" horiz-adv-x="377" d="M160 458L167 409Q183 430 205 443Q249 469 298 469Q324 469 343 464T376 454L346 352Q321 366 287 366Q250 366 217 348Q200 339 184 322V0H54V328L40 458H160ZM110 529L10 687H122L187 594H198L267
687H377L272 529H110Z" />
<glyph unicode="&#x15a;" glyph-name="Sacute" horiz-adv-x="551" d="M338 239Q299 258 255 272T168 305Q137 320 114 335T75 371T51 417T43 481Q43 569 107 619T294 669Q346 669 405 658T511 620L466 522Q434 541 389 553T295 565Q231 565 203 545T175 492Q175
459 196 442T238 416Q271 402 316 386T401 352Q425 340 446 326T484 293T509 246T519 179Q519 135 502 100T451 40T371 2T264 -11Q210 -11 150 2T32 43L81 142Q127 119 170 108T262 96Q331 96 360 118T389 172Q389 187 384 198T370 217T353 230T338 239ZM469 888L332
730H213L325 888H469Z" />
<glyph unicode="&#x15b;" glyph-name="sacute" horiz-adv-x="446" d="M219 294Q225 291 236 288T259 280T283 273T303 268Q326 261 347 251T383 226T408 189T417 136Q417 63 364 26T217 -11Q155 -11 111 -1T29 24L68 115Q96 100 133 91T216 82Q252 82 272 91T292
123Q292 153 231 172L148 196Q124 204 104 214T68 240T44 275T35 326Q35 398 88 433T234 469Q292 469 335 460T416 435L378 344Q349 360 313 369T234 378Q197 378 177 369T157 340Q157 311 219 294ZM412 687L275 529H156L268 687H412Z" />
<glyph unicode="&#x15c;" glyph-name="Scircumflex" horiz-adv-x="551" d="M338 239Q299 258 255 272T168 305Q137 320 114 335T75 371T51 417T43 481Q43 569 107 619T294 669Q346 669 405 658T511 620L466 522Q434 541 389 553T295 565Q231 565 203 545T175 492Q175
459 196 442T238 416Q271 402 316 386T401 352Q425 340 446 326T484 293T509 246T519 179Q519 135 502 100T451 40T371 2T264 -11Q210 -11 150 2T32 43L81 142Q127 119 170 108T262 96Q331 96 360 118T389 172Q389 187 384 198T370 217T353 230T338 239ZM370 887L471
729H358L293 822H282L213 729H104L209 887H370Z" />
<glyph unicode="&#x15d;" glyph-name="scircumflex" horiz-adv-x="446" d="M219 294Q225 291 236 288T259 280T283 273T303 268Q326 261 347 251T383 226T408 189T417 136Q417 63 364 26T217 -11Q155 -11 111 -1T29 24L68 115Q96 100 133 91T216 82Q252 82 272
91T292 123Q292 153 231 172L148 196Q124 204 104 214T68 240T44 275T35 326Q35 398 88 433T234 469Q292 469 335 460T416 435L378 344Q349 360 313 369T234 378Q197 378 177 369T157 340Q157 311 219 294ZM318 687L419 529H306L241 622H230L161 529H52L157 687H318Z"
/>
<glyph unicode="&#x15e;" glyph-name="Scedilla" horiz-adv-x="551" d="M164 -140Q181 -145 195 -148T227 -151Q252 -151 266 -142T280 -114Q280 -100 276 -92T261 -79T235 -70T194 -62L214 -8Q169 -3 123 9T32 43L81 142Q127 119 170 108T262 96Q331 96 360 118T389
172Q389 187 384 198T370 217T353 230T338 239Q299 258 255 272T168 305Q137 320 114 335T75 371T51 417T43 481Q43 569 107 619T294 669Q346 669 405 658T511 620L466 522Q434 541 389 553T295 565Q231 565 203 545T175 492Q175 459 196 442T238 416Q271 402 316
386T401 352Q425 340 446 326T484 293T509 246T519 179Q519 97 461 48T296 -10Q347 -21 373 -44T399 -113Q399 -173 362 -200T243 -227Q213 -227 184 -222T136 -210L164 -140Z" />
<glyph unicode="&#x15f;" glyph-name="scedilla" horiz-adv-x="446" d="M118 -140Q135 -145 149 -148T181 -151Q206 -151 220 -142T234 -114Q234 -100 230 -92T215 -79T189 -70T148 -62L168 -9Q125 -6 92 3T29 24L68 115Q96 100 133 91T216 82Q252 82 272 91T292
123Q292 153 231 172L148 196Q124 204 104 214T68 240T44 275T35 326Q35 398 88 433T234 469Q292 469 335 460T416 435L378 344Q349 360 313 369T234 378Q197 378 177 369T157 340Q157 311 219 294Q225 291 236 288T259 280T283 273T303 268Q326 261 347 251T383
226T408 189T417 136Q417 69 373 33T248 -10Q300 -20 326 -43T353 -113Q353 -173 316 -200T197 -227Q167 -227 138 -222T90 -210L118 -140Z" />
<glyph unicode="&#x160;" glyph-name="Scaron" horiz-adv-x="551" d="M338 239Q299 258 255 272T168 305Q137 320 114 335T75 371T51 417T43 481Q43 569 107 619T294 669Q346 669 405 658T511 620L466 522Q434 541 389 553T295 565Q231 565 203 545T175 492Q175
459 196 442T238 416Q271 402 316 386T401 352Q425 340 446 326T484 293T509 246T519 179Q519 135 502 100T451 40T371 2T264 -11Q210 -11 150 2T32 43L81 142Q127 119 170 108T262 96Q331 96 360 118T389 172Q389 187 384 198T370 217T353 230T338 239ZM200 729L100
887H212L277 794H288L357 887H467L362 729H200Z" />
<glyph unicode="&#x161;" glyph-name="scaron" horiz-adv-x="446" d="M219 294Q225 291 236 288T259 280T283 273T303 268Q326 261 347 251T383 226T408 189T417 136Q417 63 364 26T217 -11Q155 -11 111 -1T29 24L68 115Q96 100 133 91T216 82Q252 82 272 91T292
123Q292 153 231 172L148 196Q124 204 104 214T68 240T44 275T35 326Q35 398 88 433T234 469Q292 469 335 460T416 435L378 344Q349 360 313 369T234 378Q197 378 177 369T157 340Q157 311 219 294ZM149 529L49 687H161L226 594H237L306 687H416L311 529H149Z"
/>
<glyph unicode="&#x162;" glyph-name="uni0162" horiz-adv-x="531" d="M525 659V555H331V0H199V555H5V659H525ZM147 -140Q164 -145 178 -148T210 -151Q235 -151 249 -142T263 -114Q263 -100 259 -92T244 -79T218 -70T177 -62L200 -1Q291 -6 336 -29T382 -113Q382
-173 345 -200T226 -227Q196 -227 167 -222T119 -210L147 -140Z" />
<glyph unicode="&#x163;" glyph-name="uni0163" horiz-adv-x="405" d="M118 -140Q135 -145 149 -148T181 -151Q206 -151 220 -142T234 -114Q234 -100 230 -92T215 -79T189 -70T148 -62L170 -2Q123 13 107 52T90 148V363H12V447L89 456V544L219 567V458H376V363H219V175Q219
158 220 143T228 115T246 96T279 89Q307 89 330 95T374 112L394 26Q330 -8 253 -11Q303 -22 328 -45T353 -113Q353 -173 316 -200T197 -227Q167 -227 138 -222T90 -210L118 -140Z" />
<glyph unicode="&#x164;" glyph-name="Tcaron" horiz-adv-x="531" d="M525 659V555H331V0H199V555H5V659H525ZM186 729L86 887H198L263 794H274L343 887H453L348 729H186Z" />
<glyph unicode="&#x165;" glyph-name="tcaron" horiz-adv-x="405" d="M365 523H279L302 691H430L365 523ZM219 363V175Q219 158 220 143T228 115T246 96T279 89Q307 89 330 95T374 112L394 26Q324 -11 237 -11Q192 -11 164 0T119 32T96 82T90 148V363H12V447L89
456V544L219 567V458H376V363H219Z" />
<glyph unicode="&#x166;" glyph-name="Tbar" horiz-adv-x="531" d="M525 659V555H331V390H492V288H331V0H199V288H39V390H199V555H5V659H525Z" />
<glyph unicode="&#x167;" glyph-name="tbar" horiz-adv-x="405" d="M219 363V290H369V199H219V175Q219 158 220 143T228 115T246 96T279 89Q307 89 330 95T374 112L394 26Q324 -11 237 -11Q192 -11 164 0T119 32T96 82T90 148V199H13V290H90V363H12V447L89 456V544L219
567V458H376V363H219Z" />
<glyph unicode="&#x168;" glyph-name="Utilde" horiz-adv-x="647" d="M585 659V262Q585 119 515 54T315 -11Q187 -11 125 54T62 269V659H194V253Q194 177 221 134T314 91Q352 91 378 100T421 131T445 187T453 270V659H585ZM135 815Q157 839 190 855T261 872Q282
872 299 867T331 856T361 844T393 839Q418 839 439 849T481 873L516 798Q495 774 462 758T391 742Q370 742 353 747T321 758T291 769T259 774Q234 774 212 765T171 741L135 815Z" />
<glyph unicode="&#x169;" glyph-name="utilde" horiz-adv-x="511" d="M458 123L467 0H347L342 31Q331 24 319 19T292 8Q244 -11 195 -11Q151 -11 123 0T79 33T56 83T49 149V458H179V177Q179 159 180 143T187 115T205 96T238 89Q268 89 292 97Q302 101 311 106T328
116V458H458V123ZM67 615Q89 639 122 655T193 672Q214 672 231 667T263 656T293 644T325 639Q350 639 371 649T413 673L448 598Q427 574 394 558T323 542Q302 542 285 547T253 558T223 569T191 574Q166 574 144 565T103 541L67 615Z" />
<glyph unicode="&#x16a;" glyph-name="Umacron" horiz-adv-x="647" d="M585 659V262Q585 119 515 54T315 -11Q187 -11 125 54T62 269V659H194V253Q194 177 221 134T314 91Q352 91 378 100T421 131T445 187T453 270V659H585ZM484 758H163V855H484V758Z" />
<glyph unicode="&#x16b;" glyph-name="umacron" horiz-adv-x="511" d="M458 123L467 0H347L342 31Q331 24 319 19T292 8Q244 -11 195 -11Q151 -11 123 0T79 33T56 83T49 149V458H179V177Q179 159 180 143T187 115T205 96T238 89Q268 89 292 97Q302 101 311 106T328
116V458H458V123ZM416 558H95V655H416V558Z" />
<glyph unicode="&#x16c;" glyph-name="Ubreve" horiz-adv-x="647" d="M585 659V262Q585 119 515 54T315 -11Q187 -11 125 54T62 269V659H194V253Q194 177 221 134T314 91Q352 91 378 100T421 131T445 187T453 270V659H585ZM491 886Q491 801 454 760T323 719Q230
719 193 760T155 886H252Q255 848 269 826T323 803Q363 803 377 825T393 886H491Z" />
<glyph unicode="&#x16d;" glyph-name="ubreve" horiz-adv-x="511" d="M458 123L467 0H347L342 31Q331 24 319 19T292 8Q244 -11 195 -11Q151 -11 123 0T79 33T56 83T49 149V458H179V177Q179 159 180 143T187 115T205 96T238 89Q268 89 292 97Q302 101 311 106T328
116V458H458V123ZM423 687Q423 602 386 561T255 520Q162 520 125 561T87 687H184Q187 649 201 627T255 604Q295 604 309 626T325 687H423Z" />
<glyph unicode="&#x16e;" glyph-name="Uring" horiz-adv-x="647" d="M585 659V262Q585 119 515 54T315 -11Q187 -11 125 54T62 269V659H194V253Q194 177 221 134T314 91Q352 91 378 100T421 131T445 187T453 270V659H585ZM322 706Q257 706 231 737T205 817Q205
869 237 898T332 927Q365 927 387 919T423 895T443 860T449 816Q449 764 417 735T322 706ZM325 774Q370 774 370 817Q370 858 329 858Q283 858 283 817Q283 774 325 774Z" />
<glyph unicode="&#x16f;" glyph-name="uring" horiz-adv-x="511" d="M458 123L467 0H347L342 31Q331 24 319 19T292 8Q244 -11 195 -11Q151 -11 123 0T79 33T56 83T49 149V458H179V177Q179 159 180 143T187 115T205 96T238 89Q268 89 292 97Q302 101 311 106T328
116V458H458V123ZM250 496Q185 496 159 527T133 607Q133 659 165 688T260 717Q293 717 315 709T351 685T371 650T377 606Q377 554 345 525T250 496ZM253 564Q298 564 298 607Q298 648 257 648Q211 648 211 607Q211 564 253 564Z" />
<glyph unicode="&#x170;" glyph-name="Uhungarumlaut" horiz-adv-x="647" d="M585 659V262Q585 119 515 54T315 -11Q187 -11 125 54T62 269V659H194V253Q194 177 221 134T314 91Q352 91 378 100T421 131T445 187T453 270V659H585ZM383 890L247 732H139L250 890H383ZM576
890L440 732H331L443 890H576Z" />
<glyph unicode="&#x171;" glyph-name="uhungarumlaut" horiz-adv-x="511" d="M458 123L467 0H347L342 31Q331 24 319 19T292 8Q244 -11 195 -11Q151 -11 123 0T79 33T56 83T49 149V458H179V177Q179 159 180 143T187 115T205 96T238 89Q268 89 292 97Q302 101 311
106T328 116V458H458V123ZM324 687L188 529H80L191 687H324ZM517 687L381 529H272L384 687H517Z" />
<glyph unicode="&#x172;" glyph-name="Uogonek" horiz-adv-x="647" d="M585 659V262Q585 154 546 92T431 5Q424 3 407 -4T378 -22Q363 -36 357 -51T350 -88Q350 -112 361 -128T398 -145Q409 -145 421 -144T445 -138L468 -205Q447 -214 417 -220T355 -226Q229 -226
229 -121Q229 -83 245 -58T296 -11Q177 -7 120 59T62 269V659H194V253Q194 177 221 134T314 91Q352 91 378 100T421 131T445 187T453 270V659H585Z" />
<glyph unicode="&#x173;" glyph-name="uogonek" horiz-adv-x="511" d="M490 -205Q469 -214 439 -220T377 -226Q313 -226 282 -202T251 -123Q251 -82 271 -54T347 0L342 31Q331 24 319 19T292 8Q244 -11 195 -11Q151 -11 123 0T79 33T56 83T49 149V458H179V177Q179
159 180 143T187 115T205 96T238 89Q268 89 292 97Q302 101 311 106T328 116V458H458V123L467 0Q450 -9 435 -17T405 -37Q387 -51 380 -65T372 -100Q372 -145 420 -145Q431 -145 443 -144T467 -138L490 -205Z" />
<glyph unicode="&#x174;" glyph-name="Wcircumflex" horiz-adv-x="925" d="M925 659L762 0H573L468 557H459L359 0H168L0 659H143L262 103H271L369 659H563L666 103H675L790 659H925ZM546 887L647 729H534L469 822H458L389 729H280L385 887H546Z" />
<glyph unicode="&#x175;" glyph-name="wcircumflex" horiz-adv-x="723" d="M452 458L507 88H516L588 458H717L598 0H420L366 370H357L300 0H119L5 458H141L212 88H221L276 458H452ZM444 687L545 529H432L367 622H356L287 529H178L283 687H444Z" />
<glyph unicode="&#x176;" glyph-name="Ycircumflex" horiz-adv-x="603" d="M367 277V0H235V277Q208 320 178 369T117 469T56 568T0 659H152L298 395H307L452 659H603L367 277ZM385 887L486 729H373L308 822H297L228 729H119L224 887H385Z" />
<glyph unicode="&#x177;" glyph-name="ycircumflex" horiz-adv-x="471" d="M0 458H144L238 148H248L339 458H471L290 -37Q274 -80 256 -115T213 -176T154 -215T69 -229Q53 -229 35 -228T2 -221L18 -134Q34 -138 56 -138Q90 -138 108 -128T135 -104Q147 -89 159
-59T182 0L0 458ZM326 687L427 529H314L249 622H238L169 529H60L165 687H326Z" />
<glyph unicode="&#x178;" glyph-name="Ydieresis" horiz-adv-x="603" d="M367 277V0H235V277Q208 320 178 369T117 469T56 568T0 659H152L298 395H307L452 659H603L367 277ZM265 740H138V844H265V740ZM466 740H340V844H466V740Z" />
<glyph unicode="&#x179;" glyph-name="Zacute" horiz-adv-x="567" d="M539 576L188 103H538V0H27V82L378 557H51V659H539V576ZM470 888L333 730H214L326 888H470Z" />
<glyph unicode="&#x17a;" glyph-name="zacute" horiz-adv-x="452" d="M430 383L175 95H432V0H22V75L275 363H34V458H430V383ZM408 687L271 529H152L264 687H408Z" />
<glyph unicode="&#x17b;" glyph-name="Zdotaccent" horiz-adv-x="567" d="M539 576L188 103H538V0H27V82L378 557H51V659H539V576ZM372 741H240V845H372V741Z" />
<glyph unicode="&#x17c;" glyph-name="zdotaccent" horiz-adv-x="452" d="M430 383L175 95H432V0H22V75L275 363H34V458H430V383ZM307 555H175V659H307V555Z" />
<glyph unicode="&#x17d;" glyph-name="Zcaron" horiz-adv-x="567" d="M539 576L188 103H538V0H27V82L378 557H51V659H539V576ZM221 729L121 887H233L298 794H309L378 887H488L383 729H221Z" />
<glyph unicode="&#x17e;" glyph-name="zcaron" horiz-adv-x="452" d="M430 383L175 95H432V0H22V75L275 363H34V458H430V383ZM160 529L60 687H172L237 594H248L317 687H427L322 529H160Z" />
<glyph unicode="&#x192;" glyph-name="florin" horiz-adv-x="461" d="M271 -44Q271 -96 257 -131T216 -188T154 -219T74 -229Q55 -229 36 -227T0 -221L13 -128Q24 -130 33 -131T55 -133Q103 -133 122 -113T141 -51V288H62V379H141V485Q141 537 155 572T196 629T258
660T338 669Q368 669 398 665T451 651L424 560Q407 569 391 571T356 574Q308 574 290 554T271 492V379H411V288H271V-44Z" />
<glyph unicode="&#x1a0;" glyph-name="Ohorn" horiz-adv-x="692" d="M45 333Q45 503 121 586T356 669Q447 669 505 639T597 553Q605 567 611 583T620 614Q623 633 624 654T625 692H702Q702 660 700 636T690 590Q684 570 671 549T642 508L610 529Q629 488 637 437T646
326Q646 157 570 73T334 -11Q253 -11 198 13T109 82T60 190T45 333ZM508 339Q508 385 501 427T477 500T431 550T357 569Q307 569 274 553T219 505T189 427T180 322Q180 275 187 233T212 160T258 110T331 92Q382 92 416 108T471 155T499 233T508 339Z" />
<glyph unicode="&#x1a1;" glyph-name="ohorn" horiz-adv-x="529" d="M253 -11Q189 -11 147 6T80 54T45 130T34 231Q34 351 91 410T274 469Q370 469 419 431T485 324Q493 338 498 353T506 383Q509 402 510 423T511 461H588Q588 429 586 405T576 359Q570 339 557
318T528 277L489 302Q495 267 495 226Q495 106 437 48T253 -11ZM253 77Q317 77 340 117T363 235Q363 265 359 291T346 338T319 370T274 382Q211 382 189 342T166 223Q166 193 169 167T183 120T209 89T253 77Z" />
<glyph unicode="&#x1af;" glyph-name="Uhorn" horiz-adv-x="647" d="M585 659V559Q599 586 604 614Q607 633 608 654T609 692H686Q686 660 684 636T674 590Q668 570 655 549T626 508L585 535V262Q585 -11 315 -11Q62 -11 62 269V659H194V254Q194 91 314 91Q452
91 452 270V659H585Z" />
<glyph unicode="&#x1b0;" glyph-name="uhorn" horiz-adv-x="512" d="M459 124L467 0H347L341 33Q276 -11 195 -11Q112 -11 78 33Q49 70 49 150V459H179V177Q179 133 188 115Q200 89 238 89Q288 89 328 115V459H459V332Q471 357 476 383Q479 402 480 423T481 461H558Q558
429 556 405T546 359Q540 339 527 318T498 277L459 303V124Z" />
<glyph unicode="&#x1fa;" glyph-name="Aringacute" horiz-adv-x="652" d="M502 0L446 171H200L145 0H5L241 658Q229 679 229 708Q229 797 330 797Q381 797 405 773T430 708Q430 677 417 657L647 0H502ZM321 557L235 276H412L329 557H321ZM459 947L362 831H265L354
947H459ZM330 681Q356 681 356 708Q356 733 330 733Q303 733 303 708Q303 681 330 681Z" />
<glyph unicode="&#x1fb;" glyph-name="aringacute" horiz-adv-x="483" d="M473 0Q456 -4 425 -4Q349 -4 320 42Q295 18 257 4T184 -11Q134 -11 103 1T55 33T33 80T27 134Q27 179 41 208T83 253T148 276T233 283Q248 283 266 283T299 281V302Q299 339 279 358T210
378Q171 378 136 369T71 343L45 422Q82 442 135 455T243 469Q297 469 332 460T390 428T421 368T430 276V135Q430 107 441 97T473 87V0ZM234 198Q192 198 177 183T161 139Q161 109 172 93T216 77Q233 77 257 84T299 108V195Q282 197 266 197T234 198ZM244 486Q192
486 168 511T143 577Q143 666 244 666Q295 666 319 642T344 577Q344 534 319 510T244 486ZM244 550Q270 550 270 577Q270 602 244 602Q217 602 217 577Q217 550 244 550ZM373 802L276 686H179L268 802H373Z" />
<glyph unicode="&#x1fc;" glyph-name="AEacute" horiz-adv-x="936" d="M884 104V0H476L467 171H224L125 0H-11L380 659H873V555H576L586 390H863V288H591L601 104H884ZM440 555L284 276H463L448 555H440ZM626 888L489 730H370L482 888H626Z" />
<glyph unicode="&#x1fd;" glyph-name="aeacute" horiz-adv-x="763" d="M724 38Q710 29 689 21T641 5T585 -6T529 -11Q415 -11 363 34Q337 18 297 4T196 -11Q149 -11 117 1T64 34T36 81T27 134Q27 177 42 205T84 250T150 272T236 279H303V300Q303 337 281 357T211
378Q171 378 136 369T71 343L44 422Q82 442 136 455T244 469Q298 469 331 457T385 422Q435 469 530 469Q591 469 629 452T690 405T720 334T729 245V198H431Q432 141 458 111T549 81Q576 81 597 84T636 93T669 106T699 119L724 38ZM220 78Q248 78 273 86T318 107Q313
126 311 148T305 198H234Q192 198 176 183T160 139Q160 114 175 96T220 78ZM524 385Q472 385 453 358T432 278H597Q597 330 582 357T524 385ZM434 687L297 529H178L290 687H434Z" />
<glyph unicode="&#x1fe;" glyph-name="Oslashacute" horiz-adv-x="691" d="M45 331Q45 503 121 587T356 671Q436 671 492 647L508 638L570 721L649 669L581 577Q615 532 630 469T646 325Q646 156 570 71T334 -14Q252 -14 197 10Q182 16 172 23L112 -58L32 -6L102
88Q73 130 60 188Q45 252 45 331ZM513 338Q513 384 507 428Q505 448 498 466L238 113L252 103Q284 83 331 83Q382 83 417 100T473 150T504 230T513 338ZM437 556Q406 575 357 575Q258 575 216 508T174 321Q174 271 181 230Q182 223 183 217T186 203L443 550Q440
554 437 556ZM504 888L367 730H248L360 888H504Z" />
<glyph unicode="&#x1ff;" glyph-name="oslashacute" horiz-adv-x="529" d="M253 -13Q221 -13 195 -9T147 3L96 -58L12 12L65 75Q48 105 41 144T34 231Q34 352 91 411T274 470Q334 470 379 453L431 516L516 445L463 382Q480 352 487 313T495 226Q495 105 437 46T253
-13ZM253 69Q318 69 343 111T369 235V257Q369 262 369 267T368 277L204 81Q223 69 253 69ZM274 389Q210 389 185 346T159 223V201Q159 196 159 192T160 182L323 377Q303 389 274 389ZM437 687L300 529H181L293 687H437Z" />
<glyph unicode="&#x218;" glyph-name="uni0218" horiz-adv-x="551" d="M338 239Q299 258 255 272T168 305Q137 320 114 335T75 371T51 417T43 481Q43 569 107 619T294 669Q346 669 405 658T511 620L466 522Q434 541 389 553T295 565Q231 565 203 545T175 492Q175
459 196 442T238 416Q271 402 316 386T401 352Q425 340 446 326T484 293T509 246T519 179Q519 135 502 100T451 40T371 2T264 -11Q210 -11 150 2T32 43L81 142Q127 119 170 108T262 96Q331 96 360 118T389 172Q389 187 384 198T370 217T353 230T338 239ZM175 -258Q192
-233 202 -210T218 -164T226 -114T228 -54H345Q345 -136 324 -199T252 -317L175 -258Z" />
<glyph unicode="&#x219;" glyph-name="uni0219" horiz-adv-x="446" d="M219 294Q225 291 236 288T259 280T283 273T303 268Q326 261 347 251T383 226T408 189T417 136Q417 63 364 26T217 -11Q155 -11 111 -1T29 24L68 115Q96 100 133 91T216 82Q252 82 272 91T292
123Q292 153 231 172L148 196Q124 204 104 214T68 240T44 275T35 326Q35 398 88 433T234 469Q292 469 335 460T416 435L378 344Q349 360 313 369T234 378Q197 378 177 369T157 340Q157 311 219 294ZM123 -258Q140 -233 150 -210T166 -164T174 -114T176 -54H293Q293
-136 272 -199T200 -317L123 -258Z" />
<glyph unicode="&#x21a;" glyph-name="uni021A" horiz-adv-x="531" d="M525 659V555H331V0H199V555H5V659H525ZM153 -258Q170 -233 180 -210T196 -164T204 -114T206 -54H323Q323 -136 302 -199T230 -317L153 -258Z" />
<glyph unicode="&#x21b;" glyph-name="uni021B" horiz-adv-x="405" d="M219 363V175Q219 158 220 143T228 115T246 96T279 89Q307 89 330 95T374 112L394 26Q324 -11 237 -11Q192 -11 164 0T119 32T96 82T90 148V363H12V447L89 456V544L219 567V458H376V363H219ZM116
-258Q133 -233 143 -210T159 -164T167 -114T169 -54H286Q286 -136 265 -199T193 -317L116 -258Z" />
<glyph unicode="&#x2c6;" glyph-name="circumflex" horiz-adv-x="542" d="M353 687L454 529H341L276 622H265L196 529H87L192 687H353Z" />
<glyph unicode="&#x2c7;" glyph-name="caron" horiz-adv-x="542" d="M187 529L87 687H199L264 594H275L344 687H454L349 529H187Z" />
<glyph unicode="&#x2d8;" glyph-name="breve" horiz-adv-x="542" d="M439 687Q439 602 402 561T271 520Q178 520 141 561T103 687H200Q203 649 217 627T271 604Q311 604 325 626T341 687H439Z" />
<glyph unicode="&#x2d9;" glyph-name="dotaccent" horiz-adv-x="542" d="M337 555H205V659H337V555Z" />
<glyph unicode="&#x2da;" glyph-name="ring" horiz-adv-x="542" d="M249 496Q184 496 158 527T132 607Q132 659 164 688T259 717Q292 717 314 709T350 685T370 650T376 606Q376 554 344 525T249 496ZM252 564Q297 564 297 607Q297 648 256 648Q210 648 210 607Q210
564 252 564Z" />
<glyph unicode="&#x2db;" glyph-name="ogonek" horiz-adv-x="450" d="M343 -205Q322 -214 292 -220T230 -226Q166 -226 135 -202T104 -123Q104 -82 125 -54T204 2Q230 14 256 22T308 36L320 0Q303 -9 288 -17T258 -37Q240 -51 233 -65T225 -100Q225 -145 273 -145Q284
-145 296 -144T320 -138L343 -205Z" />
<glyph unicode="&#x2dc;" glyph-name="tilde" horiz-adv-x="542" d="M80 615Q102 639 135 655T206 672Q227 672 244 667T276 656T306 644T338 639Q363 639 384 649T426 673L461 598Q440 574 407 558T336 542Q315 542 298 547T266 558T236 569T204 574Q179 574
157 565T116 541L80 615Z" />
<glyph unicode="&#x2dd;" glyph-name="hungarumlaut" horiz-adv-x="542" d="M292 687L156 529H48L159 687H292ZM485 687L349 529H240L352 687H485Z" />
<glyph unicode="&#x3a9;" glyph-name="Omega" horiz-adv-x="640" d="M62 93H150Q105 130 74 192T42 346Q42 506 111 587T320 669Q460 669 529 588T598 346Q598 255 566 193T489 93H578V0H361V128Q378 128 400 141T443 181T477 250T491 346Q491 392 483 433T455
505T402 555T320 574Q271 574 238 556T186 506T158 433T150 346Q150 291 164 250T198 182T240 142T279 128V0H62V93Z" />
<glyph unicode="&#x3c0;" glyph-name="pi" horiz-adv-x="630" d="M460 347V111Q460 91 480 91H542V0H461Q405 0 381 28T357 116V347H252V0H151V347H50V439H580V347H460Z" />
<glyph unicode="&#x1e80;" glyph-name="Wgrave" horiz-adv-x="925" d="M925 659L762 0H573L468 557H459L359 0H168L0 659H143L262 103H271L369 659H563L666 103H675L790 659H925ZM462 888L573 730H454L318 888H462Z" />
<glyph unicode="&#x1e81;" glyph-name="wgrave" horiz-adv-x="723" d="M452 458L507 88H516L588 458H717L598 0H420L366 370H357L300 0H119L5 458H141L212 88H221L276 458H452ZM351 687L462 529H343L207 687H351Z" />
<glyph unicode="&#x1e82;" glyph-name="Wacute" horiz-adv-x="925" d="M925 659L762 0H573L468 557H459L359 0H168L0 659H143L262 103H271L369 659H563L666 103H675L790 659H925ZM615 888L478 730H359L471 888H615Z" />
<glyph unicode="&#x1e83;" glyph-name="wacute" horiz-adv-x="723" d="M452 458L507 88H516L588 458H717L598 0H420L366 370H357L300 0H119L5 458H141L212 88H221L276 458H452ZM522 687L385 529H266L378 687H522Z" />
<glyph unicode="&#x1e84;" glyph-name="Wdieresis" horiz-adv-x="925" d="M925 659L762 0H573L468 557H459L359 0H168L0 659H143L262 103H271L369 659H563L666 103H675L790 659H925ZM425 740H298V844H425V740ZM626 740H500V844H626V740Z" />
<glyph unicode="&#x1e85;" glyph-name="wdieresis" horiz-adv-x="723" d="M452 458L507 88H516L588 458H717L598 0H420L366 370H357L300 0H119L5 458H141L212 88H221L276 458H452ZM323 555H196V659H323V555ZM524 555H398V659H524V555Z" />
<glyph unicode="&#x1ea0;" glyph-name="uni1EA0" horiz-adv-x="653" d="M502 0L447 171H201L145 0H5L242 659H417L647 0H502ZM235 276H412L330 557H321L235 276ZM379 -139H273V-52H379V-139Z" />
<glyph unicode="&#x1ea1;" glyph-name="uni1EA1" horiz-adv-x="483" d="M295 -139H189V-52H295V-139ZM473 0Q456 -4 425 -4Q349 -4 320 42Q295 18 257 4T184 -11Q134 -11 103 1T55 33T33 80T27 134Q27 179 41 208T83 253T148 276T233 283Q248 283 266 283T299
281V302Q299 339 279 358T210 378Q171 378 136 369T71 343L45 422Q82 442 135 455T243 469Q297 469 332 460T390 428T421 368T430 276V135Q430 107 441 97T473 87V0ZM234 198Q192 198 177 183T161 139Q161 109 172 93T216 77Q233 77 257 84T299 108V195Q282 197
266 197T234 198Z" />
<glyph unicode="&#x1ea2;" glyph-name="uni1EA2" horiz-adv-x="653" d="M502 0L447 171H201L145 0H5L242 659H417L647 0H502ZM235 276H412L330 557H321L235 276ZM306 691V719Q306 730 309 741T320 763Q325 769 333 776T348 790T361 806T367 822Q367 849 331 849Q316
849 303 845T275 833L260 876Q296 898 341 898Q378 898 403 883T429 830Q429 813 423 800T407 777T387 758T369 739Q359 726 359 708V691H306Z" />
<glyph unicode="&#x1ea3;" glyph-name="uni1EA3" horiz-adv-x="483" d="M473 0Q456 -4 425 -4Q349 -4 320 42Q295 18 257 4T184 -11Q134 -11 103 1T55 33T33 80T27 134Q27 179 41 208T83 253T148 276T233 283Q248 283 266 283T299 281V302Q299 339 279 358T210
378Q171 378 136 369T71 343L45 422Q82 442 135 455T243 469Q297 469 332 460T390 428T421 368T430 276V135Q430 107 441 97T473 87V0ZM234 198Q192 198 177 183T161 139Q161 109 172 93T216 77Q233 77 257 84T299 108V195Q282 197 266 197T234 198ZM208 501V529Q208
540 211 551T222 573Q227 579 235 586T250 600T263 616T269 632Q269 659 233 659Q218 659 205 655T177 643L162 686Q198 708 243 708Q280 708 305 693T331 640Q331 623 325 610T309 587T289 568T271 549Q261 536 261 518V501H208Z" />
<glyph unicode="&#x1ea4;" glyph-name="uni1EA4" horiz-adv-x="653" d="M502 0L447 171H201L145 0H5L242 659H417L647 0H502ZM235 276H412L330 557H321L235 276ZM617 939L509 800H416L504 939H617ZM377 836L461 720H377L331 767H323L272 720H192L278 836H377Z" />
<glyph unicode="&#x1ea5;" glyph-name="uni1EA5" horiz-adv-x="483" d="M519 728L418 602H331L413 728H519ZM285 632L369 517H284L238 565H231L180 517H100L185 632H285ZM473 0Q456 -4 425 -4Q349 -4 320 42Q295 18 257 4T184 -11Q134 -11 103 1T55 33T33 80T27
134Q27 179 41 208T83 253T148 276T233 283Q248 283 266 283T299 281V302Q299 339 279 358T210 378Q171 378 136 369T71 343L45 422Q82 442 135 455T243 469Q297 469 332 460T390 428T421 368T430 276V135Q430 107 441 97T473 87V0ZM234 198Q192 198 177 183T161
139Q161 109 172 93T216 77Q233 77 257 84T299 108V195Q282 197 266 197T234 198Z" />
<glyph unicode="&#x1ea6;" glyph-name="uni1EA6" horiz-adv-x="653" d="M502 0L447 171H201L145 0H5L242 659H417L647 0H502ZM235 276H412L330 557H321L235 276ZM442 927L525 800H437L336 927H442ZM377 836L461 720H377L331 767H323L272 720H192L278 836H377Z" />
<glyph unicode="&#x1ea7;" glyph-name="uni1EA7" horiz-adv-x="483" d="M353 728L436 602H348L247 728H353ZM285 632L369 517H284L238 565H231L180 517H100L185 632H285ZM473 0Q456 -4 425 -4Q349 -4 320 42Q295 18 257 4T184 -11Q134 -11 103 1T55 33T33 80T27
134Q27 179 41 208T83 253T148 276T233 283Q248 283 266 283T299 281V302Q299 339 279 358T210 378Q171 378 136 369T71 343L45 422Q82 442 135 455T243 469Q297 469 332 460T390 428T421 368T430 276V135Q430 107 441 97T473 87V0ZM234 198Q192 198 177 183T161
139Q161 109 172 93T216 77Q233 77 257 84T299 108V195Q282 197 266 197T234 198Z" />
<glyph unicode="&#x1ea8;" glyph-name="uni1EA8" horiz-adv-x="653" d="M502 0L447 171H201L145 0H5L242 659H417L647 0H502ZM235 276H412L330 557H321L235 276ZM377 836L461 720H377L331 767H323L272 720H192L278 836H377ZM436 788V816Q436 827 439 838T450 860Q455
866 463 873T478 887T491 903T497 919Q497 946 461 946Q446 946 433 942T405 930L390 973Q426 995 471 995Q508 995 533 980T559 927Q559 910 553 897T537 874T517 855T499 836Q489 823 489 805V788H436Z" />
<glyph unicode="&#x1ea9;" glyph-name="uni1EA9" horiz-adv-x="483" d="M285 632L369 517H284L238 565H231L180 517H100L185 632H285ZM473 0Q456 -4 425 -4Q349 -4 320 42Q295 18 257 4T184 -11Q134 -11 103 1T55 33T33 80T27 134Q27 179 41 208T83 253T148 276T233
283Q248 283 266 283T299 281V302Q299 339 279 358T210 378Q171 378 136 369T71 343L45 422Q82 442 135 455T243 469Q297 469 332 460T390 428T421 368T430 276V135Q430 107 441 97T473 87V0ZM234 198Q192 198 177 183T161 139Q161 109 172 93T216 77Q233 77 257
84T299 108V195Q282 197 266 197T234 198ZM351 571V599Q351 610 354 621T365 643Q370 649 378 656T393 670T406 686T412 702Q412 729 376 729Q361 729 348 725T320 713L305 756Q341 778 386 778Q423 778 448 763T474 710Q474 693 468 680T452 657T432 638T414 619Q404
606 404 588V571H351Z" />
<glyph unicode="&#x1eaa;" glyph-name="uni1EAA" horiz-adv-x="653" d="M502 0L447 171H201L145 0H5L242 659H417L647 0H502ZM235 276H412L330 557H321L235 276ZM377 836L461 720H377L331 767H323L272 720H192L278 836H377ZM222 909Q259 952 313 952Q326 952 338
948T361 940T385 932T410 928Q438 928 474 953L501 898Q462 855 409 855Q396 855 384 858T361 866T337 875T312 879Q284 879 248 854L222 909Z" />
<glyph unicode="&#x1eab;" glyph-name="uni1EAB" horiz-adv-x="483" d="M285 632L369 517H284L238 565H231L180 517H100L185 632H285ZM473 0Q456 -4 425 -4Q349 -4 320 42Q295 18 257 4T184 -11Q134 -11 103 1T55 33T33 80T27 134Q27 179 41 208T83 253T148 276T233
283Q248 283 266 283T299 281V302Q299 339 279 358T210 378Q171 378 136 369T71 343L45 422Q82 442 135 455T243 469Q297 469 332 460T390 428T421 368T430 276V135Q430 107 441 97T473 87V0ZM234 198Q192 198 177 183T161 139Q161 109 172 93T216 77Q233 77 257
84T299 108V195Q282 197 266 197T234 198ZM128 714Q165 757 219 757Q232 757 244 753T267 745T291 737T316 733Q344 733 380 758L407 703Q368 660 315 660Q302 660 290 663T267 671T243 680T218 684Q190 684 154 659L128 714Z" />
<glyph unicode="&#x1eac;" glyph-name="uni1EAC" horiz-adv-x="653" d="M502 0L447 171H201L145 0H5L242 659H417L647 0H502ZM235 276H412L330 557H321L235 276ZM379 -139H273V-52H379V-139ZM377 836L461 720H377L331 767H323L272 720H192L278 836H377Z" />
<glyph unicode="&#x1ead;" glyph-name="uni1EAD" horiz-adv-x="483" d="M295 -139H189V-52H295V-139ZM285 632L369 517H284L238 565H231L180 517H100L185 632H285ZM473 0Q456 -4 425 -4Q349 -4 320 42Q295 18 257 4T184 -11Q134 -11 103 1T55 33T33 80T27 134Q27
179 41 208T83 253T148 276T233 283Q248 283 266 283T299 281V302Q299 339 279 358T210 378Q171 378 136 369T71 343L45 422Q82 442 135 455T243 469Q297 469 332 460T390 428T421 368T430 276V135Q430 107 441 97T473 87V0ZM234 198Q192 198 177 183T161 139Q161
109 172 93T216 77Q233 77 257 84T299 108V195Q282 197 266 197T234 198Z" />
<glyph unicode="&#x1eae;" glyph-name="uni1EAE" horiz-adv-x="653" d="M502 0L447 171H201L145 0H5L242 659H417L647 0H502ZM235 276H412L330 557H321L235 276ZM491 959L384 822H291L378 959H491ZM446 815Q446 697 326 697Q206 697 206 815H275Q279 757 326 757Q375
757 376 815H446Z" />
<glyph unicode="&#x1eaf;" glyph-name="uni1EAF" horiz-adv-x="483" d="M386 762L285 634H197L280 762H386ZM348 625Q348 506 229 506Q109 506 109 625H179Q180 567 229 567Q278 567 279 625H348ZM473 0Q456 -4 425 -4Q349 -4 320 42Q295 18 257 4T184 -11Q134
-11 103 1T55 33T33 80T27 134Q27 179 41 208T83 253T148 276T233 283Q248 283 266 283T299 281V302Q299 339 279 358T210 378Q171 378 136 369T71 343L45 422Q82 442 135 455T243 469Q297 469 332 460T390 428T421 368T430 276V135Q430 107 441 97T473 87V0ZM234
198Q192 198 177 183T161 139Q161 109 172 93T216 77Q233 77 257 84T299 108V195Q282 197 266 197T234 198Z" />
<glyph unicode="&#x1eb0;" glyph-name="uni1EB0" horiz-adv-x="653" d="M502 0L447 171H201L145 0H5L242 659H417L647 0H502ZM235 276H412L330 557H321L235 276ZM306 955L388 828H300L199 955H306ZM446 815Q446 697 326 697Q206 697 206 815H275Q279 757 326 757Q375
757 376 815H446Z" />
<glyph unicode="&#x1eb1;" glyph-name="uni1EB1" horiz-adv-x="483" d="M207 779L289 653H202L101 779H207ZM348 625Q348 506 229 506Q109 506 109 625H179Q180 567 229 567Q278 567 279 625H348ZM473 0Q456 -4 425 -4Q349 -4 320 42Q295 18 257 4T184 -11Q134
-11 103 1T55 33T33 80T27 134Q27 179 41 208T83 253T148 276T233 283Q248 283 266 283T299 281V302Q299 339 279 358T210 378Q171 378 136 369T71 343L45 422Q82 442 135 455T243 469Q297 469 332 460T390 428T421 368T430 276V135Q430 107 441 97T473 87V0ZM234
198Q192 198 177 183T161 139Q161 109 172 93T216 77Q233 77 257 84T299 108V195Q282 197 266 197T234 198Z" />
<glyph unicode="&#x1eb2;" glyph-name="uni1EB2" horiz-adv-x="653" d="M502 0L447 171H201L145 0H5L242 659H417L647 0H502ZM235 276H412L330 557H321L235 276ZM446 815Q446 697 326 697Q206 697 206 815H275Q279 757 326 757Q375 757 376 815H446ZM300 798V826Q300
837 303 848T314 870Q319 876 327 883T342 897T355 913T361 929Q361 956 325 956Q310 956 297 952T269 940L254 983Q290 1005 335 1005Q372 1005 397 990T423 937Q423 920 417 907T401 884T381 865T363 846Q353 833 353 815V798H300Z" />
<glyph unicode="&#x1eb3;" glyph-name="uni1EB3" horiz-adv-x="483" d="M348 625Q348 506 229 506Q109 506 109 625H179Q180 567 229 567Q278 567 279 625H348ZM473 0Q456 -4 425 -4Q349 -4 320 42Q295 18 257 4T184 -11Q134 -11 103 1T55 33T33 80T27 134Q27
179 41 208T83 253T148 276T233 283Q248 283 266 283T299 281V302Q299 339 279 358T210 378Q171 378 136 369T71 343L45 422Q82 442 135 455T243 469Q297 469 332 460T390 428T421 368T430 276V135Q430 107 441 97T473 87V0ZM234 198Q192 198 177 183T161 139Q161
109 172 93T216 77Q233 77 257 84T299 108V195Q282 197 266 197T234 198ZM202 608V636Q202 647 205 658T216 680Q221 686 229 693T244 707T257 723T263 739Q263 766 227 766Q212 766 199 762T171 750L156 793Q192 815 237 815Q274 815 299 800T325 747Q325 730
319 717T303 694T283 675T265 656Q255 643 255 625V608H202Z" />
<glyph unicode="&#x1eb4;" glyph-name="uni1EB4" horiz-adv-x="653" d="M502 0L447 171H201L145 0H5L242 659H417L647 0H502ZM235 276H412L330 557H321L235 276ZM446 815Q446 697 326 697Q206 697 206 815H275Q279 757 326 757Q375 757 376 815H446ZM227 904Q264
947 318 947Q331 947 343 943T366 935T390 927T415 923Q443 923 479 948L506 893Q467 850 414 850Q401 850 389 853T366 861T342 870T317 874Q289 874 253 849L227 904Z" />
<glyph unicode="&#x1eb5;" glyph-name="uni1EB5" horiz-adv-x="483" d="M348 625Q348 506 229 506Q109 506 109 625H179Q180 567 229 567Q278 567 279 625H348ZM473 0Q456 -4 425 -4Q349 -4 320 42Q295 18 257 4T184 -11Q134 -11 103 1T55 33T33 80T27 134Q27
179 41 208T83 253T148 276T233 283Q248 283 266 283T299 281V302Q299 339 279 358T210 378Q171 378 136 369T71 343L45 422Q82 442 135 455T243 469Q297 469 332 460T390 428T421 368T430 276V135Q430 107 441 97T473 87V0ZM234 198Q192 198 177 183T161 139Q161
109 172 93T216 77Q233 77 257 84T299 108V195Q282 197 266 197T234 198ZM128 714Q165 757 219 757Q232 757 244 753T267 745T291 737T316 733Q344 733 380 758L407 703Q368 660 315 660Q302 660 290 663T267 671T243 680T218 684Q190 684 154 659L128 714Z" />
<glyph unicode="&#x1eb6;" glyph-name="uni1EB6" horiz-adv-x="653" d="M502 0L447 171H201L145 0H5L242 659H417L647 0H502ZM235 276H412L330 557H321L235 276ZM379 -139H273V-52H379V-139ZM446 815Q446 697 326 697Q206 697 206 815H275Q279 757 326 757Q375
757 376 815H446Z" />
<glyph unicode="&#x1eb7;" glyph-name="uni1EB7" horiz-adv-x="483" d="M295 -139H189V-52H295V-139ZM348 625Q348 506 229 506Q109 506 109 625H179Q180 567 229 567Q278 567 279 625H348ZM473 0Q456 -4 425 -4Q349 -4 320 42Q295 18 257 4T184 -11Q134 -11 103
1T55 33T33 80T27 134Q27 179 41 208T83 253T148 276T233 283Q248 283 266 283T299 281V302Q299 339 279 358T210 378Q171 378 136 369T71 343L45 422Q82 442 135 455T243 469Q297 469 332 460T390 428T421 368T430 276V135Q430 107 441 97T473 87V0ZM234 198Q192
198 177 183T161 139Q161 109 172 93T216 77Q233 77 257 84T299 108V195Q282 197 266 197T234 198Z" />
<glyph unicode="&#x1eb8;" glyph-name="uni1EB8" horiz-adv-x="557" d="M505 104V0H70V659H494V555H203V390H485V288H203V104H505ZM340 -139H234V-52H340V-139Z" />
<glyph unicode="&#x1eb9;" glyph-name="uni1EB9" horiz-adv-x="498" d="M295 -139H189V-52H295V-139ZM263 -11Q200 -11 156 4T85 50T46 126T34 232Q34 469 261 469Q324 469 363 452T425 405T456 334T464 245V198H167Q167 151 185 121Q210 81 284 81Q311 81 332
84T370 93T402 106T432 119L456 38Q443 29 422 21T374 5T320 -6T263 -11ZM329 283Q329 331 313 358T259 385Q215 385 195 364T169 302Q168 298 168 293T168 283H329Z" />
<glyph unicode="&#x1eba;" glyph-name="uni1EBA" horiz-adv-x="557" d="M505 104V0H70V659H494V555H203V390H485V288H203V104H505ZM265 691V719Q265 730 268 741T279 763Q284 769 292 776T307 790T320 806T326 822Q326 849 290 849Q275 849 262 845T234 833L219
876Q255 898 300 898Q337 898 362 883T388 830Q388 813 382 800T366 777T346 758T328 739Q318 726 318 708V691H265Z" />
<glyph unicode="&#x1ebb;" glyph-name="uni1EBB" horiz-adv-x="498" d="M263 -11Q200 -11 156 4T85 50T46 126T34 232Q34 469 261 469Q324 469 363 452T425 405T456 334T464 245V198H167Q167 151 185 121Q210 81 284 81Q311 81 332 84T370 93T402 106T432 119L456
38Q443 29 422 21T374 5T320 -6T263 -11ZM329 283Q329 331 313 358T259 385Q215 385 195 364T169 302Q168 298 168 293T168 283H329ZM238 501V529Q238 540 241 551T252 573Q257 579 265 586T280 600T293 616T299 632Q299 659 263 659Q248 659 235 655T207 643L192
686Q228 708 273 708Q310 708 335 693T361 640Q361 623 355 610T339 587T319 568T301 549Q291 536 291 518V501H238Z" />
<glyph unicode="&#x1ebc;" glyph-name="uni1EBC" horiz-adv-x="557" d="M505 104V0H70V659H494V555H203V390H485V288H203V104H505ZM150 771Q187 814 241 814Q254 814 266 810T289 802T313 794T338 790Q366 790 402 815L429 760Q390 717 337 717Q324 717 312 720T289
728T265 737T240 741Q212 741 176 716L150 771Z" />
<glyph unicode="&#x1ebd;" glyph-name="uni1EBD" horiz-adv-x="498" d="M263 -11Q200 -11 156 4T85 50T46 126T34 232Q34 469 261 469Q324 469 363 452T425 405T456 334T464 245V198H167Q167 151 185 121Q210 81 284 81Q311 81 332 84T370 93T402 106T432 119L456
38Q443 29 422 21T374 5T320 -6T263 -11ZM329 283Q329 331 313 358T259 385Q215 385 195 364T169 302Q168 298 168 293T168 283H329ZM140 581Q177 624 231 624Q244 624 256 620T279 612T303 604T328 600Q356 600 392 625L419 570Q380 527 327 527Q314 527 302 530T279
538T255 547T230 551Q202 551 166 526L140 581Z" />
<glyph unicode="&#x1ebe;" glyph-name="uni1EBE" horiz-adv-x="557" d="M505 104V0H70V659H494V555H203V390H485V288H203V104H505ZM575 932L474 805H385L468 932H575ZM338 836L423 720H338L293 767H284L233 720H153L240 836H338Z" />
<glyph unicode="&#x1ebf;" glyph-name="uni1EBF" horiz-adv-x="498" d="M527 724L427 597H338L421 724H527ZM300 632L385 517H300L255 565H247L196 517H115L202 632H300ZM263 -11Q200 -11 156 4T85 50T46 126T34 232Q34 469 261 469Q324 469 363 452T425 405T456
334T464 245V198H167Q167 151 185 121Q210 81 284 81Q311 81 332 84T370 93T402 106T432 119L456 38Q443 29 422 21T374 5T320 -6T263 -11ZM329 283Q329 331 313 358T259 385Q215 385 195 364T169 302Q168 298 168 293T168 283H329Z" />
<glyph unicode="&#x1ec0;" glyph-name="uni1EC0" horiz-adv-x="557" d="M505 104V0H70V659H494V555H203V390H485V288H203V104H505ZM404 935L487 809H399L298 935H404ZM338 836L423 720H338L293 767H284L233 720H153L240 836H338Z" />
<glyph unicode="&#x1ec1;" glyph-name="uni1EC1" horiz-adv-x="498" d="M377 724L459 597H371L271 724H377ZM300 632L385 517H300L255 565H247L196 517H115L202 632H300ZM263 -11Q200 -11 156 4T85 50T46 126T34 232Q34 469 261 469Q324 469 363 452T425 405T456
334T464 245V198H167Q167 151 185 121Q210 81 284 81Q311 81 332 84T370 93T402 106T432 119L456 38Q443 29 422 21T374 5T320 -6T263 -11ZM329 283Q329 331 313 358T259 385Q215 385 195 364T169 302Q168 298 168 293T168 283H329Z" />
<glyph unicode="&#x1ec2;" glyph-name="uni1EC2" horiz-adv-x="557" d="M505 104V0H70V659H494V555H203V390H485V288H203V104H505ZM338 836L423 720H338L293 767H284L233 720H153L240 836H338ZM402 772V800Q402 811 405 822T416 844Q421 850 429 857T444 871T457
887T463 903Q463 930 427 930Q412 930 399 926T371 914L356 957Q392 979 437 979Q474 979 499 964T525 911Q525 894 519 881T503 858T483 839T465 820Q455 807 455 789V772H402Z" />
<glyph unicode="&#x1ec3;" glyph-name="uni1EC3" horiz-adv-x="498" d="M300 632L385 517H300L255 565H247L196 517H115L202 632H300ZM263 -11Q200 -11 156 4T85 50T46 126T34 232Q34 469 261 469Q324 469 363 452T425 405T456 334T464 245V198H167Q167 151 185
121Q210 81 284 81Q311 81 332 84T370 93T402 106T432 119L456 38Q443 29 422 21T374 5T320 -6T263 -11ZM329 283Q329 331 313 358T259 385Q215 385 195 364T169 302Q168 298 168 293T168 283H329ZM369 572V600Q369 611 372 622T383 644Q388 650 396 657T411 671T424
687T430 703Q430 730 394 730Q379 730 366 726T338 714L323 757Q359 779 404 779Q441 779 466 764T492 711Q492 694 486 681T470 658T450 639T432 620Q422 607 422 589V572H369Z" />
<glyph unicode="&#x1ec4;" glyph-name="uni1EC4" horiz-adv-x="557" d="M505 104V0H70V659H494V555H203V390H485V288H203V104H505ZM338 836L423 720H338L293 767H284L233 720H153L240 836H338ZM186 909Q223 952 277 952Q290 952 302 948T325 940T349 932T374 928Q402
928 438 953L465 898Q426 855 373 855Q360 855 348 858T325 866T301 875T276 879Q248 879 212 854L186 909Z" />
<glyph unicode="&#x1ec5;" glyph-name="uni1EC5" horiz-adv-x="498" d="M300 632L385 517H300L255 565H247L196 517H115L202 632H300ZM263 -11Q200 -11 156 4T85 50T46 126T34 232Q34 469 261 469Q324 469 363 452T425 405T456 334T464 245V198H167Q167 151 185
121Q210 81 284 81Q311 81 332 84T370 93T402 106T432 119L456 38Q443 29 422 21T374 5T320 -6T263 -11ZM329 283Q329 331 313 358T259 385Q215 385 195 364T169 302Q168 298 168 293T168 283H329ZM144 706Q181 749 235 749Q248 749 260 745T283 737T307 729T332
725Q360 725 396 750L423 695Q384 652 331 652Q318 652 306 655T283 663T259 672T234 676Q206 676 170 651L144 706Z" />
<glyph unicode="&#x1ec6;" glyph-name="uni1EC6" horiz-adv-x="557" d="M505 104V0H70V659H494V555H203V390H485V288H203V104H505ZM340 -139H234V-52H340V-139ZM338 836L423 720H338L293 767H284L233 720H153L240 836H338Z" />
<glyph unicode="&#x1ec7;" glyph-name="uni1EC7" horiz-adv-x="498" d="M295 -139H189V-52H295V-139ZM300 632L385 517H300L255 565H247L196 517H115L202 632H300ZM263 -11Q200 -11 156 4T85 50T46 126T34 232Q34 469 261 469Q324 469 363 452T425 405T456 334T464
245V198H167Q167 151 185 121Q210 81 284 81Q311 81 332 84T370 93T402 106T432 119L456 38Q443 29 422 21T374 5T320 -6T263 -11ZM329 283Q329 331 313 358T259 385Q215 385 195 364T169 302Q168 298 168 293T168 283H329Z" />
<glyph unicode="&#x1ec8;" glyph-name="uni1EC8" horiz-adv-x="273" d="M70 659H203V0H70V659ZM111 691V719Q111 730 114 741T125 763Q130 769 138 776T153 790T166 806T172 822Q172 849 136 849Q121 849 108 845T80 833L65 876Q101 898 146 898Q183 898 208 883T234
830Q234 813 228 800T212 777T192 758T174 739Q164 726 164 708V691H111Z" />
<glyph unicode="&#x1ec9;" glyph-name="uni1EC9" horiz-adv-x="236" d="M53 459H183V0H53V459ZM85 501V529Q85 540 88 551T99 573Q104 579 112 586T127 600T140 616T146 632Q146 659 110 659Q95 659 82 655T54 643L39 686Q75 708 120 708Q157 708 182 693T208
640Q208 623 202 610T186 587T166 568T148 549Q138 536 138 518V501H85Z" />
<glyph unicode="&#x1eca;" glyph-name="uni1ECA" horiz-adv-x="273" d="M70 659H203V0H70V659ZM190 -139H83V-52H190V-139Z" />
<glyph unicode="&#x1ecb;" glyph-name="uni1ECB" horiz-adv-x="236" d="M52 659H184V555H52V659ZM53 459H183V0H53V459ZM171 -139H65V-52H171V-139Z" />
<glyph unicode="&#x1ecc;" glyph-name="uni1ECC" horiz-adv-x="692" d="M399 -139H293V-52H399V-139ZM45 333Q45 503 121 586T356 669Q436 669 491 646T581 578T631 470T646 326Q646 157 570 73T334 -11Q253 -11 198 13T109 82T60 190T45 333ZM508 339Q508 385
501 427T477 500T431 550T357 569Q307 569 274 553T219 505T189 427T180 322Q180 275 187 233T212 160T258 110T331 92Q382 92 416 108T471 155T499 233T508 339Z" />
<glyph unicode="&#x1ecd;" glyph-name="uni1ECD" horiz-adv-x="529" d="M317 -139H211V-52H317V-139ZM253 -11Q189 -11 147 6T80 54T45 130T34 231Q34 351 91 410T274 469Q337 469 379 453T447 405T484 328T495 226Q495 106 437 48T253 -11ZM253 77Q317 77 340
117T363 235Q363 265 359 291T346 338T319 370T274 382Q211 382 189 342T166 223Q166 193 169 167T183 120T209 89T253 77Z" />
<glyph unicode="&#x1ece;" glyph-name="uni1ECE" horiz-adv-x="692" d="M45 333Q45 503 121 586T356 669Q436 669 491 646T581 578T631 470T646 326Q646 157 570 73T334 -11Q253 -11 198 13T109 82T60 190T45 333ZM508 339Q508 385 501 427T477 500T431 550T357
569Q307 569 274 553T219 505T189 427T180 322Q180 275 187 233T212 160T258 110T331 92Q382 92 416 108T471 155T499 233T508 339ZM317 706V734Q317 745 320 756T331 778Q336 784 344 791T359 805T372 821T378 837Q378 864 342 864Q327 864 314 860T286 848L271
891Q307 913 352 913Q389 913 414 898T440 845Q440 828 434 815T418 792T398 773T380 754Q370 741 370 723V706H317Z" />
<glyph unicode="&#x1ecf;" glyph-name="uni1ECF" horiz-adv-x="529" d="M253 -11Q189 -11 147 6T80 54T45 130T34 231Q34 351 91 410T274 469Q337 469 379 453T447 405T484 328T495 226Q495 106 437 48T253 -11ZM253 77Q317 77 340 117T363 235Q363 265 359 291T346
338T319 370T274 382Q211 382 189 342T166 223Q166 193 169 167T183 120T209 89T253 77ZM239 501V529Q239 540 242 551T253 573Q258 579 266 586T281 600T294 616T300 632Q300 659 264 659Q249 659 236 655T208 643L193 686Q229 708 274 708Q311 708 336 693T362
640Q362 623 356 610T340 587T320 568T302 549Q292 536 292 518V501H239Z" />
<glyph unicode="&#x1ed0;" glyph-name="uni1ED0" horiz-adv-x="692" d="M633 931L532 804H444L527 931H633ZM397 836L480 720H396L350 767H343L292 720H211L297 836H397ZM45 333Q45 503 121 586T356 669Q436 669 491 646T581 578T631 470T646 326Q646 157 570
73T334 -11Q253 -11 198 13T109 82T60 190T45 333ZM508 339Q508 385 501 427T477 500T431 550T357 569Q307 569 274 553T219 505T189 427T180 322Q180 275 187 233T212 160T258 110T331 92Q382 92 416 108T471 155T499 233T508 339Z" />
<glyph unicode="&#x1ed1;" glyph-name="uni1ED1" horiz-adv-x="529" d="M560 714L460 588H372L454 714H560ZM315 632L399 517H314L269 565H260L209 517H130L216 632H315ZM253 -11Q189 -11 147 6T80 54T45 130T34 231Q34 351 91 410T274 469Q337 469 379 453T447
405T484 328T495 226Q495 106 437 48T253 -11ZM253 77Q317 77 340 117T363 235Q363 265 359 291T346 338T319 370T274 382Q211 382 189 342T166 223Q166 193 169 167T183 120T209 89T253 77Z" />
<glyph unicode="&#x1ed2;" glyph-name="uni1ED2" horiz-adv-x="692" d="M452 943L534 816H447L346 943H452ZM397 836L480 720H396L350 767H343L292 720H211L297 836H397ZM45 333Q45 503 121 586T356 669Q436 669 491 646T581 578T631 470T646 326Q646 157 570
73T334 -11Q253 -11 198 13T109 82T60 190T45 333ZM508 339Q508 385 501 427T477 500T431 550T357 569Q307 569 274 553T219 505T189 427T180 322Q180 275 187 233T212 160T258 110T331 92Q382 92 416 108T471 155T499 233T508 339Z" />
<glyph unicode="&#x1ed3;" glyph-name="uni1ED3" horiz-adv-x="529" d="M392 721L475 594H387L286 721H392ZM315 632L399 517H314L269 565H260L209 517H130L216 632H315ZM253 -11Q189 -11 147 6T80 54T45 130T34 231Q34 351 91 410T274 469Q337 469 379 453T447
405T484 328T495 226Q495 106 437 48T253 -11ZM253 77Q317 77 340 117T363 235Q363 265 359 291T346 338T319 370T274 382Q211 382 189 342T166 223Q166 193 169 167T183 120T209 89T253 77Z" />
<glyph unicode="&#x1ed4;" glyph-name="uni1ED4" horiz-adv-x="692" d="M397 836L480 720H396L350 767H343L292 720H211L297 836H397ZM45 333Q45 503 121 586T356 669Q436 669 491 646T581 578T631 470T646 326Q646 157 570 73T334 -11Q253 -11 198 13T109 82T60
190T45 333ZM508 339Q508 385 501 427T477 500T431 550T357 569Q307 569 274 553T219 505T189 427T180 322Q180 275 187 233T212 160T258 110T331 92Q382 92 416 108T471 155T499 233T508 339ZM458 780V808Q458 819 461 830T472 852Q477 858 485 865T500 879T513
895T519 911Q519 938 483 938Q468 938 455 934T427 922L412 965Q448 987 493 987Q530 987 555 972T581 919Q581 902 575 889T559 866T539 847T521 828Q511 815 511 797V780H458Z" />
<glyph unicode="&#x1ed5;" glyph-name="uni1ED5" horiz-adv-x="529" d="M315 632L399 517H314L269 565H260L209 517H130L216 632H315ZM253 -11Q189 -11 147 6T80 54T45 130T34 231Q34 351 91 410T274 469Q337 469 379 453T447 405T484 328T495 226Q495 106 437
48T253 -11ZM253 77Q317 77 340 117T363 235Q363 265 359 291T346 338T319 370T274 382Q211 382 189 342T166 223Q166 193 169 167T183 120T209 89T253 77ZM382 573V601Q382 612 385 623T396 645Q401 651 409 658T424 672T437 688T443 704Q443 731 407 731Q392
731 379 727T351 715L336 758Q372 780 417 780Q454 780 479 765T505 712Q505 695 499 682T483 659T463 640T445 621Q435 608 435 590V573H382Z" />
<glyph unicode="&#x1ed6;" glyph-name="uni1ED6" horiz-adv-x="692" d="M397 836L480 720H396L350 767H343L292 720H211L297 836H397ZM45 333Q45 503 121 586T356 669Q436 669 491 646T581 578T631 470T646 326Q646 157 570 73T334 -11Q253 -11 198 13T109 82T60
190T45 333ZM508 339Q508 385 501 427T477 500T431 550T357 569Q307 569 274 553T219 505T189 427T180 322Q180 275 187 233T212 160T258 110T331 92Q382 92 416 108T471 155T499 233T508 339ZM237 914Q274 957 328 957Q341 957 353 953T376 945T400 937T425 933Q453
933 489 958L516 903Q477 860 424 860Q411 860 399 863T376 871T352 880T327 884Q299 884 263 859L237 914Z" />
<glyph unicode="&#x1ed7;" glyph-name="uni1ED7" horiz-adv-x="529" d="M315 632L399 517H314L269 565H260L209 517H130L216 632H315ZM253 -11Q189 -11 147 6T80 54T45 130T34 231Q34 351 91 410T274 469Q337 469 379 453T447 405T484 328T495 226Q495 106 437
48T253 -11ZM253 77Q317 77 340 117T363 235Q363 265 359 291T346 338T319 370T274 382Q211 382 189 342T166 223Q166 193 169 167T183 120T209 89T253 77ZM159 705Q196 748 250 748Q263 748 275 744T298 736T322 728T347 724Q375 724 411 749L438 694Q399 651
346 651Q333 651 321 654T298 662T274 671T249 675Q221 675 185 650L159 705Z" />
<glyph unicode="&#x1ed8;" glyph-name="uni1ED8" horiz-adv-x="692" d="M399 -139H293V-52H399V-139ZM397 836L480 720H396L350 767H343L292 720H211L297 836H397ZM45 333Q45 503 121 586T356 669Q436 669 491 646T581 578T631 470T646 326Q646 157 570 73T334
-11Q253 -11 198 13T109 82T60 190T45 333ZM508 339Q508 385 501 427T477 500T431 550T357 569Q307 569 274 553T219 505T189 427T180 322Q180 275 187 233T212 160T258 110T331 92Q382 92 416 108T471 155T499 233T508 339Z" />
<glyph unicode="&#x1ed9;" glyph-name="uni1ED9" horiz-adv-x="529" d="M317 -139H211V-52H317V-139ZM315 632L399 517H314L269 565H260L209 517H130L216 632H315ZM253 -11Q189 -11 147 6T80 54T45 130T34 231Q34 351 91 410T274 469Q337 469 379 453T447 405T484
328T495 226Q495 106 437 48T253 -11ZM253 77Q317 77 340 117T363 235Q363 265 359 291T346 338T319 370T274 382Q211 382 189 342T166 223Q166 193 169 167T183 120T209 89T253 77Z" />
<glyph unicode="&#x1eda;" glyph-name="uni1EDA" horiz-adv-x="692" d="M45 333Q45 503 121 586T356 669Q447 669 505 639T597 553Q605 567 611 583T620 614Q623 633 624 654T625 692H702Q702 660 700 636T690 590Q684 570 671 549T642 508L610 529Q629 488 637
437T646 326Q646 157 570 73T334 -11Q253 -11 198 13T109 82T60 190T45 333ZM508 339Q508 385 501 427T477 500T431 550T357 569Q307 569 274 553T219 505T189 427T180 322Q180 275 187 233T212 160T258 110T331 92Q382 92 416 108T471 155T499 233T508 339ZM469
861L369 734H280L362 861H469Z" />
<glyph unicode="&#x1edb;" glyph-name="uni1EDB" horiz-adv-x="529" d="M253 -11Q189 -11 147 6T80 54T45 130T34 231Q34 351 91 410T274 469Q370 469 419 431T485 324Q493 338 498 353T506 383Q509 402 510 423T511 461H588Q588 429 586 405T576 359Q570 339
557 318T528 277L489 302Q495 267 495 226Q495 106 437 48T253 -11ZM253 77Q317 77 340 117T363 235Q363 265 359 291T346 338T319 370T274 382Q211 382 189 342T166 223Q166 193 169 167T183 120T209 89T253 77ZM404 647L304 520H216L298 647H404Z" />
<glyph unicode="&#x1edc;" glyph-name="uni1EDC" horiz-adv-x="692" d="M45 333Q45 503 121 586T356 669Q447 669 505 639T597 553Q605 567 611 583T620 614Q623 633 624 654T625 692H702Q702 660 700 636T690 590Q684 570 671 549T642 508L610 529Q629 488 637
437T646 326Q646 157 570 73T334 -11Q253 -11 198 13T109 82T60 190T45 333ZM508 339Q508 385 501 427T477 500T431 550T357 569Q307 569 274 553T219 505T189 427T180 322Q180 275 187 233T212 160T258 110T331 92Q382 92 416 108T471 155T499 233T508 339ZM320
861L402 734H314L214 861H320Z" />
<glyph unicode="&#x1edd;" glyph-name="uni1EDD" horiz-adv-x="529" d="M253 -11Q189 -11 147 6T80 54T45 130T34 231Q34 351 91 410T274 469Q370 469 419 431T485 324Q493 338 498 353T506 383Q509 402 510 423T511 461H588Q588 429 586 405T576 359Q570 339
557 318T528 277L489 302Q495 267 495 226Q495 106 437 48T253 -11ZM253 77Q317 77 340 117T363 235Q363 265 359 291T346 338T319 370T274 382Q211 382 189 342T166 223Q166 193 169 167T183 120T209 89T253 77ZM224 647L307 520H219L118 647H224Z" />
<glyph unicode="&#x1ede;" glyph-name="uni1EDE" horiz-adv-x="692" d="M45 333Q45 503 121 586T356 669Q447 669 505 639T597 553Q605 567 611 583T620 614Q623 633 624 654T625 692H702Q702 660 700 636T690 590Q684 570 671 549T642 508L610 529Q629 488 637
437T646 326Q646 157 570 73T334 -11Q253 -11 198 13T109 82T60 190T45 333ZM508 339Q508 385 501 427T477 500T431 550T357 569Q307 569 274 553T219 505T189 427T180 322Q180 275 187 233T212 160T258 110T331 92Q382 92 416 108T471 155T499 233T508 339ZM317
706V734Q317 745 320 756T331 778Q336 784 344 791T359 805T372 821T378 837Q378 864 342 864Q327 864 314 860T286 848L271 891Q307 913 352 913Q389 913 414 898T440 845Q440 828 434 815T418 792T398 773T380 754Q370 741 370 723V706H317Z" />
<glyph unicode="&#x1edf;" glyph-name="uni1EDF" horiz-adv-x="529" d="M253 -11Q189 -11 147 6T80 54T45 130T34 231Q34 351 91 410T274 469Q370 469 419 431T485 324Q493 338 498 353T506 383Q509 402 510 423T511 461H588Q588 429 586 405T576 359Q570 339
557 318T528 277L489 302Q495 267 495 226Q495 106 437 48T253 -11ZM253 77Q317 77 340 117T363 235Q363 265 359 291T346 338T319 370T274 382Q211 382 189 342T166 223Q166 193 169 167T183 120T209 89T253 77ZM239 501V529Q239 540 242 551T253 573Q258 579
266 586T281 600T294 616T300 632Q300 659 264 659Q249 659 236 655T208 643L193 686Q229 708 274 708Q311 708 336 693T362 640Q362 623 356 610T340 587T320 568T302 549Q292 536 292 518V501H239Z" />
<glyph unicode="&#x1ee0;" glyph-name="uni1EE0" horiz-adv-x="692" d="M45 333Q45 503 121 586T356 669Q447 669 505 639T597 553Q605 567 611 583T620 614Q623 633 624 654T625 692H702Q702 660 700 636T690 590Q684 570 671 549T642 508L610 529Q629 488 637
437T646 326Q646 157 570 73T334 -11Q253 -11 198 13T109 82T60 190T45 333ZM508 339Q508 385 501 427T477 500T431 550T357 569Q307 569 274 553T219 505T189 427T180 322Q180 275 187 233T212 160T258 110T331 92Q382 92 416 108T471 155T499 233T508 339ZM216
770Q253 813 307 813Q320 813 332 809T355 801T379 793T404 789Q432 789 468 814L495 759Q456 716 403 716Q390 716 378 719T355 727T331 736T306 740Q278 740 242 715L216 770Z" />
<glyph unicode="&#x1ee1;" glyph-name="uni1EE1" horiz-adv-x="529" d="M253 -11Q189 -11 147 6T80 54T45 130T34 231Q34 351 91 410T274 469Q370 469 419 431T485 324Q493 338 498 353T506 383Q509 402 510 423T511 461H588Q588 429 586 405T576 359Q570 339
557 318T528 277L489 302Q495 267 495 226Q495 106 437 48T253 -11ZM253 77Q317 77 340 117T363 235Q363 265 359 291T346 338T319 370T274 382Q211 382 189 342T166 223Q166 193 169 167T183 120T209 89T253 77ZM133 581Q170 624 224 624Q237 624 249 620T272
612T296 604T321 600Q349 600 385 625L412 570Q373 527 320 527Q307 527 295 530T272 538T248 547T223 551Q195 551 159 526L133 581Z" />
<glyph unicode="&#x1ee2;" glyph-name="uni1EE2" horiz-adv-x="692" d="M45 333Q45 503 121 586T356 669Q447 669 505 639T597 553Q605 567 611 583T620 614Q623 633 624 654T625 692H702Q702 660 700 636T690 590Q684 570 671 549T642 508L610 529Q629 488 637
437T646 326Q646 157 570 73T334 -11Q253 -11 198 13T109 82T60 190T45 333ZM508 339Q508 385 501 427T477 500T431 550T357 569Q307 569 274 553T219 505T189 427T180 322Q180 275 187 233T212 160T258 110T331 92Q382 92 416 108T471 155T499 233T508 339ZM399
-139H293V-52H399V-139Z" />
<glyph unicode="&#x1ee3;" glyph-name="uni1EE3" horiz-adv-x="529" d="M253 -11Q189 -11 147 6T80 54T45 130T34 231Q34 351 91 410T274 469Q370 469 419 431T485 324Q493 338 498 353T506 383Q509 402 510 423T511 461H588Q588 429 586 405T576 359Q570 339
557 318T528 277L489 302Q495 267 495 226Q495 106 437 48T253 -11ZM253 77Q317 77 340 117T363 235Q363 265 359 291T346 338T319 370T274 382Q211 382 189 342T166 223Q166 193 169 167T183 120T209 89T253 77ZM317 -139H211V-52H317V-139Z" />
<glyph unicode="&#x1ee4;" glyph-name="uni1EE4" horiz-adv-x="647" d="M585 659V262Q585 -11 315 -11Q62 -11 62 269V659H194V254Q194 91 314 91Q452 91 452 270V659H585ZM376 -139H270V-52H376V-139Z" />
<glyph unicode="&#x1ee5;" glyph-name="uni1EE5" horiz-adv-x="512" d="M459 124L467 0H347L341 33Q276 -11 195 -11Q112 -11 78 33Q49 70 49 150V459H179V177Q179 133 188 115Q200 89 238 89Q288 89 328 115V459H459V124ZM317 -139H211V-52H317V-139Z" />
<glyph unicode="&#x1ee6;" glyph-name="uni1EE6" horiz-adv-x="647" d="M585 659V262Q585 -11 315 -11Q62 -11 62 269V659H194V254Q194 91 314 91Q452 91 452 270V659H585ZM306 706V734Q306 745 309 756T320 778Q325 784 333 791T348 805T361 821T367 837Q367
864 331 864Q316 864 303 860T275 848L260 891Q296 913 341 913Q378 913 403 898T429 845Q429 828 423 815T407 792T387 773T369 754Q359 741 359 723V706H306Z" />
<glyph unicode="&#x1ee7;" glyph-name="uni1EE7" horiz-adv-x="512" d="M459 124L467 0H347L341 33Q276 -11 195 -11Q112 -11 78 33Q49 70 49 150V459H179V177Q179 133 188 115Q200 89 238 89Q288 89 328 115V459H459V124ZM239 501V529Q239 540 242 551T253 573Q258
579 266 586T281 600T294 616T300 632Q300 659 264 659Q249 659 236 655T208 643L193 686Q229 708 274 708Q311 708 336 693T362 640Q362 623 356 610T340 587T320 568T302 549Q292 536 292 518V501H239Z" />
<glyph unicode="&#x1ee8;" glyph-name="uni1EE8" horiz-adv-x="647" d="M585 659V559Q599 586 604 614Q607 633 608 654T609 692H686Q686 660 684 636T674 590Q668 570 655 549T626 508L585 535V262Q585 -11 315 -11Q62 -11 62 269V659H194V254Q194 91 314 91Q452
91 452 270V659H585ZM468 861L367 734H280L362 861H468Z" />
<glyph unicode="&#x1ee9;" glyph-name="uni1EE9" horiz-adv-x="512" d="M459 124L467 0H347L341 33Q276 -11 195 -11Q112 -11 78 33Q49 70 49 150V459H179V177Q179 133 188 115Q200 89 238 89Q288 89 328 115V459H459V332Q471 357 476 383Q479 402 480 423T481
461H558Q558 429 556 405T546 359Q540 339 527 318T498 277L459 303V124ZM390 647L289 520H202L284 647H390Z" />
<glyph unicode="&#x1eea;" glyph-name="uni1EEA" horiz-adv-x="647" d="M585 659V559Q599 586 604 614Q607 633 608 654T609 692H686Q686 660 684 636T674 590Q668 570 655 549T626 508L585 535V262Q585 -11 315 -11Q62 -11 62 269V659H194V254Q194 91 314 91Q452
91 452 270V659H585ZM304 861L386 734H298L197 861H304Z" />
<glyph unicode="&#x1eeb;" glyph-name="uni1EEB" horiz-adv-x="512" d="M459 124L467 0H347L341 33Q276 -11 195 -11Q112 -11 78 33Q49 70 49 150V459H179V177Q179 133 188 115Q200 89 238 89Q288 89 328 115V459H459V332Q471 357 476 383Q479 402 480 423T481
461H558Q558 429 556 405T546 359Q540 339 527 318T498 277L459 303V124ZM230 647L313 520H224L124 647H230Z" />
<glyph unicode="&#x1eec;" glyph-name="uni1EEC" horiz-adv-x="647" d="M585 659V559Q599 586 604 614Q607 633 608 654T609 692H686Q686 660 684 636T674 590Q668 570 655 549T626 508L585 535V262Q585 -11 315 -11Q62 -11 62 269V659H194V254Q194 91 314 91Q452
91 452 270V659H585ZM306 706V734Q306 745 309 756T320 778Q325 784 333 791T348 805T361 821T367 837Q367 864 331 864Q316 864 303 860T275 848L260 891Q296 913 341 913Q378 913 403 898T429 845Q429 828 423 815T407 792T387 773T369 754Q359 741 359 723V706H306Z"
/>
<glyph unicode="&#x1eed;" glyph-name="uni1EED" horiz-adv-x="512" d="M459 124L467 0H347L341 33Q276 -11 195 -11Q112 -11 78 33Q49 70 49 150V459H179V177Q179 133 188 115Q200 89 238 89Q288 89 328 115V459H459V332Q471 357 476 383Q479 402 480 423T481
461H558Q558 429 556 405T546 359Q540 339 527 318T498 277L459 303V124ZM239 501V529Q239 540 242 551T253 573Q258 579 266 586T281 600T294 616T300 632Q300 659 264 659Q249 659 236 655T208 643L193 686Q229 708 274 708Q311 708 336 693T362 640Q362 623
356 610T340 587T320 568T302 549Q292 536 292 518V501H239Z" />
<glyph unicode="&#x1eee;" glyph-name="uni1EEE" horiz-adv-x="647" d="M585 659V559Q599 586 604 614Q607 633 608 654T609 692H686Q686 660 684 636T674 590Q668 570 655 549T626 508L585 535V262Q585 -11 315 -11Q62 -11 62 269V659H194V254Q194 91 314 91Q452
91 452 270V659H585ZM201 771Q238 814 292 814Q305 814 317 810T340 802T364 794T389 790Q417 790 453 815L480 760Q441 717 388 717Q375 717 363 720T340 728T316 737T291 741Q263 741 227 716L201 771Z" />
<glyph unicode="&#x1eef;" glyph-name="uni1EEF" horiz-adv-x="512" d="M459 124L467 0H347L341 33Q276 -11 195 -11Q112 -11 78 33Q49 70 49 150V459H179V177Q179 133 188 115Q200 89 238 89Q288 89 328 115V459H459V332Q471 357 476 383Q479 402 480 423T481
461H558Q558 429 556 405T546 359Q540 339 527 318T498 277L459 303V124ZM133 581Q170 624 224 624Q237 624 249 620T272 612T296 604T321 600Q349 600 385 625L412 570Q373 527 320 527Q307 527 295 530T272 538T248 547T223 551Q195 551 159 526L133 581Z" />
<glyph unicode="&#x1ef0;" glyph-name="uni1EF0" horiz-adv-x="647" d="M585 659V559Q599 586 604 614Q607 633 608 654T609 692H686Q686 660 684 636T674 590Q668 570 655 549T626 508L585 535V262Q585 -11 315 -11Q62 -11 62 269V659H194V254Q194 91 314 91Q452
91 452 270V659H585ZM376 -139H270V-52H376V-139Z" />
<glyph unicode="&#x1ef1;" glyph-name="uni1EF1" horiz-adv-x="512" d="M459 124L467 0H347L341 33Q276 -11 195 -11Q112 -11 78 33Q49 70 49 150V459H179V177Q179 133 188 115Q200 89 238 89Q288 89 328 115V459H459V332Q471 357 476 383Q479 402 480 423T481
461H558Q558 429 556 405T546 359Q540 339 527 318T498 277L459 303V124ZM317 -139H211V-52H317V-139Z" />
<glyph unicode="&#x1ef2;" glyph-name="Ygrave" horiz-adv-x="603" d="M367 277V0H235V277Q208 320 178 369T117 469T56 568T0 659H152L298 395H307L452 659H603L367 277ZM271 888L382 730H263L127 888H271Z" />
<glyph unicode="&#x1ef3;" glyph-name="ygrave" horiz-adv-x="471" d="M0 458H144L238 148H248L339 458H471L290 -37Q274 -80 256 -115T213 -176T154 -215T69 -229Q53 -229 35 -228T2 -221L18 -134Q34 -138 56 -138Q90 -138 108 -128T135 -104Q147 -89 159 -59T182
0L0 458ZM198 687L309 529H190L54 687H198Z" />
<glyph unicode="&#x1ef4;" glyph-name="uni1EF4" horiz-adv-x="604" d="M367 278V0H235V278L0 659H152L298 396H307L452 659H604L367 278ZM356 -139H248V-52H356V-139Z" />
<glyph unicode="&#x1ef5;" glyph-name="uni1EF5" horiz-adv-x="472" d="M430 -139H324V-52H430V-139ZM0 458H144L238 148H248L339 458H471L290 -37Q274 -80 257 -115T214 -176T154 -215T69 -229Q53 -229 35 -228T2 -221L18 -134Q34 -138 56 -138Q90 -138 108 -128T135
-104Q147 -89 159 -59T182 0L0 458Z" />
<glyph unicode="&#x1ef6;" glyph-name="uni1EF6" horiz-adv-x="604" d="M367 278V0H235V278L0 659H152L298 396H307L452 659H604L367 278ZM285 706V734Q285 745 288 756T299 778Q304 784 312 791T327 805T340 821T346 837Q346 864 310 864Q295 864 282 860T254
848L239 891Q275 913 320 913Q357 913 382 898T408 845Q408 828 402 815T386 792T366 773T348 754Q338 741 338 723V706H285Z" />
<glyph unicode="&#x1ef7;" glyph-name="uni1EF7" horiz-adv-x="472" d="M0 458H144L238 148H248L339 458H471L290 -37Q274 -80 257 -115T214 -176T154 -215T69 -229Q53 -229 35 -228T2 -221L18 -134Q34 -138 56 -138Q90 -138 108 -128T135 -104Q147 -89 159 -59T182
0L0 458ZM207 501V529Q207 540 210 551T221 573Q226 579 234 586T249 600T262 616T268 632Q268 659 232 659Q217 659 204 655T176 643L161 686Q197 708 242 708Q279 708 304 693T330 640Q330 623 324 610T308 587T288 568T270 549Q260 536 260 518V501H207Z" />
<glyph unicode="&#x1ef8;" glyph-name="uni1EF8" horiz-adv-x="604" d="M367 278V0H235V278L55 569L0 659H152L298 396H307L452 659H604L367 278ZM181 760Q218 803 272 803Q285 803 297 799T320 791T344 783T369 779Q397 779 433 804L460 749Q421 706 368 706Q355
706 343 709T320 717T296 726T271 730Q243 730 207 705L181 760Z" />
<glyph unicode="&#x1ef9;" glyph-name="uni1EF9" horiz-adv-x="472" d="M0 458H144L238 148H248L339 458H471L290 -37Q274 -80 257 -115T214 -176T154 -215T69 -229Q53 -229 35 -228T2 -221L18 -134Q34 -138 56 -138Q90 -138 108 -128T135 -104Q147 -89 159 -59T182
0L0 458ZM128 581Q165 624 219 624Q232 624 244 620T267 612T291 604T316 600Q344 600 380 625L407 570Q368 527 315 527Q302 527 290 530T267 538T243 547T218 551Q190 551 154 526L128 581Z" />
<glyph unicode="&#x2010;" glyph-name="uni2010" horiz-adv-x="564" d="M502 215H61V317H502V215Z" />
<glyph unicode="&#x2013;" glyph-name="endash" horiz-adv-x="542" d="M491 193H50V295H491V193Z" />
<glyph unicode="&#x2014;" glyph-name="emdash" horiz-adv-x="812" d="M812 193H-1V295H812V193Z" />
<glyph unicode="&#x2018;" glyph-name="quoteleft" horiz-adv-x="253" d="M219 643Q199 613 189 584T173 527T167 470T166 412H47Q47 461 52 500T69 573T98 636T140 695L219 643Z" />
<glyph unicode="&#x2019;" glyph-name="quoteright" horiz-adv-x="253" d="M34 455Q54 485 64 514T80 571T86 628T87 686H206Q206 637 201 598T184 525T155 462T113 403L34 455Z" />
<glyph unicode="&#x201a;" glyph-name="quotesinglbase" horiz-adv-x="256" d="M16 -109Q36 -79 46 -50T62 7T68 64T69 122H188Q188 73 183 34T166 -39T137 -102T95 -161L16 -109Z" />
<glyph unicode="&#x201c;" glyph-name="quotedblleft" horiz-adv-x="454" d="M219 643Q199 613 189 584T173 527T167 470T166 412H47Q47 461 52 500T69 573T98 636T140 695L219 643ZM419 643Q399 613 389 584T373 527T367 470T366 412H247Q247 461 252 500T269
573T298 636T340 695L419 643Z" />
<glyph unicode="&#x201d;" glyph-name="quotedblright" horiz-adv-x="454" d="M34 455Q54 485 64 514T80 571T86 628T87 686H206Q206 637 201 598T184 525T155 462T113 403L34 455ZM224 455Q244 485 254 514T270 571T276 628T277 686H396Q396 637 391 598T374
525T345 462T303 403L224 455Z" />
<glyph unicode="&#x201e;" glyph-name="quotedblbase" horiz-adv-x="443" d="M34 -109Q54 -79 64 -50T80 7T86 64T87 122H206Q206 73 201 34T184 -39T155 -102T113 -161L34 -109ZM224 -109Q244 -79 254 -50T270 7T276 64T277 122H396Q396 73 391 34T374 -39T345
-102T303 -161L224 -109Z" />
<glyph unicode="&#x2020;" glyph-name="dagger" horiz-adv-x="575" d="M538 323L331 351L364 130L313 -222H261L212 130L243 351L37 323V467L243 438L212 659H364L331 438L538 467V323Z" />
<glyph unicode="&#x2021;" glyph-name="daggerdbl" horiz-adv-x="575" d="M538 -30L331 -1L364 -222H212L243 -1L37 -30V114L243 84L224 218L243 351L37 323V467L243 438L212 659H364L331 438L538 467V323L331 351L351 218L331 84L538 114V-30Z" />
<glyph unicode="&#x2022;" glyph-name="bullet" horiz-adv-x="299" d="M28 258Q28 309 61 342T149 375Q206 375 238 342T271 258Q271 207 239 174T149 140Q94 140 61 173T28 258Z" />
<glyph unicode="&#x2026;" glyph-name="ellipsis" horiz-adv-x="738" d="M62 122H193V0H62V122ZM304 122H435V0H304V122ZM547 122H678V0H547V122Z" />
<glyph unicode="&#x2030;" glyph-name="perthousand" horiz-adv-x="1011" d="M206 493Q206 544 195 571T156 599Q128 599 116 572T104 493Q104 442 116 416T156 389Q184 389 195 415T206 493ZM604 165Q604 214 594 242T555 271Q526 271 515 243T503 165Q503 114
514 88T555 61Q583 61 593 87T604 165ZM161 -32H49L526 691H639L161 -32ZM555 -11Q481 -11 447 37T413 165Q413 246 446 293T555 341Q627 341 660 294T694 165Q694 86 660 38T555 -11ZM156 317Q82 317 48 365T14 493Q14 574 47 621T156 669Q228 669 262 622T296
493Q296 414 262 366T156 317ZM903 165Q903 214 893 242T854 271Q825 271 814 243T802 165Q802 114 813 88T854 61Q882 61 892 87T903 165ZM854 -11Q780 -11 746 37T712 165Q712 246 745 293T854 341Q926 341 959 294T993 165Q993 86 959 38T854 -11Z" />
<glyph unicode="&#x2039;" glyph-name="guilsinglleft" horiz-adv-x="311" d="M265 359L158 230L264 104L179 32L15 229L180 426L265 359Z" />
<glyph unicode="&#x203a;" glyph-name="guilsinglright" horiz-adv-x="311" d="M46 99L153 228L47 354L132 426L296 229L131 32L46 99Z" />
<glyph unicode="&#x2044;" glyph-name="fraction" horiz-adv-x="621" d="M5 -32L482 691H616L138 -32H5Z" />
<glyph unicode="&#x20a9;" glyph-name="won" horiz-adv-x="959" d="M25 286H145L128 366H25V439H112L65 659H193L235 439H365L402 659H564L603 439H733L775 659H896L849 439H936V366H834L818 286H936V213H803L758 0H587L548 213H416L378 0H207L160 213H25V286ZM429
286H534L520 366H443L429 286ZM630 286H705L720 366H616L630 286ZM264 286H339L352 366H249L264 286ZM477 557L456 439H507L485 557H477ZM663 103H672L692 213H643L663 103ZM300 103H309L327 213H278L300 103Z" />
<glyph unicode="&#x20ab;" glyph-name="dong" horiz-adv-x="556" d="M359 684H309V733H359V776H425V733H479V684H425V234H363V283Q325 224 254 224Q213 224 182 241T129 286T96 352T85 429Q85 474 95 511T126 576T178 619T250 635Q320 635 359 581V684ZM153 429Q153
360 182 320T260 280Q308 280 336 319T364 424Q364 498 336 539T257 581Q208 581 181 541T153 429ZM479 130H85V179H479V130Z" />
<glyph unicode="&#x20ac;" glyph-name="Euro" horiz-adv-x="622" d="M405 -11Q243 -11 173 77Q129 131 112 222H9L35 295H103V353H9L35 426H110Q126 524 180 584Q258 669 406 669Q454 669 504 656T594 615L554 505Q526 533 491 549T411 565Q323 565 281 504Q258
472 248 426H525L498 353H238V295H478L451 222H249Q284 100 415 100Q500 100 569 131V15Q531 3 489 -4T405 -11Z" />
<glyph unicode="&#x2113;" glyph-name="uni2113" horiz-adv-x="375" d="M209 438Q229 452 239 475T249 521Q249 542 247 554T242 573T236 581T228 583Q220 583 215 571T209 521V438ZM277 -3Q263 -5 252 -6T232 -7Q161 -7 129 32T96 147V291Q81 288 65 286T35 281L18
370Q39 374 59 378T96 390V546Q96 606 127 640T228 674Q362 674 362 526Q362 504 357 477T335 422T288 369T209 325V148Q209 127 214 115T229 97T251 89T277 87V-3Z" />
<glyph unicode="&#x2116;" glyph-name="uni2116" horiz-adv-x="1026" d="M622 659V0H393L204 553H196V0H63V659H292L481 106H489V659H622ZM834 360Q791 360 763 371T718 404T694 455T687 522Q687 603 725 642T848 682Q890 682 918 671T964 638T989 587T996 519Q996
438 958 399T834 360ZM834 423Q877 423 892 447T908 525Q908 565 896 592T848 620Q806 620 791 595T775 517Q775 476 787 450T834 423ZM984 253H702V330H984V253Z" />
<glyph unicode="&#x2122;" glyph-name="trademark" horiz-adv-x="765" d="M99 320V587H0V659H295V587H197V320H99ZM330 659H478L498 574L523 440H534L559 574L577 659H723V320H634V440L640 580H628L601 442L574 334H479L451 445L424 580H412L418 440V320H330V659Z" />
<glyph unicode="&#x212e;" glyph-name="estimated" horiz-adv-x="844" d="M734 125Q704 95 671 70T600 26T517 -2T422 -12Q346 -12 281 16T168 91T93 201T65 333Q65 403 93 465T170 575T284 650T422 678Q495 678 559 650T673 575T750 465T779 333V311H207V98Q248
64 302 43T422 21Q507 21 576 52T710 149L734 125ZM422 645Q356 645 303 623T207 564V343H637V564Q595 601 542 623T422 645Z" />
<glyph unicode="&#x2202;" glyph-name="partialdiff" horiz-adv-x="560" d="M506 265Q492 128 437 57T272 -15Q152 -15 97 45T41 208Q41 253 56 291T98 358T164 402T248 418Q284 418 322 408T389 374Q390 408 384 441T360 504T313 556T239 594L278 687Q350 669
397 631T471 538T506 414T506 265ZM268 94Q292 94 311 107T345 142T367 194T378 256Q349 284 316 294T257 305Q217 305 193 277T167 205Q164 154 191 124T268 94Z" />
<glyph unicode="&#x2206;" glyph-name="increment" horiz-adv-x="656" d="M25 0L325 686L631 0H25ZM325 420L197 107H456L325 420Z" />
<glyph unicode="&#x220f;" glyph-name="product" horiz-adv-x="730" d="M552 567V0H449V567H279V0H178V567H50V659H680V567H552Z" />
<glyph unicode="&#x2211;" glyph-name="summation" horiz-adv-x="523" d="M468 32V-60H50L290 342L48 719H468V628H225L405 342L222 32H468Z" />
<glyph unicode="&#x2212;" glyph-name="minus" horiz-adv-x="563" d="M502 214H61V316H502V214Z" />
<glyph unicode="&#x221a;" glyph-name="radical" horiz-adv-x="569" d="M140 340L241 196L401 675L496 644L273 -21L58 281L140 340Z" />
<glyph unicode="&#x221e;" glyph-name="infinity" horiz-adv-x="772" d="M553 380Q625 380 668 342T712 232Q712 160 669 122T553 83Q502 83 459 107T386 161Q371 146 353 132T313 107T268 90T219 83Q147 83 104 121T60 232Q60 304 103 342T219 380Q270 380 313
357T386 303Q416 333 459 356T553 380ZM552 178Q579 178 594 192T610 232Q610 257 595 271T552 285Q528 285 500 270T450 232Q473 209 499 194T552 178ZM221 178Q244 178 272 193T321 232Q299 255 273 270T221 285Q193 285 178 271T163 232Q163 207 178 193T221
178Z" />
<glyph unicode="&#x222b;" glyph-name="integral'" horiz-adv-x="405" d="M267 -48Q267 -141 231 -185T120 -229Q103 -229 83 -225T37 -212L57 -125Q77 -130 92 -133T118 -136Q143 -136 152 -113T161 -43V509Q161 597 193 643T290 689Q306 689 328 685T378 668L353
581Q329 591 318 593T296 596Q279 596 273 574T267 503V-48Z" />
<glyph unicode="&#x2248;" glyph-name="approxequal" horiz-adv-x="563" d="M493 387Q463 358 431 340T356 322Q338 322 318 327T266 346Q250 353 235 358T207 364Q185 364 163 358T115 331L67 398Q98 425 132 444T207 463Q225 463 243 459T285 444Q311 433 326
427T356 421Q380 421 400 429T441 458L493 387ZM493 236Q463 207 431 189T356 171Q338 171 318 176T266 195Q250 202 235 207T207 213Q185 213 163 205T115 175L67 247Q98 274 132 293T207 312Q225 312 243 308T285 293Q311 282 326 276T356 270Q380 270 400 278T441
307L493 236Z" />
<glyph unicode="&#x2260;" glyph-name="notequal" horiz-adv-x="563" d="M502 342H354L324 290H502V190H266L218 106L131 155L151 190H61V290H208L238 342H61V441H295L340 519L427 469L411 441H502V342Z" />
<glyph unicode="&#x2264;" glyph-name="lessequal" horiz-adv-x="537" d="M479 0H58V93H479V0ZM426 103L36 303L426 506L473 425L238 303L473 184L426 103Z" />
<glyph unicode="&#x2265;" glyph-name="greaterequal" horiz-adv-x="537" d="M58 93H479V0H58V93ZM64 184L299 303L64 425L109 506L501 303L109 103L64 184Z" />
<glyph unicode="&#x25ca;" glyph-name="lozenge" horiz-adv-x="644" d="M38 333L322 686L606 333L322 -20L38 333ZM489 333L322 542L155 333L322 124L489 333Z" />
<glyph unicode="&#xf6c1;" glyph-name="uniF6C1" horiz-adv-x="551" d="M164 -140Q181 -145 195 -148T227 -151Q252 -151 266 -142T280 -114Q280 -100 276 -92T261 -79T235 -70T194 -62L214 -8Q169 -3 123 9T32 43L81 142Q127 119 170 108T262 96Q331 96 360 118T389
172Q389 187 384 198T370 217T353 230T338 239Q299 258 255 272T168 305Q137 320 114 335T75 371T51 417T43 481Q43 569 107 619T294 669Q346 669 405 658T511 620L466 522Q434 541 389 553T295 565Q231 565 203 545T175 492Q175 459 196 442T238 416Q271 402 316
386T401 352Q425 340 446 326T484 293T509 246T519 179Q519 97 461 48T296 -10Q347 -21 373 -44T399 -113Q399 -173 362 -200T243 -227Q213 -227 184 -222T136 -210L164 -140Z" />
<glyph unicode="&#xf6c2;" glyph-name="uniF6C2" horiz-adv-x="446" d="M118 -140Q135 -145 149 -148T181 -151Q206 -151 220 -142T234 -114Q234 -100 230 -92T215 -79T189 -70T148 -62L168 -9Q125 -6 92 3T29 24L68 115Q96 100 133 91T216 82Q252 82 272 91T292
123Q292 153 231 172L148 196Q124 204 104 214T68 240T44 275T35 326Q35 398 88 433T234 469Q292 469 335 460T416 435L378 344Q349 360 313 369T234 378Q197 378 177 369T157 340Q157 311 219 294Q225 291 236 288T259 280T283 273T303 268Q326 261 347 251T383
226T408 189T417 136Q417 69 373 33T248 -10Q300 -20 326 -43T353 -113Q353 -173 316 -200T197 -227Q167 -227 138 -222T90 -210L118 -140Z" />
<glyph unicode="&#xf6c3;" glyph-name="commaaccent" horiz-adv-x="356" d="M72 -258Q89 -233 99 -210T115 -164T123 -114T125 -54H242Q242 -136 221 -199T149 -317L72 -258Z" />
<glyph unicode="&#xf8ff;" glyph-name="" horiz-adv-x="851" d="M438 333V0H105V666H771V333H438Z" />
<glyph unicode="&#xfb01;" glyph-name="fi" horiz-adv-x="568" d="M83 363H25V458H83V503Q83 606 147 650T325 695Q348 695 374 694T427 689T476 683T516 675V555H385V607Q370 609 358 610T335 611Q301 611 278 603T240 580T219 547T212 509V458H515V0H385V363H212V0H83V363Z"
/>
<glyph unicode="&#xfb02;" glyph-name="fl" horiz-adv-x="578" d="M83 363H25V458H83V507Q83 561 100 597T149 654T226 685T329 695Q353 695 379 694T430 689T477 683T515 675V149Q515 129 517 117T526 98T542 89T568 87V-3Q564 -4 557 -4Q553 -5 545 -5H534Q492
-5 464 5T418 34T393 82T386 146V604Q379 606 373 606T359 608Q351 609 344 609T331 609Q298 609 275 601T238 579T218 547T212 511V458H326V363H212V0H83V363Z" />
</font>
</defs>
</svg>
